<?xml version="1.0" encoding="utf-8" standalone="no"?>
<!DOCTYPE svg PUBLIC "-//W3C//DTD SVG 1.1//EN"
  "http://www.w3.org/Graphics/SVG/1.1/DTD/svg11.dtd">
<svg xmlns:xlink="http://www.w3.org/1999/xlink" width="864pt" height="341.28pt" viewBox="0 0 864 341.28" xmlns="http://www.w3.org/2000/svg" version="1.1">
 <metadata>
  <rdf:RDF xmlns:dc="http://purl.org/dc/elements/1.1/" xmlns:cc="http://creativecommons.org/ns#" xmlns:rdf="http://www.w3.org/1999/02/22-rdf-syntax-ns#">
   <cc:Work>
    <dc:type rdf:resource="http://purl.org/dc/dcmitype/StillImage"/>
    <dc:date>2026-10-07T21:38:21.757512</dc:date>
    <dc:format>image/svg+xml</dc:format>
    <dc:creator>
     <cc:Agent>
      <dc:title>Matplotlib v3.10.9, https://matplotlib.org/</dc:title>
     </cc:Agent>
    </dc:creator>
   </cc:Work>
  </rdf:RDF>
 </metadata>
 <defs>
  <style type="text/css">*{stroke-linejoin: round; stroke-linecap: butt}</style>
 </defs>
 <g id="figure_1">
  <g id="patch_1">
   <path d="M 0 341.28 
L 864 341.28 
L 864 0 
L 0 0 
z
" style="fill: #f8fafc"/>
  </g>
  <g id="axes_1">
   <g id="patch_2">
    <path d="M 47.88 147.1824 
L 232.956 147.1824 
Q 238.5432 147.1824 238.5432 141.6528 
L 238.5432 110.5488 
Q 238.5432 105.0192 232.956 105.0192 
L 47.88 105.0192 
Q 42.2928 105.0192 42.2928 110.5488 
L 42.2928 141.6528 
Q 42.2928 147.1824 47.88 147.1824 
z
" clip-path="url(#pa76ec85470)" style="fill: #ffffff; stroke: #2563eb; stroke-width: 1.25; stroke-linejoin: miter"/>
   </g>
   <g id="patch_3">
    <path d="M 638.028 147.1824 
L 812.628 147.1824 
Q 818.2152 147.1824 818.2152 141.6528 
L 818.2152 110.5488 
Q 818.2152 105.0192 812.628 105.0192 
L 638.028 105.0192 
Q 632.4408 105.0192 632.4408 110.5488 
L 632.4408 141.6528 
Q 632.4408 147.1824 638.028 147.1824 
z
" clip-path="url(#pa76ec85470)" style="fill: #ffffff; stroke: #059669; stroke-width: 1.25; stroke-linejoin: miter"/>
   </g>
   <g id="patch_4">
    <path d="M 47.88 204.552 
L 232.956 204.552 
Q 238.5432 204.552 238.5432 199.0224 
L 238.5432 167.9184 
Q 238.5432 162.3888 232.956 162.3888 
L 47.88 162.3888 
Q 42.2928 162.3888 42.2928 167.9184 
L 42.2928 199.0224 
Q 42.2928 204.552 47.88 204.552 
z
" clip-path="url(#pa76ec85470)" style="fill: #ffffff; stroke: #2563eb; stroke-width: 1.25; stroke-linejoin: miter"/>
   </g>
   <g id="patch_5">
    <path d="M 638.028 204.552 
L 812.628 204.552 
Q 818.2152 204.552 818.2152 199.0224 
L 818.2152 167.9184 
Q 818.2152 162.3888 812.628 162.3888 
L 638.028 162.3888 
Q 632.4408 162.3888 632.4408 167.9184 
L 632.4408 199.0224 
Q 632.4408 204.552 638.028 204.552 
z
" clip-path="url(#pa76ec85470)" style="fill: #ffffff; stroke: #059669; stroke-width: 1.25; stroke-linejoin: miter"/>
   </g>
   <g id="patch_6">
    <path d="M 47.88 261.9216 
L 232.956 261.9216 
Q 238.5432 261.9216 238.5432 256.392 
L 238.5432 225.288 
Q 238.5432 219.7584 232.956 219.7584 
L 47.88 219.7584 
Q 42.2928 219.7584 42.2928 225.288 
L 42.2928 256.392 
Q 42.2928 261.9216 47.88 261.9216 
z
" clip-path="url(#pa76ec85470)" style="fill: #ffffff; stroke: #2563eb; stroke-width: 1.25; stroke-linejoin: miter"/>
   </g>
   <g id="patch_7">
    <path d="M 638.028 261.9216 
L 812.628 261.9216 
Q 818.2152 261.9216 818.2152 256.392 
L 818.2152 225.288 
Q 818.2152 219.7584 812.628 219.7584 
L 638.028 219.7584 
Q 632.4408 219.7584 632.4408 225.288 
L 632.4408 256.392 
Q 632.4408 261.9216 638.028 261.9216 
z
" clip-path="url(#pa76ec85470)" style="fill: #ffffff; stroke: #059669; stroke-width: 1.25; stroke-linejoin: miter"/>
   </g>
   <g id="text_1">
    <!-- 奶牛判定：逐个检查间距，跳过与放置的理由 -->
    <g style="fill: #17324d" transform="translate(37.404 31.0608) scale(0.18 -0.18)">
     <defs>
      <path id="MicrosoftYaHei-5976" d="M 4594 2934 
L 5019 4384 
L 3744 4384 
Q 3744 2141 3488 1134 
Q 3250 91 2431 -834 
Q 2269 -666 2031 -484 
Q 2813 334 3044 1309 
Q 3269 2222 3269 4384 
L 2538 4384 
L 2538 4847 
L 5519 4847 
L 5519 4384 
L 5094 2928 
L 6038 2928 
Q 5994 1222 5931 453 
Q 5869 -628 5000 -628 
Q 4494 -622 3975 -603 
Q 3944 -359 3875 -53 
Q 4425 -134 4900 -134 
Q 5431 -134 5463 572 
Q 5519 1247 5544 2466 
L 4594 2466 
L 4594 2934 
z
M 2500 509 
L 2188 59 
Q 1938 291 1625 559 
Q 1156 -153 381 -753 
Q 250 -559 94 -347 
Q 838 191 1269 866 
Q 850 1222 344 1634 
Q 581 2478 775 3522 
L 138 3522 
L 138 3991 
L 850 3991 
Q 956 4609 1044 5291 
L 1550 5222 
Q 1438 4547 1338 3991 
L 2488 3991 
L 2488 3584 
Q 2350 1928 1881 1003 
Q 2206 753 2500 509 
z
M 2006 3522 
L 1250 3522 
Q 1031 2359 850 1766 
Q 1188 1522 1506 1291 
Q 1919 2184 2006 3522 
z
" transform="scale(0.015625)"/>
      <path id="MicrosoftYaHei-725b" d="M 3000 5284 
L 3525 5284 
L 3525 3966 
L 5713 3966 
L 5713 3478 
L 3525 3478 
L 3525 1866 
L 6250 1866 
L 6250 1378 
L 3525 1378 
L 3525 -797 
L 3000 -797 
L 3000 1378 
L 175 1378 
L 175 1866 
L 3000 1866 
L 3000 3478 
L 1425 3478 
Q 1125 2772 788 2203 
Q 606 2291 294 2422 
Q 950 3422 1394 4947 
L 1925 4828 
Q 1778 4375 1622 3966 
L 3000 3966 
L 3000 5284 
z
" transform="scale(0.015625)"/>
      <path id="MicrosoftYaHei-5224" d="M 200 1803 
L 1622 1803 
Q 1700 2222 1709 2697 
L 331 2697 
L 331 3134 
L 1725 3134 
Q 1756 3959 1756 5259 
L 2244 5259 
Q 2238 4016 2219 3134 
L 3594 3134 
L 3594 2697 
L 2209 2697 
Q 2203 2225 2138 1803 
L 3700 1803 
L 3700 1366 
L 2050 1366 
Q 1716 -28 694 -872 
Q 513 -653 313 -472 
Q 1194 234 1519 1366 
L 200 1366 
L 200 1803 
z
M 5475 5284 
L 5963 5284 
L 5963 53 
Q 5963 -753 5169 -753 
Q 4856 -753 4275 -741 
Q 4244 -466 4188 -209 
Q 4669 -259 5019 -259 
Q 5475 -259 5475 228 
L 5475 5284 
z
M 4144 4584 
L 4625 4584 
L 4625 759 
L 4144 759 
L 4144 4584 
z
M 2525 3728 
Q 3000 4309 3313 4866 
L 3756 4591 
Q 3306 3928 2906 3434 
L 2525 3728 
z
M 269 4603 
L 656 4853 
Q 1075 4316 1444 3759 
L 1013 3466 
Q 606 4153 269 4603 
z
" transform="scale(0.015625)"/>
      <path id="MicrosoftYaHei-5b9a" d="M 81 -384 
Q 1119 509 1281 2241 
L 1806 2159 
Q 1731 1581 1578 1081 
Q 2063 50 3081 -103 
L 3081 2647 
L 225 2647 
L 225 3116 
L 6163 3116 
L 6163 2647 
L 3600 2647 
L 3600 1634 
L 5775 1634 
L 5775 1172 
L 3600 1172 
L 3600 -138 
Q 4844 -169 6306 -116 
Q 6200 -359 6125 -634 
Q 4594 -653 3450 -616 
Q 2041 -616 1378 528 
Q 1022 -300 413 -872 
Q 269 -628 81 -384 
z
M 450 4566 
L 3116 4566 
Q 2931 4834 2725 5091 
L 3200 5347 
Q 3444 5066 3731 4716 
L 3450 4566 
L 5981 4566 
L 5981 3378 
L 5488 3378 
L 5488 4097 
L 944 4097 
L 944 3384 
L 450 3384 
L 450 4566 
z
" transform="scale(0.015625)"/>
      <path id="MicrosoftYaHei-ff1a" d="M 1606 3531 
Q 1772 3531 1890 3415 
Q 2009 3300 2009 3138 
Q 2009 2975 1893 2858 
Q 1778 2741 1606 2741 
Q 1434 2741 1318 2858 
Q 1203 2975 1203 3138 
Q 1203 3300 1322 3415 
Q 1441 3531 1606 3531 
z
M 1606 716 
Q 1772 716 1890 600 
Q 2009 484 2009 319 
Q 2009 150 1890 36 
Q 1772 -78 1606 -78 
Q 1441 -78 1322 36 
Q 1203 150 1203 319 
Q 1203 484 1322 600 
Q 1441 716 1606 716 
z
" transform="scale(0.015625)"/>
      <path id="MicrosoftYaHei-9010" d="M 1588 903 
Q 3019 1384 4100 2556 
Q 4016 2806 3891 3041 
Q 3109 2228 1969 1791 
Q 1888 1997 1706 2228 
Q 2928 2616 3638 3450 
Q 3528 3606 3397 3750 
Q 2753 3272 1913 2928 
Q 1819 3166 1644 3372 
Q 2847 3747 3641 4534 
L 2025 4534 
L 2025 4984 
L 6119 4984 
L 6119 4534 
L 4241 4534 
Q 4016 4272 3747 4034 
Q 4144 3603 4384 3106 
Q 5034 3597 5588 4128 
L 5956 3772 
Q 5322 3225 4572 2697 
Q 5516 2053 6331 1434 
L 5988 997 
Q 5359 1538 4716 2038 
Q 4769 1713 4769 1366 
Q 4769 122 3650 122 
Q 3363 122 2988 147 
Q 2950 391 2894 659 
Q 3325 597 3638 597 
Q 4288 597 4288 1391 
Q 4284 1719 4231 2028 
Q 3222 1009 1838 459 
Q 1738 697 1588 903 
z
M 2688 -203 
L 4150 -228 
L 6300 -166 
Q 6231 -372 6125 -659 
L 4025 -678 
L 2531 -641 
Q 1513 -622 1081 91 
Q 825 -147 331 -747 
L 75 -228 
Q 594 272 844 506 
L 844 2641 
L 131 2641 
L 131 3103 
L 1325 3103 
L 1325 484 
Q 1700 -191 2688 -203 
z
M 856 5203 
Q 1175 4816 1731 4022 
L 1288 3709 
Q 781 4503 456 4934 
L 856 5203 
z
" transform="scale(0.015625)"/>
      <path id="MicrosoftYaHei-4e2a" d="M 2913 3028 
L 3481 3028 
L 3481 -841 
L 2913 -841 
L 2913 3028 
z
M 3600 5178 
L 3506 5034 
Q 4519 3366 6319 2647 
Q 6125 2341 5988 2084 
Q 4150 3047 3206 4566 
Q 2281 3122 400 1997 
Q 263 2222 81 2491 
Q 2031 3572 2981 5178 
L 3600 5178 
z
" transform="scale(0.015625)"/>
      <path id="MicrosoftYaHei-68c0" d="M 81 1378 
Q 675 2328 988 3597 
L 144 3597 
L 144 4009 
L 1044 4009 
L 1044 5266 
L 1481 5266 
L 1481 4009 
L 2319 4009 
L 2319 3597 
L 1481 3597 
L 1481 2672 
L 1756 2872 
Q 2094 2459 2350 2097 
L 2006 1828 
Q 1788 2197 1481 2597 
L 1481 -841 
L 1044 -841 
L 1044 2647 
Q 725 1534 281 828 
Q 206 1103 81 1378 
z
M 2163 -122 
L 4544 -122 
Q 4881 791 5244 2203 
L 5750 2059 
Q 5331 741 5013 -122 
L 6188 -122 
L 6188 -566 
L 2163 -566 
L 2163 -122 
z
M 4538 5216 
L 4456 5091 
Q 5119 3891 6344 3166 
Q 6175 2978 6000 2741 
Q 4781 3603 4181 4672 
Q 3438 3466 2475 2666 
Q 2325 2866 2119 3059 
Q 3281 3941 3944 5216 
L 4538 5216 
z
M 2900 2972 
L 5463 2972 
L 5463 2534 
L 2900 2534 
L 2900 2972 
z
M 3656 2197 
L 4094 2303 
Q 4338 1441 4500 578 
L 4031 459 
Q 3875 1441 3656 2197 
z
M 2469 1947 
L 2900 2072 
Q 3138 1378 3388 378 
L 2925 241 
Q 2719 1172 2469 1947 
z
" transform="scale(0.015625)"/>
      <path id="MicrosoftYaHei-67e5" d="M 306 4659 
L 2975 4659 
L 2975 5328 
L 3419 5328 
L 3419 4659 
L 6125 4659 
L 6125 4241 
L 3809 4241 
Q 4797 3488 6306 3103 
Q 6144 2859 6019 2659 
Q 5681 2775 5369 2909 
L 5369 197 
L 4894 197 
L 4894 478 
L 1525 478 
L 1525 191 
L 1050 191 
L 1050 2878 
Q 731 2731 381 2597 
Q 250 2791 88 2997 
Q 1700 3506 2559 4241 
L 306 4241 
L 306 4659 
z
M 156 -141 
L 6244 -141 
L 6244 -591 
L 156 -591 
L 156 -141 
z
M 2975 3066 
L 2975 4138 
Q 2256 3444 1119 2909 
L 5366 2909 
Q 4213 3400 3419 4125 
L 3419 3066 
L 2975 3066 
z
M 1525 909 
L 4894 909 
L 4894 1484 
L 1525 1484 
L 1525 909 
z
M 4894 2478 
L 1525 2478 
L 1525 1909 
L 4894 1909 
L 4894 2478 
z
" transform="scale(0.015625)"/>
      <path id="MicrosoftYaHei-95f4" d="M 1863 3647 
L 4513 3647 
L 4513 553 
L 2313 553 
L 2313 166 
L 1863 166 
L 1863 3647 
z
M 2388 4453 
L 2388 4922 
L 6013 4922 
L 6013 -28 
Q 6013 -816 5119 -816 
Q 4756 -816 4169 -803 
Q 4144 -616 4069 -297 
Q 4588 -334 5056 -334 
Q 5525 -334 5525 122 
L 5525 4453 
L 2388 4453 
z
M 419 4084 
L 906 4084 
L 906 -816 
L 419 -816 
L 419 4084 
z
M 2313 997 
L 4063 997 
L 4063 1884 
L 2313 1884 
L 2313 997 
z
M 4063 3203 
L 2313 3203 
L 2313 2328 
L 4063 2328 
L 4063 3203 
z
M 744 5003 
L 1100 5322 
Q 1575 4872 1981 4447 
L 1575 4091 
Q 1194 4541 744 5003 
z
" transform="scale(0.015625)"/>
      <path id="MicrosoftYaHei-8ddd" d="M 2988 4953 
L 6225 4953 
L 6225 4503 
L 3463 4503 
L 3463 3328 
L 5913 3328 
L 5913 991 
L 5450 991 
L 5450 1228 
L 3463 1228 
L 3463 -128 
L 6300 -128 
L 6300 -578 
L 2988 -578 
L 2988 4953 
z
M 69 -34 
L 425 22 
L 425 2478 
L 831 2478 
L 831 91 
Q 1134 144 1438 203 
L 1438 3122 
L 938 3122 
L 938 2916 
L 525 2916 
L 525 4984 
L 2444 4984 
L 2444 3122 
L 1856 3122 
L 1856 2022 
L 2588 2022 
L 2588 1628 
L 1856 1628 
L 1856 284 
Q 2241 363 2631 447 
Q 2638 178 2656 -9 
Q 1219 -272 219 -516 
L 69 -34 
z
M 5450 2891 
L 3463 2891 
L 3463 1666 
L 5450 1666 
L 5450 2891 
z
M 2025 3484 
L 2025 4622 
L 938 4622 
L 938 3484 
L 2025 3484 
z
" transform="scale(0.015625)"/>
      <path id="MicrosoftYaHei-ff0c" d="M 1931 775 
L 1403 -891 
L 966 -891 
L 1350 775 
L 1931 775 
z
" transform="scale(0.015625)"/>
      <path id="MicrosoftYaHei-8df3" d="M 63 109 
Q 231 131 406 153 
L 406 2453 
L 813 2453 
L 813 213 
Q 1050 247 1294 288 
L 1294 3097 
L 931 3097 
L 931 2891 
L 525 2891 
L 525 5009 
L 2256 5009 
L 2256 3097 
L 1713 3097 
L 1713 2159 
L 2406 2159 
L 2406 1766 
L 1713 1766 
L 1713 356 
Q 2056 416 2406 484 
Q 2406 234 2419 53 
Q 1269 -141 175 -359 
L 63 109 
z
M 4419 5303 
L 4881 5303 
L 4881 2353 
Q 5556 1966 6163 1566 
L 5844 1134 
Q 5384 1475 4881 1806 
L 4881 191 
Q 4869 -234 5200 -209 
L 5463 -209 
Q 5769 -216 5819 134 
Q 5863 416 5894 878 
Q 6100 778 6350 697 
Q 6313 334 6256 -3 
Q 6156 -666 5538 -653 
L 5113 -653 
Q 4388 -684 4419 141 
L 4419 5303 
z
M 3363 5284 
L 3819 5284 
L 3819 2553 
Q 3819 1509 3644 766 
Q 3375 -253 2431 -866 
Q 2294 -666 2106 -441 
Q 3238 228 3316 1663 
Q 2894 1281 2494 922 
L 2150 1316 
Q 2706 1722 3363 2288 
L 3363 5284 
z
M 1850 3459 
L 1850 4647 
L 931 4647 
L 931 3459 
L 1850 3459 
z
M 5663 4378 
L 6081 4159 
Q 5763 3503 5388 2897 
L 4988 3141 
Q 5369 3722 5663 4378 
z
M 2350 4172 
L 2763 4366 
Q 3081 3741 3313 3141 
L 2863 2922 
Q 2638 3584 2350 4172 
z
" transform="scale(0.015625)"/>
      <path id="MicrosoftYaHei-8fc7" d="M 1963 4109 
L 4644 4109 
L 4644 5303 
L 5150 5303 
L 5150 4109 
L 6225 4109 
L 6225 3653 
L 5150 3653 
L 5150 1059 
Q 5150 253 4375 253 
Q 3969 253 3425 259 
Q 3394 503 3331 822 
Q 3831 772 4263 772 
Q 4650 772 4644 1209 
L 4644 3653 
L 1963 3653 
L 1963 4109 
z
M 2731 -147 
L 4413 -178 
L 6313 -116 
Q 6206 -366 6113 -609 
L 4281 -634 
L 2681 -597 
Q 1606 -584 1100 116 
Q 925 -22 375 -672 
L 113 -147 
Q 597 297 881 538 
L 881 2684 
L 156 2684 
L 156 3134 
L 1363 3134 
L 1363 425 
Q 1822 -131 2731 -147 
z
M 2213 2909 
L 2594 3191 
Q 3275 2322 3638 1822 
L 3206 1503 
Q 2694 2284 2213 2909 
z
M 756 5278 
Q 1169 4803 1656 4116 
Q 1406 3966 1213 3816 
Q 781 4484 381 5009 
L 756 5278 
z
" transform="scale(0.015625)"/>
      <path id="MicrosoftYaHei-4e0e" d="M 1163 2384 
L 1163 2859 
L 1413 5328 
L 1931 5328 
L 1834 4334 
L 6269 4334 
L 6269 3859 
L 1791 3859 
L 1694 2859 
L 5813 2859 
Q 5738 1547 5644 416 
Q 5556 -247 5263 -478 
Q 4981 -703 4322 -703 
Q 3706 -697 2900 -678 
Q 2863 -466 2794 -134 
Q 3744 -203 4213 -209 
Q 5050 -266 5125 447 
Q 5206 1278 5263 2384 
L 1163 2384 
z
M 106 1409 
L 4738 1409 
L 4738 934 
L 106 934 
L 106 1409 
z
" transform="scale(0.015625)"/>
      <path id="MicrosoftYaHei-653e" d="M 3956 5359 
L 4456 5272 
Q 4322 4681 4106 4128 
L 6281 4128 
L 6281 3666 
L 5759 3666 
Q 5638 1816 4884 725 
Q 5447 25 6338 -353 
Q 6131 -628 5994 -847 
Q 5153 -394 4559 322 
Q 3947 -356 3094 -903 
Q 2950 -722 2738 -509 
Q 3669 56 4259 731 
Q 3713 1625 3563 2988 
Q 3378 2669 3163 2366 
Q 3031 2553 2850 2766 
Q 3663 3884 3956 5359 
z
M 156 4184 
L 3169 4184 
L 3169 3722 
L 1400 3722 
Q 1394 3166 1378 2703 
L 2813 2703 
Q 2750 1166 2694 241 
Q 2638 -584 1981 -616 
Q 1600 -622 1263 -609 
Q 1225 -378 1156 -84 
Q 1569 -128 1794 -128 
Q 2175 -128 2206 347 
Q 2269 1078 2306 2241 
L 1359 2241 
Q 1338 216 369 -853 
Q 225 -641 38 -416 
Q 625 247 750 1003 
Q 909 1713 906 3722 
L 156 3722 
L 156 4184 
z
M 5263 3666 
L 3934 3666 
Q 4034 2134 4584 1166 
Q 5188 2131 5263 3666 
z
M 1206 5141 
L 1631 5366 
Q 1900 4966 2144 4503 
L 1706 4272 
Q 1456 4753 1206 5141 
z
" transform="scale(0.015625)"/>
      <path id="MicrosoftYaHei-7f6e" d="M 94 -284 
L 1025 -284 
L 1025 2609 
L 2938 2609 
L 2938 3016 
L 244 3016 
L 244 3366 
L 2938 3366 
L 2938 3697 
L 3388 3697 
L 3388 3366 
L 6150 3366 
L 6150 3016 
L 3388 3016 
L 3388 2609 
L 5431 2609 
L 5431 -284 
L 6294 -284 
L 6294 -647 
L 94 -647 
L 94 -284 
z
M 638 5034 
L 5756 5034 
L 5756 3641 
L 5331 3641 
L 5331 3784 
L 1069 3784 
L 1069 3641 
L 638 3641 
L 638 5034 
z
M 1463 -284 
L 4994 -284 
L 4994 116 
L 1463 116 
L 1463 -284 
z
M 1463 441 
L 4994 441 
L 4994 834 
L 1463 834 
L 1463 441 
z
M 1463 1159 
L 4994 1159 
L 4994 1553 
L 1463 1553 
L 1463 1159 
z
M 4994 2272 
L 1463 2272 
L 1463 1878 
L 4994 1878 
L 4994 2272 
z
M 5331 4697 
L 4181 4697 
L 4181 4122 
L 5331 4122 
L 5331 4697 
z
M 2625 4122 
L 3769 4122 
L 3769 4697 
L 2625 4697 
L 2625 4122 
z
M 1069 4122 
L 2213 4122 
L 2213 4697 
L 1069 4697 
L 1069 4122 
z
" transform="scale(0.015625)"/>
      <path id="MicrosoftYaHei-7684" d="M 356 4284 
L 988 4284 
Q 1219 4853 1369 5322 
L 1894 5172 
Q 1697 4694 1513 4284 
L 2763 4284 
L 2763 -691 
L 2263 -691 
L 2263 -203 
L 856 -203 
L 856 -734 
L 356 -734 
L 356 4284 
z
M 2856 3003 
Q 3444 3934 3850 5322 
L 4375 5191 
Q 4216 4719 4050 4303 
L 6063 4303 
Q 5988 1091 5938 259 
Q 5894 -722 4906 -722 
Q 4338 -722 3750 -684 
Q 3713 -372 3650 -128 
L 3669 -128 
Q 4294 -216 4813 -216 
Q 5381 -216 5425 384 
Q 5494 1316 5525 3834 
L 3850 3834 
Q 3578 3231 3288 2772 
Q 3119 2891 2856 3003 
z
M 856 266 
L 2263 266 
L 2263 1847 
L 856 1847 
L 856 266 
z
M 2263 3816 
L 856 3816 
L 856 2297 
L 2263 2297 
L 2263 3816 
z
M 3406 2578 
L 3788 2859 
Q 4481 2041 4894 1441 
L 4431 1116 
Q 3988 1841 3406 2578 
z
" transform="scale(0.015625)"/>
      <path id="MicrosoftYaHei-7406" d="M 2031 -166 
L 3988 -166 
L 3988 734 
L 2394 734 
L 2394 1172 
L 3988 1172 
L 3988 1997 
L 2988 1997 
L 2988 1766 
L 2525 1766 
L 2525 4991 
L 5913 4991 
L 5913 1766 
L 5450 1766 
L 5450 1997 
L 4450 1997 
L 4450 1172 
L 6044 1172 
L 6044 734 
L 4450 734 
L 4450 -166 
L 6319 -166 
L 6319 -603 
L 2031 -603 
L 2031 -166 
z
M 44 203 
Q 525 319 975 434 
L 975 2328 
L 194 2328 
L 194 2766 
L 975 2766 
L 975 4328 
L 131 4328 
L 131 4766 
L 2281 4766 
L 2281 4328 
L 1438 4328 
L 1438 2766 
L 2231 2766 
L 2231 2328 
L 1438 2328 
L 1438 559 
Q 1850 675 2238 791 
Q 2269 509 2306 303 
Q 1238 16 213 -303 
L 44 203 
z
M 4450 2422 
L 5450 2422 
L 5450 3291 
L 4450 3291 
L 4450 2422 
z
M 2988 2422 
L 3988 2422 
L 3988 3291 
L 2988 3291 
L 2988 2422 
z
M 5450 4566 
L 4450 4566 
L 4450 3703 
L 5450 3703 
L 5450 4566 
z
M 2988 3703 
L 3988 3703 
L 3988 4566 
L 2988 4566 
L 2988 3703 
z
" transform="scale(0.015625)"/>
      <path id="MicrosoftYaHei-7531" d="M 638 -734 
L 638 4141 
L 2950 4141 
L 2950 5328 
L 3475 5328 
L 3475 4141 
L 5788 4141 
L 5788 -734 
L 5275 -734 
L 5275 -372 
L 1150 -372 
L 1150 -734 
L 638 -734 
z
M 1150 91 
L 2950 91 
L 2950 1678 
L 1150 1678 
L 1150 91 
z
M 3475 91 
L 5275 91 
L 5275 1678 
L 3475 1678 
L 3475 91 
z
M 1150 2128 
L 2950 2128 
L 2950 3678 
L 1150 3678 
L 1150 2128 
z
M 5275 3678 
L 3475 3678 
L 3475 2128 
L 5275 2128 
L 5275 3678 
z
" transform="scale(0.015625)"/>
     </defs>
     <use xlink:href="#MicrosoftYaHei-5976"/>
     <use xlink:href="#MicrosoftYaHei-725b" transform="translate(100 0)"/>
     <use xlink:href="#MicrosoftYaHei-5224" transform="translate(200 0)"/>
     <use xlink:href="#MicrosoftYaHei-5b9a" transform="translate(300 0)"/>
     <use xlink:href="#MicrosoftYaHei-ff1a" transform="translate(400 0)"/>
     <use xlink:href="#MicrosoftYaHei-9010" transform="translate(500 0)"/>
     <use xlink:href="#MicrosoftYaHei-4e2a" transform="translate(600 0)"/>
     <use xlink:href="#MicrosoftYaHei-68c0" transform="translate(700 0)"/>
     <use xlink:href="#MicrosoftYaHei-67e5" transform="translate(800 0)"/>
     <use xlink:href="#MicrosoftYaHei-95f4" transform="translate(900 0)"/>
     <use xlink:href="#MicrosoftYaHei-8ddd" transform="translate(1000 0)"/>
     <use xlink:href="#MicrosoftYaHei-ff0c" transform="translate(1100 0)"/>
     <use xlink:href="#MicrosoftYaHei-8df3" transform="translate(1200 0)"/>
     <use xlink:href="#MicrosoftYaHei-8fc7" transform="translate(1300 0)"/>
     <use xlink:href="#MicrosoftYaHei-4e0e" transform="translate(1400 0)"/>
     <use xlink:href="#MicrosoftYaHei-653e" transform="translate(1500 0)"/>
     <use xlink:href="#MicrosoftYaHei-7f6e" transform="translate(1600 0)"/>
     <use xlink:href="#MicrosoftYaHei-7684" transform="translate(1700 0)"/>
     <use xlink:href="#MicrosoftYaHei-7406" transform="translate(1800 0)"/>
     <use xlink:href="#MicrosoftYaHei-7531" transform="translate(1900 0)"/>
    </g>
   </g>
   <g id="text_2">
    <!-- 排序 [1,2,4,8,9]；固定 d=3，先放在最左位置 1；放够 3 头可提前返回。 -->
    <g style="fill: #526579" transform="translate(37.404 60.0912) scale(0.105 -0.105)">
     <defs>
      <path id="MicrosoftYaHei-6392" d="M 4375 5309 
L 4863 5309 
L 4863 4159 
L 6188 4159 
L 6188 3684 
L 4863 3684 
L 4863 2609 
L 6038 2609 
L 6038 2134 
L 4863 2134 
L 4863 1047 
L 6294 1047 
L 6294 572 
L 4863 572 
L 4863 -841 
L 4375 -841 
L 4375 5309 
z
M 1844 1047 
L 3138 1047 
L 3138 2134 
L 2150 2134 
L 2150 2609 
L 3138 2609 
L 3138 3684 
L 2163 3684 
L 2163 4159 
L 3138 4159 
L 3138 5309 
L 3625 5309 
L 3625 -841 
L 3138 -841 
L 3138 572 
L 1844 572 
L 1844 1047 
z
M 131 4166 
L 875 4166 
L 875 5316 
L 1350 5316 
L 1350 4166 
L 1969 4166 
L 1969 3728 
L 1350 3728 
L 1350 2563 
Q 1650 2716 1938 2872 
Q 1956 2603 1988 2372 
Q 1681 2216 1350 2044 
L 1350 -134 
Q 1350 -772 669 -778 
Q 481 -784 156 -778 
Q 131 -528 75 -259 
Q 419 -284 613 -284 
Q 875 -284 875 3 
L 875 1797 
Q 525 1616 150 1416 
L 88 1966 
Q 491 2144 875 2328 
L 875 3728 
L 131 3728 
L 131 4166 
z
" transform="scale(0.015625)"/>
      <path id="MicrosoftYaHei-5e8f" d="M 1438 1966 
L 3634 1966 
Q 3053 2394 2525 2722 
L 2825 3041 
Q 3294 2756 3719 2478 
L 4850 3147 
L 1806 3147 
L 1806 3597 
L 5756 3597 
L 5756 3141 
L 4141 2191 
Q 4219 2138 4294 2084 
L 4128 1966 
L 6181 1966 
L 6181 1503 
L 5638 384 
Q 5450 484 5175 609 
L 5619 1509 
L 4119 1509 
L 4119 22 
Q 4119 -734 3400 -734 
Q 3019 -734 2463 -722 
Q 2438 -509 2388 -184 
Q 2881 -253 3250 -253 
Q 3606 -253 3606 103 
L 3606 1509 
L 1438 1509 
L 1438 1966 
z
M 2981 5147 
L 3431 5391 
Q 3675 5078 3881 4747 
L 3584 4572 
L 6244 4572 
L 6244 4116 
L 1263 4116 
L 1263 2416 
Q 1263 191 406 -872 
Q 256 -666 50 -447 
Q 738 353 738 2291 
L 738 4572 
L 3369 4572 
Q 3178 4884 2981 5147 
z
" transform="scale(0.015625)"/>
      <path id="MicrosoftYaHei-20" transform="scale(0.015625)"/>
      <path id="MicrosoftYaHei-5b" d="M 1959 -1100 
L 681 -1100 
L 681 4841 
L 1959 4841 
L 1959 4406 
L 1219 4406 
L 1219 -669 
L 1959 -669 
L 1959 -1100 
z
" transform="scale(0.015625)"/>
      <path id="MicrosoftYaHei-31" d="M 1781 0 
L 1781 4141 
Q 1638 3997 1295 3819 
Q 953 3641 663 3569 
L 663 4169 
Q 1047 4275 1484 4508 
Q 1922 4741 2156 4947 
L 2388 4947 
L 2388 0 
L 1781 0 
z
" transform="scale(0.015625)"/>
      <path id="MicrosoftYaHei-2c" d="M 1109 778 
L 575 -888 
L 131 -888 
L 519 778 
L 1109 778 
z
" transform="scale(0.015625)"/>
      <path id="MicrosoftYaHei-32" d="M 2666 3572 
Q 2666 3963 2419 4186 
Q 2172 4409 1747 4409 
Q 1447 4409 1140 4256 
Q 834 4103 569 3819 
L 569 4413 
Q 806 4659 1107 4790 
Q 1409 4922 1816 4922 
Q 2472 4922 2872 4570 
Q 3272 4219 3272 3619 
Q 3272 3084 3026 2693 
Q 2781 2303 2188 1894 
Q 1581 1475 1376 1294 
Q 1172 1113 1090 947 
Q 1009 781 1009 544 
L 3416 544 
L 3416 0 
L 372 0 
L 372 241 
Q 372 659 486 951 
Q 600 1244 862 1520 
Q 1125 1797 1681 2184 
Q 2250 2584 2458 2886 
Q 2666 3188 2666 3572 
z
" transform="scale(0.015625)"/>
      <path id="MicrosoftYaHei-34" d="M 2906 4841 
L 2906 1644 
L 3631 1644 
L 3631 1138 
L 2906 1138 
L 2906 0 
L 2313 0 
L 2313 1138 
L 53 1138 
L 53 1616 
Q 656 2294 1265 3178 
Q 1875 4063 2272 4841 
L 2906 4841 
z
M 741 1644 
L 2313 1644 
L 2313 3950 
Q 1988 3366 1616 2817 
Q 1244 2269 741 1644 
z
" transform="scale(0.015625)"/>
      <path id="MicrosoftYaHei-38" d="M 306 1350 
Q 306 1769 556 2122 
Q 806 2475 1200 2625 
Q 884 2803 700 3081 
Q 516 3359 516 3684 
Q 516 4028 692 4312 
Q 869 4597 1183 4759 
Q 1497 4922 1875 4922 
Q 2256 4922 2572 4761 
Q 2888 4600 3063 4315 
Q 3238 4031 3238 3684 
Q 3238 3366 3058 3086 
Q 2878 2806 2559 2625 
Q 2953 2472 3200 2119 
Q 3447 1766 3447 1350 
Q 3447 938 3250 611 
Q 3053 284 2690 103 
Q 2328 -78 1875 -78 
Q 1425 -78 1065 103 
Q 706 284 506 612 
Q 306 941 306 1350 
z
M 906 1378 
Q 906 947 1172 687 
Q 1438 428 1878 428 
Q 2309 428 2582 692 
Q 2856 956 2856 1378 
Q 2856 1778 2579 2051 
Q 2303 2325 1878 2325 
Q 1456 2325 1181 2058 
Q 906 1791 906 1378 
z
M 1081 3634 
Q 1081 3309 1312 3076 
Q 1544 2844 1878 2844 
Q 2206 2844 2445 3078 
Q 2684 3313 2684 3634 
Q 2684 3963 2454 4191 
Q 2225 4419 1878 4419 
Q 1534 4419 1307 4195 
Q 1081 3972 1081 3634 
z
" transform="scale(0.015625)"/>
      <path id="MicrosoftYaHei-39" d="M 578 656 
Q 978 425 1441 425 
Q 2091 425 2448 937 
Q 2806 1450 2806 2394 
Q 2800 2388 2794 2394 
Q 2475 1788 1722 1788 
Q 1113 1788 713 2206 
Q 313 2625 313 3294 
Q 313 4006 750 4464 
Q 1188 4922 1884 4922 
Q 2606 4922 3012 4355 
Q 3419 3788 3419 2703 
Q 3419 1363 2894 641 
Q 2369 -81 1441 -81 
Q 931 -81 578 84 
L 578 656 
z
M 931 3372 
Q 931 2884 1181 2598 
Q 1431 2313 1872 2313 
Q 2253 2313 2512 2573 
Q 2772 2834 2772 3206 
Q 2772 3728 2514 4070 
Q 2256 4413 1834 4413 
Q 1444 4413 1187 4116 
Q 931 3819 931 3372 
z
" transform="scale(0.015625)"/>
      <path id="MicrosoftYaHei-5d" d="M 1466 -1100 
L 184 -1100 
L 184 -669 
L 928 -669 
L 928 4406 
L 184 4406 
L 184 4841 
L 1466 4841 
L 1466 -1100 
z
" transform="scale(0.015625)"/>
      <path id="MicrosoftYaHei-ff1b" d="M 1606 3531 
Q 1772 3531 1890 3415 
Q 2009 3300 2009 3138 
Q 2009 2975 1893 2858 
Q 1778 2741 1606 2741 
Q 1434 2741 1318 2858 
Q 1203 2975 1203 3138 
Q 1203 3300 1322 3415 
Q 1441 3531 1606 3531 
z
M 1931 775 
L 1403 -891 
L 966 -891 
L 1350 775 
L 1931 775 
z
" transform="scale(0.015625)"/>
      <path id="MicrosoftYaHei-56fa" d="M 469 4997 
L 5938 4997 
L 5938 -834 
L 5469 -834 
L 5469 -509 
L 944 -509 
L 944 -841 
L 469 -841 
L 469 4997 
z
M 5469 4541 
L 944 4541 
L 944 -53 
L 5469 -53 
L 5469 4541 
z
M 1869 2459 
L 2963 2459 
L 2963 3216 
L 1313 3216 
L 1313 3641 
L 2963 3641 
L 2963 4366 
L 3425 4366 
L 3425 3641 
L 5081 3641 
L 5081 3216 
L 3425 3216 
L 3425 2459 
L 4531 2459 
L 4531 434 
L 4081 434 
L 4081 691 
L 2319 691 
L 2319 434 
L 1869 434 
L 1869 2459 
z
M 4081 2047 
L 2319 2047 
L 2319 1103 
L 4081 1103 
L 4081 2047 
z
" transform="scale(0.015625)"/>
      <path id="MicrosoftYaHei-64" d="M 3547 0 
L 2934 0 
L 2934 575 
L 2922 575 
Q 2544 -81 1747 -81 
Q 1091 -81 703 386 
Q 316 853 316 1647 
Q 316 2503 753 3020 
Q 1191 3538 1897 3538 
Q 2603 3538 2922 2988 
L 2934 2988 
L 2934 5116 
L 3547 5116 
L 3547 0 
z
M 2938 2056 
Q 2938 2472 2664 2751 
Q 2391 3031 1991 3031 
Q 1503 3031 1222 2667 
Q 941 2303 941 1675 
Q 941 1097 1211 761 
Q 1481 425 1931 425 
Q 2375 425 2656 754 
Q 2938 1084 2938 1575 
L 2938 2056 
z
" transform="scale(0.015625)"/>
      <path id="MicrosoftYaHei-3d" d="M 3972 2497 
L 788 2497 
L 788 2969 
L 3972 2969 
L 3972 2497 
z
M 3972 1053 
L 788 1053 
L 788 1525 
L 3972 1525 
L 3972 1053 
z
" transform="scale(0.015625)"/>
      <path id="MicrosoftYaHei-33" d="M 447 809 
Q 944 425 1569 425 
Q 2069 425 2361 670 
Q 2653 916 2653 1328 
Q 2653 2247 1338 2247 
L 934 2247 
L 934 2753 
L 1319 2753 
Q 2484 2753 2484 3616 
Q 2484 4413 1594 4413 
Q 1084 4413 634 4069 
L 634 4647 
Q 1109 4922 1744 4922 
Q 2363 4922 2738 4598 
Q 3113 4275 3113 3759 
Q 3113 2809 2144 2538 
L 2144 2525 
Q 2669 2469 2973 2155 
Q 3278 1841 3278 1372 
Q 3278 719 2808 319 
Q 2338 -81 1556 -81 
Q 869 -81 447 175 
L 447 809 
z
" transform="scale(0.015625)"/>
      <path id="MicrosoftYaHei-5148" d="M 225 2453 
L 2956 2453 
L 2956 3784 
L 1459 3784 
Q 1153 3166 800 2709 
Q 569 2891 394 2997 
Q 1094 3903 1481 5166 
L 1969 5028 
Q 1828 4613 1672 4247 
L 2956 4247 
L 2956 5309 
L 3469 5309 
L 3469 4247 
L 5788 4247 
L 5788 3784 
L 3469 3784 
L 3469 2453 
L 6219 2453 
L 6219 1991 
L 4206 1991 
L 4206 222 
Q 4169 -259 4638 -216 
L 5275 -216 
Q 5706 -216 5750 109 
Q 5794 428 5819 1022 
Q 6056 922 6344 834 
Q 6313 372 6231 -122 
Q 6169 -434 5956 -559 
Q 5769 -678 5281 -678 
L 4538 -678 
Q 3663 -716 3700 141 
L 3700 1991 
L 2478 1991 
Q 2428 909 2044 328 
Q 1581 -397 369 -847 
Q 244 -647 50 -397 
Q 1163 -16 1581 584 
Q 1925 1047 1978 1991 
L 225 1991 
L 225 2453 
z
" transform="scale(0.015625)"/>
      <path id="MicrosoftYaHei-5728" d="M 250 4553 
L 2088 4553 
Q 2241 4931 2363 5328 
L 2881 5197 
Q 2772 4869 2647 4553 
L 6275 4553 
L 6275 4091 
L 2450 4091 
Q 2078 3256 1581 2519 
L 1581 -791 
L 1094 -791 
L 1094 1853 
Q 756 1431 375 1047 
Q 244 1266 75 1497 
Q 1225 2691 1884 4091 
L 250 4091 
L 250 4553 
z
M 1800 109 
L 3756 109 
L 3756 1978 
L 2131 1978 
L 2131 2428 
L 3756 2428 
L 3756 3684 
L 4269 3684 
L 4269 2428 
L 5919 2428 
L 5919 1978 
L 4269 1978 
L 4269 109 
L 6275 109 
L 6275 -328 
L 1800 -328 
L 1800 109 
z
" transform="scale(0.015625)"/>
      <path id="MicrosoftYaHei-6700" d="M 169 -28 
Q 475 3 781 38 
L 781 2416 
L 94 2416 
L 94 2791 
L 6288 2791 
L 6288 2416 
L 3025 2416 
L 3025 331 
Q 3325 375 3625 422 
Q 3619 309 3631 22 
Q 3338 -19 3025 -63 
L 3025 -859 
L 2600 -859 
L 2600 -125 
Q 1525 -278 281 -472 
L 169 -28 
z
M 1038 5053 
L 5363 5053 
L 5363 3047 
L 4925 3047 
L 4925 3191 
L 1475 3191 
L 1475 3047 
L 1038 3047 
L 1038 5053 
z
M 3338 1609 
L 3338 1972 
L 5819 1972 
L 5819 1609 
Q 5500 844 4981 278 
Q 5516 -113 6306 -316 
Q 6144 -553 6025 -753 
Q 5219 -488 4666 -34 
Q 4128 -516 3413 -822 
Q 3306 -634 3125 -428 
Q 3834 -156 4347 266 
Q 3825 825 3603 1609 
L 3338 1609 
z
M 1475 3553 
L 4925 3553 
L 4925 3953 
L 1475 3953 
L 1475 3553 
z
M 4925 4691 
L 1475 4691 
L 1475 4291 
L 4925 4291 
L 4925 4691 
z
M 5344 1609 
L 4025 1609 
Q 4222 994 4659 556 
Q 5094 1013 5344 1609 
z
M 2600 269 
L 2600 691 
L 1206 691 
L 1206 88 
Q 1913 172 2600 269 
z
M 1206 1916 
L 2600 1916 
L 2600 2416 
L 1206 2416 
L 1206 1916 
z
M 1206 1053 
L 2600 1053 
L 2600 1553 
L 1206 1553 
L 1206 1053 
z
" transform="scale(0.015625)"/>
      <path id="MicrosoftYaHei-5de6" d="M 1150 9 
L 3425 9 
L 3425 2034 
L 1884 2034 
Q 1363 913 413 -291 
Q 250 -53 69 128 
Q 1425 1803 1988 3878 
L 300 3878 
L 300 4359 
L 2106 4359 
Q 2209 4822 2281 5328 
L 2813 5259 
Q 2728 4784 2634 4359 
L 6250 4359 
L 6250 3878 
L 2519 3878 
Q 2363 3228 2088 2509 
L 5850 2509 
L 5850 2034 
L 3956 2034 
L 3956 9 
L 6250 9 
L 6250 -459 
L 1150 -459 
L 1150 9 
z
" transform="scale(0.015625)"/>
      <path id="MicrosoftYaHei-4f4d" d="M 1788 -59 
L 4228 -59 
Q 4678 1144 5269 3372 
L 5831 3203 
Q 5453 2044 4756 -59 
L 6319 -59 
L 6319 -522 
L 1788 -522 
L 1788 -59 
z
M 81 2291 
Q 975 3641 1431 5322 
L 1963 5191 
Q 1703 4397 1406 3709 
L 1406 -853 
L 938 -853 
L 938 2731 
Q 644 2181 319 1716 
Q 231 1953 81 2291 
z
M 1919 4191 
L 4122 4191 
Q 3844 4659 3506 5059 
L 3931 5353 
Q 4206 5034 4613 4497 
L 4150 4191 
L 6206 4191 
L 6206 3728 
L 1919 3728 
L 1919 4191 
z
M 2769 3309 
Q 3181 2184 3669 584 
L 3150 434 
Q 2725 1966 2294 3147 
L 2769 3309 
z
" transform="scale(0.015625)"/>
      <path id="MicrosoftYaHei-591f" d="M 81 3153 
Q 694 4066 1119 5309 
L 1575 5209 
Q 1438 4822 1281 4459 
L 2913 4459 
Q 2906 4028 2906 3647 
Q 3750 4366 4313 5284 
L 4744 5097 
Q 4581 4853 4413 4634 
L 6019 4634 
L 6019 4209 
Q 5000 2866 3331 1897 
Q 3231 2034 3006 2253 
Q 3681 2609 4244 3022 
Q 4044 3228 3744 3491 
L 4063 3778 
Q 4344 3522 4575 3291 
Q 5106 3728 5506 4222 
L 4088 4222 
Q 3713 3766 3206 3303 
Q 3094 3434 2906 3591 
Q 2888 1134 2850 372 
Q 2800 -759 1806 -722 
Q 1531 -722 1081 -703 
Q 1050 -484 1000 -197 
Q 1519 -253 1788 -253 
Q 2381 -284 2413 434 
Q 2463 1472 2469 4047 
L 1088 4047 
Q 888 3622 656 3228 
L 1988 3228 
L 1988 766 
L 894 766 
L 894 422 
L 494 422 
L 494 2953 
Q 419 2841 350 2734 
Q 288 2847 81 3153 
z
M 2931 934 
Q 3938 1672 4644 2647 
L 5075 2466 
Q 4906 2247 4731 2041 
L 6250 2041 
L 6250 1616 
Q 5025 -122 3038 -909 
Q 2944 -772 2725 -516 
Q 3650 -166 4375 347 
Q 4188 541 3881 816 
L 4194 1097 
Q 4513 809 4713 603 
Q 5275 1059 5688 1628 
L 4363 1628 
Q 3869 1091 3263 616 
Q 3031 853 2931 934 
z
M 1588 2847 
L 894 2847 
L 894 1147 
L 1588 1147 
L 1588 2847 
z
" transform="scale(0.015625)"/>
      <path id="MicrosoftYaHei-5934" d="M 156 1903 
L 3263 1903 
Q 3363 3166 3363 5272 
L 3900 5272 
Q 3900 3441 3806 1903 
L 6244 1903 
L 6244 1453 
L 3719 1453 
Q 3675 1247 3575 1041 
Q 4831 409 6125 -322 
L 5806 -803 
Q 4519 3 3306 641 
Q 2556 -253 456 -884 
Q 344 -691 119 -391 
Q 2788 341 3150 1453 
L 156 1453 
L 156 1903 
z
M 775 3741 
Q 1663 3209 2394 2697 
L 2088 2266 
Q 1369 2803 494 3359 
L 775 3741 
z
M 1400 5084 
Q 2344 4509 2981 4059 
L 2669 3634 
Q 1831 4266 1131 4716 
L 1400 5084 
z
" transform="scale(0.015625)"/>
      <path id="MicrosoftYaHei-53ef" d="M 813 3409 
L 3569 3409 
L 3569 941 
L 1306 941 
L 1306 497 
L 813 497 
L 813 3409 
z
M 119 4809 
L 6294 4809 
L 6294 4334 
L 5256 4334 
L 5256 103 
Q 5256 -741 4438 -747 
Q 3850 -747 3294 -741 
Q 3263 -453 3194 -172 
Q 3900 -222 4269 -222 
Q 4731 -222 4731 278 
L 4731 4334 
L 119 4334 
L 119 4809 
z
M 3075 2966 
L 1306 2966 
L 1306 1384 
L 3075 1384 
L 3075 2966 
z
" transform="scale(0.015625)"/>
      <path id="MicrosoftYaHei-63d0" d="M 2569 5041 
L 5688 5041 
L 5688 2572 
L 5238 2572 
L 5238 2753 
L 3019 2753 
L 3019 2572 
L 2569 2572 
L 2569 5041 
z
M 1594 -559 
Q 2475 178 2581 1553 
L 3050 1553 
Q 3019 1116 2922 734 
Q 3319 128 3956 -84 
L 3956 1797 
L 2025 1797 
L 2025 2209 
L 6238 2209 
L 6238 1797 
L 4425 1797 
L 4425 1097 
L 5994 1097 
L 5994 697 
L 4425 697 
L 4425 -184 
Q 4850 -234 6313 -178 
Q 6300 -209 6169 -641 
Q 5425 -659 4625 -622 
Q 3363 -606 2769 266 
Q 2506 -388 2006 -853 
Q 1819 -697 1594 -559 
z
M 81 2003 
Q 481 2175 888 2366 
L 888 3697 
L 131 3697 
L 131 4122 
L 888 4122 
L 888 5284 
L 1363 5284 
L 1363 4122 
L 2163 4122 
L 2163 3697 
L 1363 3697 
L 1363 2597 
Q 1722 2775 2081 2972 
Q 2100 2728 2131 2472 
Q 1747 2281 1363 2088 
L 1363 -91 
Q 1363 -697 900 -747 
Q 575 -778 169 -766 
Q 131 -503 88 -247 
Q 431 -284 675 -284 
Q 888 -284 888 -53 
L 888 1844 
Q 513 1650 144 1453 
L 81 2003 
z
M 3019 3153 
L 5238 3153 
L 5238 3703 
L 3019 3703 
L 3019 3153 
z
M 5238 4641 
L 3019 4641 
L 3019 4097 
L 5238 4097 
L 5238 4641 
z
" transform="scale(0.015625)"/>
      <path id="MicrosoftYaHei-524d" d="M 1038 -841 
L 563 -841 
L 563 3322 
L 3300 3322 
L 3300 -172 
Q 3300 -784 2669 -772 
Q 2406 -772 1950 -759 
Q 1913 -516 1856 -297 
Q 2238 -328 2563 -328 
Q 2825 -334 2825 -72 
L 2825 722 
L 1038 722 
L 1038 -841 
z
M 150 4372 
L 2169 4372 
Q 1963 4697 1644 5078 
L 2038 5347 
Q 2425 4916 2663 4578 
L 2353 4372 
L 4063 4372 
L 3813 4509 
Q 4144 4916 4388 5359 
L 4863 5084 
Q 4575 4691 4284 4372 
L 6263 4372 
L 6263 3934 
L 150 3934 
L 150 4372 
z
M 5331 3522 
L 5819 3522 
L 5819 28 
Q 5819 -741 5094 -747 
Q 4763 -753 4269 -741 
Q 4238 -484 4181 -216 
Q 4644 -266 4931 -266 
Q 5331 -266 5331 141 
L 5331 3522 
z
M 4044 3222 
L 4519 3222 
L 4519 409 
L 4044 409 
L 4044 3222 
z
M 2825 2897 
L 1038 2897 
L 1038 2228 
L 2825 2228 
L 2825 2897 
z
M 1038 1141 
L 2825 1141 
L 2825 1809 
L 1038 1809 
L 1038 1141 
z
" transform="scale(0.015625)"/>
      <path id="MicrosoftYaHei-8fd4" d="M 2938 2478 
L 3238 2803 
Q 3903 2306 4506 1838 
Q 5047 2413 5331 3128 
L 2819 3128 
Q 2813 1322 1938 309 
Q 1800 497 1606 703 
Q 2344 1553 2344 3172 
L 2344 4884 
Q 4338 4909 5931 5153 
L 6106 4666 
Q 4494 4497 2819 4447 
L 2819 3566 
L 5844 3566 
L 5844 3122 
Q 5541 2238 4897 1534 
Q 5547 1019 6106 528 
L 5731 122 
Q 5131 666 4531 1175 
Q 3800 522 2731 47 
Q 2594 241 2419 447 
Q 3444 891 4150 1497 
Q 3544 2003 2938 2478 
z
M 2694 -191 
L 4256 -209 
L 6300 -166 
Q 6231 -372 6125 -659 
L 4113 -653 
L 2575 -634 
Q 1506 -622 1081 91 
Q 825 -147 331 -747 
L 75 -228 
Q 628 306 875 538 
L 875 2641 
L 131 2641 
L 131 3103 
L 1356 3103 
L 1356 428 
Q 1734 -178 2694 -191 
z
M 856 5203 
Q 1175 4816 1731 4022 
L 1288 3709 
Q 781 4503 456 4934 
L 856 5203 
z
" transform="scale(0.015625)"/>
      <path id="MicrosoftYaHei-56de" d="M 475 4947 
L 5938 4947 
L 5938 -778 
L 5413 -778 
L 5413 -378 
L 1000 -378 
L 1000 -778 
L 475 -778 
L 475 4947 
z
M 5413 4484 
L 1000 4484 
L 1000 72 
L 5413 72 
L 5413 4484 
z
M 1875 3528 
L 4531 3528 
L 4531 797 
L 4044 797 
L 4044 1147 
L 2363 1147 
L 2363 797 
L 1875 797 
L 1875 3528 
z
M 4044 3091 
L 2363 3091 
L 2363 1584 
L 4044 1584 
L 4044 3091 
z
" transform="scale(0.015625)"/>
      <path id="MicrosoftYaHei-3002" d="M 1219 863 
Q 1525 863 1750 625 
Q 1975 388 1975 72 
Q 1975 -284 1747 -507 
Q 1519 -731 1197 -731 
Q 875 -731 642 -503 
Q 409 -275 409 66 
Q 409 413 656 638 
Q 903 863 1219 863 
z
M 1209 -275 
Q 1328 -275 1431 -184 
Q 1534 -94 1534 50 
Q 1534 209 1434 304 
Q 1334 400 1191 400 
Q 1056 400 959 304 
Q 863 209 863 53 
Q 863 -100 977 -187 
Q 1091 -275 1209 -275 
z
" transform="scale(0.015625)"/>
     </defs>
     <use xlink:href="#MicrosoftYaHei-6392"/>
     <use xlink:href="#MicrosoftYaHei-5e8f" transform="translate(100 0)"/>
     <use xlink:href="#MicrosoftYaHei-20" transform="translate(200 0)"/>
     <use xlink:href="#MicrosoftYaHei-5b" transform="translate(229.589844 0)"/>
     <use xlink:href="#MicrosoftYaHei-31" transform="translate(262.988281 0)"/>
     <use xlink:href="#MicrosoftYaHei-2c" transform="translate(321.630859 0)"/>
     <use xlink:href="#MicrosoftYaHei-32" transform="translate(345.703125 0)"/>
     <use xlink:href="#MicrosoftYaHei-2c" transform="translate(404.345703 0)"/>
     <use xlink:href="#MicrosoftYaHei-34" transform="translate(428.417969 0)"/>
     <use xlink:href="#MicrosoftYaHei-2c" transform="translate(487.060547 0)"/>
     <use xlink:href="#MicrosoftYaHei-38" transform="translate(511.132812 0)"/>
     <use xlink:href="#MicrosoftYaHei-2c" transform="translate(569.775391 0)"/>
     <use xlink:href="#MicrosoftYaHei-39" transform="translate(593.847656 0)"/>
     <use xlink:href="#MicrosoftYaHei-5d" transform="translate(652.490234 0)"/>
     <use xlink:href="#MicrosoftYaHei-ff1b" transform="translate(685.888672 0)"/>
     <use xlink:href="#MicrosoftYaHei-56fa" transform="translate(785.888672 0)"/>
     <use xlink:href="#MicrosoftYaHei-5b9a" transform="translate(885.888672 0)"/>
     <use xlink:href="#MicrosoftYaHei-20" transform="translate(985.888672 0)"/>
     <use xlink:href="#MicrosoftYaHei-64" transform="translate(1015.478516 0)"/>
     <use xlink:href="#MicrosoftYaHei-3d" transform="translate(1079.443359 0)"/>
     <use xlink:href="#MicrosoftYaHei-33" transform="translate(1153.613281 0)"/>
     <use xlink:href="#MicrosoftYaHei-ff0c" transform="translate(1212.255859 0)"/>
     <use xlink:href="#MicrosoftYaHei-5148" transform="translate(1312.255859 0)"/>
     <use xlink:href="#MicrosoftYaHei-653e" transform="translate(1412.255859 0)"/>
     <use xlink:href="#MicrosoftYaHei-5728" transform="translate(1512.255859 0)"/>
     <use xlink:href="#MicrosoftYaHei-6700" transform="translate(1612.255859 0)"/>
     <use xlink:href="#MicrosoftYaHei-5de6" transform="translate(1712.255859 0)"/>
     <use xlink:href="#MicrosoftYaHei-4f4d" transform="translate(1812.255859 0)"/>
     <use xlink:href="#MicrosoftYaHei-7f6e" transform="translate(1912.255859 0)"/>
     <use xlink:href="#MicrosoftYaHei-20" transform="translate(2012.255859 0)"/>
     <use xlink:href="#MicrosoftYaHei-31" transform="translate(2041.845703 0)"/>
     <use xlink:href="#MicrosoftYaHei-ff1b" transform="translate(2100.488281 0)"/>
     <use xlink:href="#MicrosoftYaHei-653e" transform="translate(2200.488281 0)"/>
     <use xlink:href="#MicrosoftYaHei-591f" transform="translate(2300.488281 0)"/>
     <use xlink:href="#MicrosoftYaHei-20" transform="translate(2400.488281 0)"/>
     <use xlink:href="#MicrosoftYaHei-33" transform="translate(2430.078125 0)"/>
     <use xlink:href="#MicrosoftYaHei-20" transform="translate(2488.720703 0)"/>
     <use xlink:href="#MicrosoftYaHei-5934" transform="translate(2518.310547 0)"/>
     <use xlink:href="#MicrosoftYaHei-53ef" transform="translate(2618.310547 0)"/>
     <use xlink:href="#MicrosoftYaHei-63d0" transform="translate(2718.310547 0)"/>
     <use xlink:href="#MicrosoftYaHei-524d" transform="translate(2818.310547 0)"/>
     <use xlink:href="#MicrosoftYaHei-8fd4" transform="translate(2918.310547 0)"/>
     <use xlink:href="#MicrosoftYaHei-56de" transform="translate(3018.310547 0)"/>
     <use xlink:href="#MicrosoftYaHei-3002" transform="translate(3118.310547 0)"/>
    </g>
   </g>
   <g id="text_3">
    <!-- 检查位置 2 -->
    <g style="fill: #17324d" transform="translate(116.006281 128.854706) scale(0.1 -0.1)">
     <use xlink:href="#MicrosoftYaHei-68c0"/>
     <use xlink:href="#MicrosoftYaHei-67e5" transform="translate(100 0)"/>
     <use xlink:href="#MicrosoftYaHei-4f4d" transform="translate(200 0)"/>
     <use xlink:href="#MicrosoftYaHei-7f6e" transform="translate(300 0)"/>
     <use xlink:href="#MicrosoftYaHei-20" transform="translate(400 0)"/>
     <use xlink:href="#MicrosoftYaHei-32" transform="translate(429.589844 0)"/>
    </g>
   </g>
   <g id="text_4">
    <!-- 与上次选择距离 1 &lt;3，跳过 -->
    <g style="fill: #17324d" transform="translate(260.892 128.854706) scale(0.1 -0.1)">
     <defs>
      <path id="MicrosoftYaHei-4e0a" d="M 163 47 
L 2613 47 
L 2613 5209 
L 3181 5209 
L 3181 3328 
L 5750 3328 
L 5750 2828 
L 3181 2828 
L 3181 47 
L 6244 47 
L 6244 -453 
L 163 -453 
L 163 47 
z
" transform="scale(0.015625)"/>
      <path id="MicrosoftYaHei-6b21" d="M 4119 3472 
Q 4113 3159 4091 2856 
Q 4509 728 6319 -284 
Q 6063 -559 5913 -772 
Q 4344 331 3900 1944 
Q 3491 200 1650 -866 
Q 1525 -672 1306 -422 
Q 3225 591 3525 2428 
Q 3613 2878 3619 3472 
L 4119 3472 
z
M 4944 2647 
Q 5225 3166 5450 3766 
L 2991 3766 
Q 2719 3144 2388 2572 
Q 2163 2734 1938 2841 
Q 2669 4034 3000 5309 
L 3506 5166 
Q 3356 4675 3175 4209 
L 5988 4209 
L 5988 3766 
Q 5731 3072 5425 2466 
Q 5213 2572 4944 2647 
z
M 1388 2622 
Q 1675 2403 1875 2284 
Q 1075 859 575 -178 
L 69 153 
Q 713 1128 1388 2622 
z
M 644 4916 
Q 1150 4409 1781 3672 
L 1375 3297 
Q 769 4097 281 4591 
L 644 4916 
z
" transform="scale(0.015625)"/>
      <path id="MicrosoftYaHei-9009" d="M 1756 2753 
L 3825 2753 
L 3825 3797 
L 2772 3797 
Q 2584 3322 2381 2947 
Q 2219 3053 1944 3172 
Q 2431 4028 2669 5072 
L 3156 4966 
Q 3047 4575 2928 4228 
L 3825 4228 
L 3825 5316 
L 4313 5316 
L 4313 4228 
L 5944 4228 
L 5944 3797 
L 4313 3797 
L 4313 2753 
L 6244 2753 
L 6244 2322 
L 4769 2322 
L 4769 984 
Q 4769 653 5044 653 
L 5344 653 
Q 5631 653 5675 953 
Q 5713 1197 5744 1691 
Q 5938 1603 6219 1509 
Q 6169 1078 6113 784 
Q 6013 228 5400 228 
L 4938 228 
Q 4288 228 4288 934 
L 4288 2322 
L 3447 2322 
Q 3444 2038 3431 1816 
Q 3394 647 2119 84 
Q 1994 266 1806 503 
Q 2906 959 2950 1816 
Q 2963 2003 2972 2322 
L 1756 2322 
L 1756 2753 
z
M 2694 -197 
L 4000 -209 
L 6300 -166 
Q 6231 -372 6125 -659 
L 3947 -684 
L 2638 -666 
Q 1513 -628 1081 91 
Q 825 -147 331 -747 
L 75 -228 
Q 628 306 875 538 
L 875 2641 
L 131 2641 
L 131 3103 
L 1356 3103 
L 1356 431 
Q 1741 -184 2694 -197 
z
M 856 5203 
Q 1175 4816 1731 4022 
L 1288 3709 
Q 781 4503 456 4934 
L 856 5203 
z
" transform="scale(0.015625)"/>
      <path id="MicrosoftYaHei-62e9" d="M 2325 4578 
L 2325 5009 
L 5894 5009 
L 5894 4591 
Q 5491 3856 4675 3309 
Q 5366 3025 6319 2903 
Q 6163 2622 6056 2409 
Q 4963 2622 4200 3028 
Q 3409 2613 2325 2334 
Q 2250 2553 2113 2797 
Q 3047 3013 3734 3316 
Q 3013 3831 2688 4578 
L 2325 4578 
z
M 2006 728 
L 3950 728 
L 3950 1453 
L 2388 1453 
L 2388 1903 
L 3950 1903 
L 3950 2616 
L 4425 2616 
L 4425 1903 
L 6025 1903 
L 6025 1453 
L 4425 1453 
L 4425 728 
L 6319 728 
L 6319 278 
L 4425 278 
L 4425 -791 
L 3950 -791 
L 3950 278 
L 2006 278 
L 2006 728 
z
M 88 1953 
Q 544 2056 969 2159 
L 969 3647 
L 144 3647 
L 144 4084 
L 969 4084 
L 969 5303 
L 1438 5303 
L 1438 4084 
L 2238 4084 
L 2238 3647 
L 1438 3647 
L 1438 2278 
Q 1778 2366 2094 2453 
Q 2106 2178 2138 1991 
Q 1772 1894 1438 1800 
L 1438 -66 
Q 1438 -759 806 -759 
Q 656 -759 219 -747 
Q 194 -491 138 -241 
Q 494 -291 694 -291 
Q 969 -291 969 41 
L 969 1672 
Q 531 1550 150 1441 
L 88 1953 
z
M 5338 4578 
L 3159 4578 
Q 3497 3950 4197 3544 
Q 4981 3984 5338 4578 
z
" transform="scale(0.015625)"/>
      <path id="MicrosoftYaHei-79bb" d="M 2381 459 
Q 3106 484 3878 519 
Q 3716 700 3550 878 
L 3863 1122 
Q 4350 634 4781 147 
L 4450 -141 
Q 4331 0 4213 141 
Q 3416 103 2450 41 
Q 2175 22 1863 -28 
L 1688 416 
Q 1950 578 2131 822 
Q 2278 1025 2425 1278 
L 1056 1278 
L 1056 -822 
L 588 -822 
L 588 1691 
L 2650 1691 
Q 2784 1950 2916 2253 
L 825 2253 
L 825 4066 
L 1281 4066 
L 1281 2653 
L 5113 2653 
L 5113 4072 
L 5569 4072 
L 5569 2028 
L 5113 2028 
L 5113 2253 
L 3472 2253 
Q 3322 1963 3169 1691 
L 5800 1691 
L 5800 -122 
Q 5800 -791 5175 -791 
Q 4875 -791 4519 -778 
Q 4494 -559 4431 -297 
Q 4800 -334 5063 -334 
Q 5331 -334 5331 -53 
L 5331 1278 
L 2928 1278 
Q 2659 838 2381 459 
z
M 200 4734 
L 2919 4734 
Q 2788 4969 2669 5153 
L 3150 5372 
Q 3309 5141 3541 4734 
L 6200 4734 
L 6200 4309 
L 200 4309 
L 200 4734 
z
M 1613 3884 
L 1781 4216 
Q 2500 3984 3294 3700 
Q 3934 3956 4500 4247 
L 4688 3928 
Q 4269 3709 3816 3513 
Q 4281 3341 4775 3153 
L 4606 2797 
Q 3938 3072 3325 3303 
Q 2569 3000 1731 2747 
Q 1619 2947 1506 3103 
Q 2169 3288 2772 3503 
Q 2159 3719 1613 3884 
z
" transform="scale(0.015625)"/>
      <path id="MicrosoftYaHei-3c" d="M 3844 403 
L 913 1859 
L 913 2097 
L 3844 3713 
L 3844 3172 
L 1666 2000 
L 1666 1984 
L 3844 941 
L 3844 403 
z
" transform="scale(0.015625)"/>
     </defs>
     <use xlink:href="#MicrosoftYaHei-4e0e"/>
     <use xlink:href="#MicrosoftYaHei-4e0a" transform="translate(100 0)"/>
     <use xlink:href="#MicrosoftYaHei-6b21" transform="translate(200 0)"/>
     <use xlink:href="#MicrosoftYaHei-9009" transform="translate(300 0)"/>
     <use xlink:href="#MicrosoftYaHei-62e9" transform="translate(400 0)"/>
     <use xlink:href="#MicrosoftYaHei-8ddd" transform="translate(500 0)"/>
     <use xlink:href="#MicrosoftYaHei-79bb" transform="translate(600 0)"/>
     <use xlink:href="#MicrosoftYaHei-20" transform="translate(700 0)"/>
     <use xlink:href="#MicrosoftYaHei-31" transform="translate(729.589844 0)"/>
     <use xlink:href="#MicrosoftYaHei-20" transform="translate(788.232422 0)"/>
     <use xlink:href="#MicrosoftYaHei-3c" transform="translate(817.822266 0)"/>
     <use xlink:href="#MicrosoftYaHei-33" transform="translate(891.992188 0)"/>
     <use xlink:href="#MicrosoftYaHei-ff0c" transform="translate(950.634766 0)"/>
     <use xlink:href="#MicrosoftYaHei-8df3" transform="translate(1050.634766 0)"/>
     <use xlink:href="#MicrosoftYaHei-8fc7" transform="translate(1150.634766 0)"/>
    </g>
   </g>
   <g id="text_5">
    <!-- 已放 1 -->
    <g style="fill: #17324d" transform="translate(711.636867 128.717011) scale(0.095 -0.095)">
     <defs>
      <path id="MicrosoftYaHei-5df2" d="M 738 3684 
L 1275 3684 
L 1275 2828 
L 5013 2828 
L 5013 4434 
L 506 4434 
L 506 4897 
L 5538 4897 
L 5538 1984 
L 5013 1984 
L 5013 2366 
L 1275 2366 
L 1275 547 
Q 1275 -28 1819 -28 
L 4900 -28 
Q 5438 -28 5550 359 
Q 5663 741 5719 1378 
Q 5963 1272 6256 1191 
Q 6169 541 6069 153 
Q 5881 -553 5019 -553 
L 1694 -553 
Q 738 -553 738 434 
L 738 3684 
z
" transform="scale(0.015625)"/>
     </defs>
     <use xlink:href="#MicrosoftYaHei-5df2"/>
     <use xlink:href="#MicrosoftYaHei-653e" transform="translate(100 0)"/>
     <use xlink:href="#MicrosoftYaHei-20" transform="translate(200 0)"/>
     <use xlink:href="#MicrosoftYaHei-31" transform="translate(229.589844 0)"/>
    </g>
   </g>
   <g id="text_6">
    <!-- 检查位置 4 -->
    <g style="fill: #17324d" transform="translate(116.006281 186.224306) scale(0.1 -0.1)">
     <use xlink:href="#MicrosoftYaHei-68c0"/>
     <use xlink:href="#MicrosoftYaHei-67e5" transform="translate(100 0)"/>
     <use xlink:href="#MicrosoftYaHei-4f4d" transform="translate(200 0)"/>
     <use xlink:href="#MicrosoftYaHei-7f6e" transform="translate(300 0)"/>
     <use xlink:href="#MicrosoftYaHei-20" transform="translate(400 0)"/>
     <use xlink:href="#MicrosoftYaHei-34" transform="translate(429.589844 0)"/>
    </g>
   </g>
   <g id="text_7">
    <!-- 与上次选择距离 3 ≥3，放置 -->
    <g style="fill: #17324d" transform="translate(260.892 186.224306) scale(0.1 -0.1)">
     <defs>
      <path id="MicrosoftYaHei-2265" d="M 3844 2313 
L 909 859 
L 909 1406 
L 3091 2425 
L 3091 2444 
L 909 3613 
L 909 4150 
L 3844 2553 
L 3844 2313 
z
M 3969 0 
L 784 0 
L 784 475 
L 3969 475 
L 3969 0 
z
" transform="scale(0.015625)"/>
     </defs>
     <use xlink:href="#MicrosoftYaHei-4e0e"/>
     <use xlink:href="#MicrosoftYaHei-4e0a" transform="translate(100 0)"/>
     <use xlink:href="#MicrosoftYaHei-6b21" transform="translate(200 0)"/>
     <use xlink:href="#MicrosoftYaHei-9009" transform="translate(300 0)"/>
     <use xlink:href="#MicrosoftYaHei-62e9" transform="translate(400 0)"/>
     <use xlink:href="#MicrosoftYaHei-8ddd" transform="translate(500 0)"/>
     <use xlink:href="#MicrosoftYaHei-79bb" transform="translate(600 0)"/>
     <use xlink:href="#MicrosoftYaHei-20" transform="translate(700 0)"/>
     <use xlink:href="#MicrosoftYaHei-33" transform="translate(729.589844 0)"/>
     <use xlink:href="#MicrosoftYaHei-20" transform="translate(788.232422 0)"/>
     <use xlink:href="#MicrosoftYaHei-2265" transform="translate(817.822266 0)"/>
     <use xlink:href="#MicrosoftYaHei-33" transform="translate(891.992188 0)"/>
     <use xlink:href="#MicrosoftYaHei-ff0c" transform="translate(950.634766 0)"/>
     <use xlink:href="#MicrosoftYaHei-653e" transform="translate(1050.634766 0)"/>
     <use xlink:href="#MicrosoftYaHei-7f6e" transform="translate(1150.634766 0)"/>
    </g>
   </g>
   <g id="text_8">
    <!-- 已放 1,4 -->
    <g style="fill: #17324d" transform="translate(707.707727 186.086611) scale(0.095 -0.095)">
     <use xlink:href="#MicrosoftYaHei-5df2"/>
     <use xlink:href="#MicrosoftYaHei-653e" transform="translate(100 0)"/>
     <use xlink:href="#MicrosoftYaHei-20" transform="translate(200 0)"/>
     <use xlink:href="#MicrosoftYaHei-31" transform="translate(229.589844 0)"/>
     <use xlink:href="#MicrosoftYaHei-2c" transform="translate(288.232422 0)"/>
     <use xlink:href="#MicrosoftYaHei-34" transform="translate(312.304688 0)"/>
    </g>
   </g>
   <g id="text_9">
    <!-- 检查位置 8 -->
    <g style="fill: #17324d" transform="translate(116.006281 243.593906) scale(0.1 -0.1)">
     <use xlink:href="#MicrosoftYaHei-68c0"/>
     <use xlink:href="#MicrosoftYaHei-67e5" transform="translate(100 0)"/>
     <use xlink:href="#MicrosoftYaHei-4f4d" transform="translate(200 0)"/>
     <use xlink:href="#MicrosoftYaHei-7f6e" transform="translate(300 0)"/>
     <use xlink:href="#MicrosoftYaHei-20" transform="translate(400 0)"/>
     <use xlink:href="#MicrosoftYaHei-38" transform="translate(429.589844 0)"/>
    </g>
   </g>
   <g id="text_10">
    <!-- 与上次选择距离 4 ≥3，放置 -->
    <g style="fill: #17324d" transform="translate(260.892 243.593906) scale(0.1 -0.1)">
     <use xlink:href="#MicrosoftYaHei-4e0e"/>
     <use xlink:href="#MicrosoftYaHei-4e0a" transform="translate(100 0)"/>
     <use xlink:href="#MicrosoftYaHei-6b21" transform="translate(200 0)"/>
     <use xlink:href="#MicrosoftYaHei-9009" transform="translate(300 0)"/>
     <use xlink:href="#MicrosoftYaHei-62e9" transform="translate(400 0)"/>
     <use xlink:href="#MicrosoftYaHei-8ddd" transform="translate(500 0)"/>
     <use xlink:href="#MicrosoftYaHei-79bb" transform="translate(600 0)"/>
     <use xlink:href="#MicrosoftYaHei-20" transform="translate(700 0)"/>
     <use xlink:href="#MicrosoftYaHei-34" transform="translate(729.589844 0)"/>
     <use xlink:href="#MicrosoftYaHei-20" transform="translate(788.232422 0)"/>
     <use xlink:href="#MicrosoftYaHei-2265" transform="translate(817.822266 0)"/>
     <use xlink:href="#MicrosoftYaHei-33" transform="translate(891.992188 0)"/>
     <use xlink:href="#MicrosoftYaHei-ff0c" transform="translate(950.634766 0)"/>
     <use xlink:href="#MicrosoftYaHei-653e" transform="translate(1050.634766 0)"/>
     <use xlink:href="#MicrosoftYaHei-7f6e" transform="translate(1150.634766 0)"/>
    </g>
   </g>
   <g id="text_11">
    <!-- 已放 1,4,8 -->
    <g style="fill: #17324d" transform="translate(703.778586 243.456211) scale(0.095 -0.095)">
     <use xlink:href="#MicrosoftYaHei-5df2"/>
     <use xlink:href="#MicrosoftYaHei-653e" transform="translate(100 0)"/>
     <use xlink:href="#MicrosoftYaHei-20" transform="translate(200 0)"/>
     <use xlink:href="#MicrosoftYaHei-31" transform="translate(229.589844 0)"/>
     <use xlink:href="#MicrosoftYaHei-2c" transform="translate(288.232422 0)"/>
     <use xlink:href="#MicrosoftYaHei-34" transform="translate(312.304688 0)"/>
     <use xlink:href="#MicrosoftYaHei-2c" transform="translate(370.947266 0)"/>
     <use xlink:href="#MicrosoftYaHei-38" transform="translate(395.019531 0)"/>
    </g>
   </g>
   <g id="text_12">
    <!-- 选择最靠左的可行位置不会挤占更左空间，给后续奶牛留下至少同样多的选择。 -->
    <g style="fill: #059669" transform="translate(248.25 309.741202) scale(0.105 -0.105)">
     <defs>
      <path id="MicrosoftYaHei-9760" d="M 1050 3272 
L 5350 3272 
L 5350 1947 
L 4900 1947 
L 4900 2078 
L 1500 2078 
L 1500 1947 
L 1050 1947 
L 1050 3272 
z
M 163 4034 
L 2963 4034 
L 2963 4472 
L 1375 4472 
Q 1169 4269 950 4084 
Q 769 4253 575 4359 
Q 1169 4784 1563 5328 
L 2000 5159 
Q 1863 4991 1722 4834 
L 2963 4834 
L 2963 5322 
L 3438 5322 
L 3438 4834 
L 5706 4834 
L 5706 4472 
L 3438 4472 
L 3438 4034 
L 6238 4034 
L 6238 3659 
L 163 3659 
L 163 4034 
z
M 3650 -828 
L 3650 1959 
L 4113 1959 
L 4113 1659 
L 6088 1659 
L 6088 1284 
L 4113 1284 
L 4113 891 
L 5950 891 
L 5950 547 
L 4113 547 
L 4113 141 
L 6275 141 
L 6275 -272 
L 4113 -272 
L 4113 -828 
L 3650 -828 
z
M 2294 -828 
L 2294 -253 
L 150 -253 
L 150 122 
L 2294 122 
L 2294 528 
L 463 528 
L 463 891 
L 2294 891 
L 2294 1284 
L 331 1284 
L 331 1659 
L 2294 1659 
L 2294 1959 
L 2756 1959 
L 2756 -828 
L 2294 -828 
z
M 4900 2909 
L 1500 2909 
L 1500 2441 
L 4900 2441 
L 4900 2909 
z
" transform="scale(0.015625)"/>
      <path id="MicrosoftYaHei-884c" d="M 2363 2978 
L 6319 2978 
L 6319 2509 
L 5106 2509 
L 5106 66 
Q 5106 -709 4325 -709 
Q 3800 -709 3256 -703 
Q 3219 -453 3163 -141 
Q 3650 -191 4144 -191 
Q 4575 -191 4575 234 
L 4575 2509 
L 2363 2509 
L 2363 2978 
z
M 100 1578 
Q 1069 2372 1863 3809 
L 2300 3541 
Q 1978 2984 1619 2500 
L 1619 -809 
L 1100 -809 
L 1100 1856 
Q 725 1431 319 1072 
Q 219 1334 100 1578 
z
M 2725 4866 
L 5969 4866 
L 5969 4397 
L 2725 4397 
L 2725 4866 
z
M 131 3559 
Q 1125 4328 1731 5347 
L 2181 5072 
Q 1456 3959 381 3078 
Q 269 3316 131 3559 
z
" transform="scale(0.015625)"/>
      <path id="MicrosoftYaHei-4e0d" d="M 225 4772 
L 6181 4772 
L 6181 4284 
L 3881 4284 
Q 3581 3766 3081 3053 
L 3444 3053 
L 3444 -866 
L 2906 -866 
L 2906 2859 
Q 1838 1541 388 609 
Q 231 834 38 1059 
Q 2006 2291 3213 4284 
L 225 4284 
L 225 4772 
z
M 4069 2859 
Q 5238 2147 6325 1409 
L 5969 916 
Q 4681 1872 3763 2434 
L 4069 2859 
z
" transform="scale(0.015625)"/>
      <path id="MicrosoftYaHei-4f1a" d="M 4144 972 
Q 5050 166 5706 -541 
L 5300 -903 
Q 5100 -672 4838 -391 
Q 3281 -484 1656 -603 
Q 1394 -628 1125 -741 
L 844 -222 
Q 1150 -109 1363 78 
Q 1906 609 2413 1322 
L 331 1322 
L 331 1784 
L 6069 1784 
L 6069 1322 
L 3044 1322 
Q 2406 516 1800 -109 
Q 3181 -41 4438 22 
Q 4150 316 3806 659 
L 4144 972 
z
M 3200 4747 
Q 1950 3272 394 2372 
Q 244 2597 50 2828 
Q 1844 3747 2956 5253 
L 3625 5253 
L 3506 5097 
Q 4588 3653 6363 2978 
Q 6175 2728 6013 2447 
Q 4200 3328 3200 4747 
z
M 1463 3072 
L 4913 3072 
L 4913 2609 
L 1463 2609 
L 1463 3072 
z
" transform="scale(0.015625)"/>
      <path id="MicrosoftYaHei-6324" d="M 6325 2091 
Q 6113 1797 6025 1609 
Q 4878 1891 4122 2353 
Q 3372 1869 2231 1547 
Q 2131 1766 1969 1997 
Q 2991 2244 3706 2656 
Q 3106 3178 2678 4028 
L 2269 4028 
L 2269 4466 
L 4100 4466 
Q 3906 4759 3656 5078 
L 4044 5347 
Q 4425 4878 4594 4616 
L 4369 4466 
L 6200 4466 
L 6200 4028 
L 5622 4028 
Q 5206 3238 4550 2672 
Q 5266 2272 6325 2091 
z
M 119 2078 
Q 547 2197 944 2319 
L 944 3641 
L 144 3641 
L 144 4097 
L 944 4097 
L 944 5291 
L 1425 5291 
L 1425 4097 
L 2150 4097 
L 2150 3641 
L 1425 3641 
L 1425 2469 
Q 1791 2584 2125 2703 
Q 2138 2428 2163 2222 
Q 1794 2100 1425 1975 
L 1425 -53 
Q 1425 -678 850 -722 
Q 575 -741 219 -734 
Q 194 -472 138 -222 
Q 456 -247 644 -247 
Q 944 -247 944 53 
L 944 1809 
Q 578 1678 213 1547 
L 119 2078 
z
M 2913 1716 
L 3400 1716 
Q 3400 559 3144 116 
Q 2894 -397 2075 -872 
Q 1881 -603 1725 -453 
Q 2469 -78 2688 341 
Q 2913 734 2913 1716 
z
M 4775 1716 
L 5256 1716 
L 5256 -841 
L 4775 -841 
L 4775 1716 
z
M 5088 4028 
L 3181 4028 
Q 3588 3344 4134 2941 
Q 4684 3369 5088 4028 
z
" transform="scale(0.015625)"/>
      <path id="MicrosoftYaHei-5360" d="M 863 2434 
L 2775 2434 
L 2775 5259 
L 3288 5259 
L 3288 4209 
L 6150 4209 
L 6150 3747 
L 3288 3747 
L 3288 2434 
L 5525 2434 
L 5525 -841 
L 5025 -841 
L 5025 -453 
L 1363 -453 
L 1363 -853 
L 863 -853 
L 863 2434 
z
M 5025 1984 
L 1363 1984 
L 1363 -9 
L 5025 -9 
L 5025 1984 
z
" transform="scale(0.015625)"/>
      <path id="MicrosoftYaHei-66f4" d="M 106 -422 
Q 1250 -231 1950 166 
Q 1416 534 981 1134 
L 1309 1384 
L 825 1384 
L 825 4003 
L 3019 4003 
Q 3022 4272 3025 4578 
L 331 4578 
L 331 5016 
L 6069 5016 
L 6069 4578 
L 3506 4578 
Q 3506 4269 3503 4003 
L 5575 4003 
L 5575 1078 
L 5100 1078 
L 5100 1384 
L 3350 1384 
Q 3188 644 2834 244 
Q 4088 -216 6325 -209 
Q 6169 -484 6069 -709 
Q 3588 -641 2422 -100 
Q 1703 -575 394 -866 
Q 269 -647 106 -422 
z
M 1300 2903 
L 3006 2903 
Q 3013 3203 3016 3578 
L 1300 3578 
L 1300 2903 
z
M 3000 2484 
L 1300 2484 
L 1300 1809 
L 2947 1809 
Q 2988 2116 3000 2484 
z
M 3422 1809 
L 5100 1809 
L 5100 2484 
L 3481 2484 
Q 3466 2122 3422 1809 
z
M 5100 3578 
L 3500 3578 
Q 3497 3200 3491 2903 
L 5100 2903 
L 5100 3578 
z
M 2369 453 
Q 2706 744 2866 1384 
L 1334 1384 
Q 1766 784 2369 453 
z
" transform="scale(0.015625)"/>
      <path id="MicrosoftYaHei-7a7a" d="M 331 -34 
L 2931 -34 
L 2931 1603 
L 975 1603 
L 975 2078 
L 5425 2078 
L 5425 1603 
L 3463 1603 
L 3463 -34 
L 6069 -34 
L 6069 -509 
L 331 -509 
L 331 -34 
z
M 369 4528 
L 3084 4528 
Q 2941 4800 2725 5141 
L 3188 5366 
Q 3444 4997 3631 4641 
L 3403 4528 
L 6038 4528 
L 6038 3316 
L 5525 3316 
L 5525 4053 
L 881 4053 
L 881 3316 
L 369 3316 
L 369 4528 
z
M 2381 3741 
L 2750 3384 
Q 1538 2434 469 1834 
Q 275 2091 94 2241 
Q 1319 2866 2381 3741 
z
M 3988 3734 
Q 5300 2953 6269 2259 
L 5913 1828 
Q 4969 2566 3688 3372 
L 3988 3734 
z
" transform="scale(0.015625)"/>
      <path id="MicrosoftYaHei-7ed9" d="M 2538 1791 
L 5700 1791 
L 5700 -853 
L 5225 -853 
L 5225 -434 
L 3013 -434 
L 3013 -859 
L 2538 -859 
L 2538 1791 
z
M 856 1572 
Q 881 1572 2150 1672 
Q 2119 1478 2094 1266 
Q 1050 1172 313 1091 
L 213 1491 
Q 588 1847 1156 2803 
Q 763 2778 213 2734 
L 81 3128 
Q 619 3741 1256 5278 
L 1750 5103 
Q 1138 3922 625 3166 
Q 1000 3172 1369 3178 
Q 1594 3566 1838 4034 
L 2306 3834 
Q 1431 2384 856 1572 
z
M 5225 1359 
L 3013 1359 
L 3013 -3 
L 5225 -3 
L 5225 1359 
z
M 4475 5278 
L 4344 5066 
Q 5075 3872 6350 3091 
Q 6169 2903 5988 2684 
Q 4763 3553 4081 4641 
Q 3400 3491 2313 2603 
Q 2194 2741 1950 2953 
Q 3213 3916 3919 5278 
L 4475 5278 
z
M 2750 2959 
L 5488 2959 
L 5488 2528 
L 2750 2528 
L 2750 2959 
z
M 106 122 
Q 1269 341 2194 553 
Q 2188 322 2200 109 
Q 925 -159 269 -341 
L 106 122 
z
" transform="scale(0.015625)"/>
      <path id="MicrosoftYaHei-540e" d="M 1888 1984 
L 5688 1984 
L 5688 -828 
L 5188 -828 
L 5188 -403 
L 2388 -403 
L 2388 -828 
L 1888 -828 
L 1888 1984 
z
M 1313 2991 
Q 1313 1272 1138 672 
Q 963 -16 394 -847 
Q 250 -634 50 -409 
Q 494 222 650 859 
Q 806 1472 806 2659 
L 806 4766 
Q 3544 4853 5631 5141 
L 5931 4622 
Q 3344 4359 1313 4284 
L 1313 3459 
L 6263 3459 
L 6263 2991 
L 1313 2991 
z
M 5188 1528 
L 2388 1528 
L 2388 41 
L 5188 41 
L 5188 1528 
z
" transform="scale(0.015625)"/>
      <path id="MicrosoftYaHei-7eed" d="M 2263 3584 
L 3975 3584 
L 3975 4216 
L 2506 4216 
L 2506 4641 
L 3975 4641 
L 3975 5303 
L 4450 5303 
L 4450 4641 
L 5938 4641 
L 5938 4216 
L 4450 4216 
L 4450 3584 
L 6231 3584 
L 6231 3159 
Q 5944 2609 5644 2191 
Q 5400 2303 5194 2359 
Q 5494 2759 5719 3159 
L 2263 3159 
L 2263 3584 
z
M 2238 1141 
L 4119 1141 
Q 4263 1716 4250 2941 
L 4706 2941 
Q 4706 1753 4588 1141 
L 6238 1141 
L 6238 716 
L 4588 716 
Q 5444 147 6294 -478 
L 5944 -866 
Q 5206 -222 4306 391 
Q 3744 -491 2281 -903 
Q 2175 -691 2019 -466 
Q 3556 -47 3956 716 
L 2238 716 
L 2238 1141 
z
M 838 1672 
Q 1519 1734 2113 1822 
Q 2088 1553 2069 1397 
Q 1338 1309 294 1159 
L 194 1616 
Q 581 1947 1144 2903 
Q 569 2866 213 2834 
L 88 3247 
Q 563 3897 1131 5278 
L 1606 5103 
Q 1044 4003 606 3284 
Q 938 3284 1363 3297 
Q 1581 3697 1825 4184 
L 2263 3978 
Q 1469 2572 838 1672 
z
M 131 172 
Q 1113 334 2150 547 
Q 2125 209 2125 84 
Q 1213 -97 269 -303 
L 131 172 
z
M 2338 1953 
L 2588 2247 
Q 3200 1866 3531 1578 
L 3244 1234 
Q 2963 1503 2338 1953 
z
M 2775 2647 
L 3031 2947 
Q 3531 2666 3963 2316 
L 3681 1978 
Q 3281 2303 2775 2647 
z
" transform="scale(0.015625)"/>
      <path id="MicrosoftYaHei-7559" d="M 825 2284 
L 5594 2284 
L 5594 -791 
L 5125 -791 
L 5125 -528 
L 1294 -528 
L 1294 -803 
L 825 -803 
L 825 2284 
z
M 3131 4553 
L 3131 4978 
L 5931 4978 
Q 5900 4166 5863 3478 
Q 5794 2609 5050 2609 
Q 4700 2609 4281 2628 
Q 4244 2859 4188 3128 
Q 4638 3059 4956 3059 
Q 5356 3059 5400 3553 
Q 5431 4047 5444 4553 
L 4247 4553 
Q 4250 3066 3119 2316 
Q 2969 2503 2756 2672 
Q 3788 3278 3781 4553 
L 3131 4553 
z
M 1869 4103 
L 2244 4341 
Q 2656 3809 3075 3159 
L 2663 2891 
Q 2550 3078 2431 3269 
Q 1706 2975 1038 2678 
Q 844 2578 700 2428 
L 331 2853 
Q 519 3059 519 3378 
L 519 4903 
Q 1613 4984 2744 5272 
L 2919 4809 
Q 2069 4634 981 4491 
L 981 3191 
Q 1563 3403 2188 3644 
Q 2034 3872 1869 4103 
z
M 3444 -103 
L 5125 -103 
L 5125 678 
L 3444 678 
L 3444 -103 
z
M 1294 -103 
L 2975 -103 
L 2975 678 
L 1294 678 
L 1294 -103 
z
M 5125 1859 
L 3444 1859 
L 3444 1097 
L 5125 1097 
L 5125 1859 
z
M 1294 1097 
L 2975 1097 
L 2975 1859 
L 1294 1859 
L 1294 1097 
z
" transform="scale(0.015625)"/>
      <path id="MicrosoftYaHei-4e0b" d="M 163 4803 
L 6238 4803 
L 6238 4291 
L 3200 4291 
L 3200 2928 
L 3488 3328 
Q 4919 2484 5888 1809 
L 5519 1303 
Q 4550 2047 3200 2872 
L 3200 -797 
L 2631 -797 
L 2631 4291 
L 163 4291 
L 163 4803 
z
" transform="scale(0.015625)"/>
      <path id="MicrosoftYaHei-81f3" d="M 4263 4147 
Q 5225 3334 6013 2559 
L 5606 2197 
Q 5403 2413 5175 2644 
Q 2988 2588 1306 2459 
Q 1125 2441 806 2359 
L 550 2897 
Q 894 3009 1131 3197 
Q 1763 3719 2428 4522 
L 288 4522 
L 288 4972 
L 6119 4972 
L 6119 4522 
L 3116 4522 
Q 2394 3722 1556 2959 
Q 3019 3022 4738 3072 
Q 4363 3438 3925 3834 
L 4263 4147 
z
M 138 -3 
L 2944 -3 
L 2944 1066 
L 550 1066 
L 550 1516 
L 2944 1516 
L 2944 2366 
L 3469 2366 
L 3469 1516 
L 5825 1516 
L 5825 1066 
L 3469 1066 
L 3469 -3 
L 6256 -3 
L 6256 -453 
L 138 -453 
L 138 -3 
z
" transform="scale(0.015625)"/>
      <path id="MicrosoftYaHei-5c11" d="M 1631 4428 
L 2144 4228 
Q 1463 2722 669 1484 
Q 475 1609 200 1766 
Q 994 2916 1631 4428 
z
M 4138 4266 
L 4531 4566 
Q 5531 3491 6331 2528 
L 5881 2166 
Q 5006 3278 4138 4266 
z
M 2925 5284 
L 3463 5284 
L 3463 1359 
L 2925 1359 
L 2925 5284 
z
M 4988 2416 
L 5444 2116 
Q 3631 -216 413 -859 
Q 275 -609 100 -359 
Q 3350 272 4988 2416 
z
" transform="scale(0.015625)"/>
      <path id="MicrosoftYaHei-540c" d="M 1013 -772 
L 531 -772 
L 531 4959 
L 5856 4959 
L 5856 -47 
Q 5856 -741 5125 -741 
Q 4669 -741 4088 -716 
Q 4056 -497 4000 -216 
Q 4619 -272 5025 -272 
Q 5375 -272 5375 78 
L 5375 4497 
L 1013 4497 
L 1013 -772 
z
M 1875 2566 
L 4506 2566 
L 4506 597 
L 2338 597 
L 2338 272 
L 1875 272 
L 1875 2566 
z
M 4044 2116 
L 2338 2116 
L 2338 1047 
L 4044 1047 
L 4044 2116 
z
M 1363 3734 
L 5025 3734 
L 5025 3284 
L 1363 3284 
L 1363 3734 
z
" transform="scale(0.015625)"/>
      <path id="MicrosoftYaHei-6837" d="M 2150 1197 
L 3981 1197 
L 3981 2222 
L 2619 2222 
L 2619 2659 
L 3981 2659 
L 3981 3641 
L 2475 3641 
L 2475 4078 
L 4406 4078 
Q 4925 4828 5188 5316 
L 5650 5022 
Q 5325 4578 4931 4078 
L 6075 4078 
L 6075 3641 
L 4469 3641 
L 4469 2659 
L 5900 2659 
L 5900 2222 
L 4469 2222 
L 4469 1197 
L 6275 1197 
L 6275 759 
L 4469 759 
L 4469 -872 
L 3981 -872 
L 3981 759 
L 2150 759 
L 2150 1197 
z
M 94 1384 
Q 700 2316 1038 3603 
L 163 3603 
L 163 4022 
L 1088 4022 
L 1088 5259 
L 1544 5259 
L 1544 4022 
L 2275 4022 
L 2275 3603 
L 1544 3603 
L 1544 2622 
L 1794 2847 
Q 2200 2447 2594 2022 
L 2238 1697 
Q 1756 2247 1544 2472 
L 1544 -872 
L 1088 -872 
L 1088 2559 
Q 750 1547 319 841 
Q 225 1109 94 1384 
z
M 2831 5047 
L 3200 5322 
Q 3694 4766 3906 4466 
L 3481 4172 
Q 3113 4703 2831 5047 
z
" transform="scale(0.015625)"/>
      <path id="MicrosoftYaHei-591a" d="M 3719 2803 
L 4338 2803 
Q 4050 2522 3744 2272 
L 6019 2272 
L 6019 1816 
Q 4006 -366 650 -891 
Q 538 -666 369 -422 
Q 1894 -203 3100 322 
Q 2919 559 2581 903 
L 2956 1178 
Q 3275 847 3538 522 
Q 4588 1059 5344 1834 
L 3200 1834 
Q 2100 1009 881 484 
Q 769 666 581 909 
Q 2319 1609 3719 2803 
z
M 2775 5316 
L 3406 5316 
Q 3088 4972 2756 4672 
L 5700 4672 
L 5700 4247 
Q 3550 2516 481 1666 
Q 350 1916 194 2103 
Q 1481 2441 2506 2872 
Q 2281 3122 1913 3484 
L 2263 3759 
Q 2631 3403 2944 3066 
Q 4088 3584 4950 4234 
L 2256 4234 
Q 1606 3678 713 3172 
Q 575 3359 369 3566 
Q 1800 4328 2775 5316 
z
" transform="scale(0.015625)"/>
     </defs>
     <use xlink:href="#MicrosoftYaHei-9009"/>
     <use xlink:href="#MicrosoftYaHei-62e9" transform="translate(100 0)"/>
     <use xlink:href="#MicrosoftYaHei-6700" transform="translate(200 0)"/>
     <use xlink:href="#MicrosoftYaHei-9760" transform="translate(300 0)"/>
     <use xlink:href="#MicrosoftYaHei-5de6" transform="translate(400 0)"/>
     <use xlink:href="#MicrosoftYaHei-7684" transform="translate(500 0)"/>
     <use xlink:href="#MicrosoftYaHei-53ef" transform="translate(600 0)"/>
     <use xlink:href="#MicrosoftYaHei-884c" transform="translate(700 0)"/>
     <use xlink:href="#MicrosoftYaHei-4f4d" transform="translate(800 0)"/>
     <use xlink:href="#MicrosoftYaHei-7f6e" transform="translate(900 0)"/>
     <use xlink:href="#MicrosoftYaHei-4e0d" transform="translate(1000 0)"/>
     <use xlink:href="#MicrosoftYaHei-4f1a" transform="translate(1100 0)"/>
     <use xlink:href="#MicrosoftYaHei-6324" transform="translate(1200 0)"/>
     <use xlink:href="#MicrosoftYaHei-5360" transform="translate(1300 0)"/>
     <use xlink:href="#MicrosoftYaHei-66f4" transform="translate(1400 0)"/>
     <use xlink:href="#MicrosoftYaHei-5de6" transform="translate(1500 0)"/>
     <use xlink:href="#MicrosoftYaHei-7a7a" transform="translate(1600 0)"/>
     <use xlink:href="#MicrosoftYaHei-95f4" transform="translate(1700 0)"/>
     <use xlink:href="#MicrosoftYaHei-ff0c" transform="translate(1800 0)"/>
     <use xlink:href="#MicrosoftYaHei-7ed9" transform="translate(1900 0)"/>
     <use xlink:href="#MicrosoftYaHei-540e" transform="translate(2000 0)"/>
     <use xlink:href="#MicrosoftYaHei-7eed" transform="translate(2100 0)"/>
     <use xlink:href="#MicrosoftYaHei-5976" transform="translate(2200 0)"/>
     <use xlink:href="#MicrosoftYaHei-725b" transform="translate(2300 0)"/>
     <use xlink:href="#MicrosoftYaHei-7559" transform="translate(2400 0)"/>
     <use xlink:href="#MicrosoftYaHei-4e0b" transform="translate(2500 0)"/>
     <use xlink:href="#MicrosoftYaHei-81f3" transform="translate(2600 0)"/>
     <use xlink:href="#MicrosoftYaHei-5c11" transform="translate(2700 0)"/>
     <use xlink:href="#MicrosoftYaHei-540c" transform="translate(2800 0)"/>
     <use xlink:href="#MicrosoftYaHei-6837" transform="translate(2900 0)"/>
     <use xlink:href="#MicrosoftYaHei-591a" transform="translate(3000 0)"/>
     <use xlink:href="#MicrosoftYaHei-7684" transform="translate(3100 0)"/>
     <use xlink:href="#MicrosoftYaHei-9009" transform="translate(3200 0)"/>
     <use xlink:href="#MicrosoftYaHei-62e9" transform="translate(3300 0)"/>
     <use xlink:href="#MicrosoftYaHei-3002" transform="translate(3400 0)"/>
    </g>
   </g>
  </g>
 </g>
 <defs>
  <clipPath id="pa76ec85470">
   <rect x="12.96" y="3.4128" width="838.08" height="327.6288"/>
  </clipPath>
 </defs>
</svg>
