<?xml version="1.0" encoding="utf-8" standalone="no"?>
<!DOCTYPE svg PUBLIC "-//W3C//DTD SVG 1.1//EN"
  "http://www.w3.org/Graphics/SVG/1.1/DTD/svg11.dtd">
<svg xmlns:xlink="http://www.w3.org/1999/xlink" width="864pt" height="374.4pt" viewBox="0 0 864 374.4" xmlns="http://www.w3.org/2000/svg" version="1.1">
 <metadata>
  <rdf:RDF xmlns:dc="http://purl.org/dc/elements/1.1/" xmlns:cc="http://creativecommons.org/ns#" xmlns:rdf="http://www.w3.org/1999/02/22-rdf-syntax-ns#">
   <cc:Work>
    <dc:type rdf:resource="http://purl.org/dc/dcmitype/StillImage"/>
    <dc:date>2026-10-07T16:55:50.585172</dc:date>
    <dc:format>image/svg+xml</dc:format>
    <dc:creator>
     <cc:Agent>
      <dc:title>Matplotlib v3.10.9, https://matplotlib.org/</dc:title>
     </cc:Agent>
    </dc:creator>
   </cc:Work>
  </rdf:RDF>
 </metadata>
 <defs>
  <style type="text/css">*{stroke-linejoin: round; stroke-linecap: butt}</style>
 </defs>
 <g id="figure_1">
  <g id="patch_1">
   <path d="M 0 374.4 
L 864 374.4 
L 864 0 
L 0 0 
z
" style="fill: #f8fafc"/>
  </g>
  <g id="axes_1">
   <g id="patch_2">
    <path d="M 309.78 150.9696 
L 376.128 150.9696 
Q 381.7152 150.9696 381.7152 145.44 
L 381.7152 112.9536 
Q 381.7152 107.424 376.128 107.424 
L 309.78 107.424 
Q 304.1928 107.424 304.1928 112.9536 
L 304.1928 145.44 
Q 304.1928 150.9696 309.78 150.9696 
z
" clip-path="url(#pddda2ebb66)" style="fill: #ecfdf5; stroke: #059669; stroke-width: 1.25; stroke-linejoin: miter"/>
   </g>
   <g id="patch_3">
    <path d="M 390.096 150.9696 
L 456.444 150.9696 
Q 462.0312 150.9696 462.0312 145.44 
L 462.0312 112.9536 
Q 462.0312 107.424 456.444 107.424 
L 390.096 107.424 
Q 384.5088 107.424 384.5088 112.9536 
L 384.5088 145.44 
Q 384.5088 150.9696 390.096 150.9696 
z
" clip-path="url(#pddda2ebb66)" style="fill: #ecfdf5; stroke: #059669; stroke-width: 1.25; stroke-linejoin: miter"/>
   </g>
   <g id="patch_4">
    <path d="M 470.412 150.9696 
L 536.76 150.9696 
Q 542.3472 150.9696 542.3472 145.44 
L 542.3472 112.9536 
Q 542.3472 107.424 536.76 107.424 
L 470.412 107.424 
Q 464.8248 107.424 464.8248 112.9536 
L 464.8248 145.44 
Q 464.8248 150.9696 470.412 150.9696 
z
" clip-path="url(#pddda2ebb66)" style="fill: #ffffff; stroke: #94a3b8; stroke-width: 1.25; stroke-linejoin: miter"/>
   </g>
   <g id="patch_5">
    <path d="M 61.848 289.2096 
L 404.064 289.2096 
Q 409.6512 289.2096 409.6512 283.68 
L 409.6512 197.28 
Q 409.6512 191.7504 404.064 191.7504 
L 61.848 191.7504 
Q 56.2608 191.7504 56.2608 197.28 
L 56.2608 283.68 
Q 56.2608 289.2096 61.848 289.2096 
z
" clip-path="url(#pddda2ebb66)" style="fill: #ffffff; stroke: #059669; stroke-width: 1.25; stroke-linejoin: miter"/>
   </g>
   <g id="patch_6">
    <path d="M 449.46 289.2096 
L 798.66 289.2096 
Q 804.2472 289.2096 804.2472 283.68 
L 804.2472 197.28 
Q 804.2472 191.7504 798.66 191.7504 
L 449.46 191.7504 
Q 443.8728 191.7504 443.8728 197.28 
L 443.8728 283.68 
Q 443.8728 289.2096 449.46 289.2096 
z
" clip-path="url(#pddda2ebb66)" style="fill: #ffffff; stroke: #d97706; stroke-width: 1.25; stroke-linejoin: miter"/>
   </g>
   <g id="text_1">
    <!-- 量词不同，判断方式不同 -->
    <g style="fill: #17324d" transform="translate(37.404 31.392) scale(0.18 -0.18)">
     <defs>
      <path id="MicrosoftYaHei-91cf" d="M 113 -278 
L 2981 -278 
L 2981 78 
L 475 78 
L 475 403 
L 2981 403 
L 2981 759 
L 1494 759 
L 1494 597 
L 1069 597 
L 1069 2516 
L 5350 2516 
L 5350 597 
L 4925 597 
L 4925 759 
L 3419 759 
L 3419 403 
L 5931 403 
L 5931 78 
L 3419 78 
L 3419 -278 
L 6288 -278 
L 6288 -616 
L 113 -616 
L 113 -278 
z
M 1119 5072 
L 5306 5072 
L 5306 3284 
L 4881 3284 
L 4881 3453 
L 1544 3453 
L 1544 3284 
L 1119 3284 
L 1119 5072 
z
M 163 3153 
L 6263 3153 
L 6263 2816 
L 163 2816 
L 163 3153 
z
M 1544 3778 
L 4881 3778 
L 4881 4116 
L 1544 4116 
L 1544 3778 
z
M 4881 4747 
L 1544 4747 
L 1544 4416 
L 4881 4416 
L 4881 4747 
z
M 3419 1084 
L 4925 1084 
L 4925 1491 
L 3419 1491 
L 3419 1084 
z
M 1494 1084 
L 2981 1084 
L 2981 1491 
L 1494 1491 
L 1494 1084 
z
M 4925 2191 
L 3419 2191 
L 3419 1791 
L 4925 1791 
L 4925 2191 
z
M 1494 1791 
L 2981 1791 
L 2981 2191 
L 1494 2191 
L 1494 1791 
z
" transform="scale(0.015625)"/>
      <path id="MicrosoftYaHei-8bcd" d="M 2319 2509 
L 4650 2509 
L 4650 434 
L 2769 434 
L 2769 47 
L 2319 47 
L 2319 2509 
z
M 1919 3716 
L 5131 3716 
L 5131 3253 
L 1919 3253 
L 1919 3716 
z
M 2125 4509 
L 2125 4972 
L 5956 4972 
L 5956 -34 
Q 5956 -759 5306 -766 
Q 4750 -766 4188 -759 
Q 4169 -553 4088 -259 
Q 4694 -303 5156 -303 
Q 5469 -303 5469 53 
L 5469 4509 
L 2125 4509 
z
M 2006 622 
Q 2025 297 2050 84 
Q 1256 -428 888 -747 
L 594 -328 
Q 806 -159 806 234 
L 806 2691 
L 100 2691 
L 100 3141 
L 1288 3141 
L 1288 122 
Q 1725 416 2006 622 
z
M 738 5197 
Q 1419 4497 1725 4159 
L 1288 3791 
Q 894 4309 356 4866 
L 738 5197 
z
M 4200 872 
L 4200 2072 
L 2769 2072 
L 2769 872 
L 4200 872 
z
" transform="scale(0.015625)"/>
      <path id="MicrosoftYaHei-4e0d" d="M 225 4772 
L 6181 4772 
L 6181 4284 
L 3881 4284 
Q 3581 3766 3081 3053 
L 3444 3053 
L 3444 -866 
L 2906 -866 
L 2906 2859 
Q 1838 1541 388 609 
Q 231 834 38 1059 
Q 2006 2291 3213 4284 
L 225 4284 
L 225 4772 
z
M 4069 2859 
Q 5238 2147 6325 1409 
L 5969 916 
Q 4681 1872 3763 2434 
L 4069 2859 
z
" transform="scale(0.015625)"/>
      <path id="MicrosoftYaHei-540c" d="M 1013 -772 
L 531 -772 
L 531 4959 
L 5856 4959 
L 5856 -47 
Q 5856 -741 5125 -741 
Q 4669 -741 4088 -716 
Q 4056 -497 4000 -216 
Q 4619 -272 5025 -272 
Q 5375 -272 5375 78 
L 5375 4497 
L 1013 4497 
L 1013 -772 
z
M 1875 2566 
L 4506 2566 
L 4506 597 
L 2338 597 
L 2338 272 
L 1875 272 
L 1875 2566 
z
M 4044 2116 
L 2338 2116 
L 2338 1047 
L 4044 1047 
L 4044 2116 
z
M 1363 3734 
L 5025 3734 
L 5025 3284 
L 1363 3284 
L 1363 3734 
z
" transform="scale(0.015625)"/>
      <path id="MicrosoftYaHei-ff0c" d="M 1931 775 
L 1403 -891 
L 966 -891 
L 1350 775 
L 1931 775 
z
" transform="scale(0.015625)"/>
      <path id="MicrosoftYaHei-5224" d="M 200 1803 
L 1622 1803 
Q 1700 2222 1709 2697 
L 331 2697 
L 331 3134 
L 1725 3134 
Q 1756 3959 1756 5259 
L 2244 5259 
Q 2238 4016 2219 3134 
L 3594 3134 
L 3594 2697 
L 2209 2697 
Q 2203 2225 2138 1803 
L 3700 1803 
L 3700 1366 
L 2050 1366 
Q 1716 -28 694 -872 
Q 513 -653 313 -472 
Q 1194 234 1519 1366 
L 200 1366 
L 200 1803 
z
M 5475 5284 
L 5963 5284 
L 5963 53 
Q 5963 -753 5169 -753 
Q 4856 -753 4275 -741 
Q 4244 -466 4188 -209 
Q 4669 -259 5019 -259 
Q 5475 -259 5475 228 
L 5475 5284 
z
M 4144 4584 
L 4625 4584 
L 4625 759 
L 4144 759 
L 4144 4584 
z
M 2525 3728 
Q 3000 4309 3313 4866 
L 3756 4591 
Q 3306 3928 2906 3434 
L 2525 3728 
z
M 269 4603 
L 656 4853 
Q 1075 4316 1444 3759 
L 1013 3466 
Q 606 4153 269 4603 
z
" transform="scale(0.015625)"/>
      <path id="MicrosoftYaHei-65ad" d="M 3713 4822 
Q 5025 4872 6138 5091 
L 6306 4628 
Q 5206 4497 4169 4409 
L 4169 3003 
L 6319 3003 
L 6319 2572 
L 5531 2572 
L 5531 -791 
L 5075 -791 
L 5075 2572 
L 4169 2572 
L 4169 1978 
Q 4169 153 3306 -897 
Q 3156 -716 2950 -509 
Q 3713 372 3713 1997 
L 3713 4822 
z
M 831 1034 
Q 1472 1750 1841 2678 
L 950 2678 
L 950 3097 
L 2019 3097 
L 2019 5216 
L 2456 5216 
L 2456 3097 
L 3406 3097 
L 3406 2678 
L 2456 2678 
L 2456 2141 
L 2644 2297 
Q 3019 1916 3450 1416 
L 3106 1116 
Q 2806 1506 2456 1903 
L 2456 203 
L 2019 203 
L 2019 2191 
Q 1675 1319 1025 547 
Q 944 803 831 1034 
z
M 375 5072 
L 819 5072 
L 819 66 
L 2994 66 
L 2994 -353 
L 375 -353 
L 375 5072 
z
M 2550 3647 
Q 2894 4209 3144 4816 
L 3569 4616 
Q 3300 4097 2925 3441 
L 2550 3647 
z
M 931 4634 
L 1294 4803 
Q 1569 4278 1850 3666 
L 1444 3466 
Q 1144 4197 931 4634 
z
" transform="scale(0.015625)"/>
      <path id="MicrosoftYaHei-65b9" d="M 194 4241 
L 3194 4241 
Q 2878 4841 2700 5116 
L 3188 5347 
Q 3363 5078 3713 4472 
L 3256 4241 
L 6219 4241 
L 6219 3766 
L 2428 3766 
Q 2406 3197 2381 2797 
L 5400 2797 
Q 5325 1441 5238 441 
Q 5169 -691 4138 -691 
Q 3663 -691 2869 -641 
Q 2838 -403 2775 -66 
Q 3569 -172 4063 -172 
Q 4638 -172 4706 509 
Q 4781 1253 4838 2328 
L 2347 2328 
Q 2172 266 438 -872 
Q 269 -672 56 -447 
Q 1706 641 1825 2466 
Q 1869 2959 1897 3766 
L 194 3766 
L 194 4241 
z
" transform="scale(0.015625)"/>
      <path id="MicrosoftYaHei-5f0f" d="M 94 4122 
L 3569 4122 
Q 3544 4700 3531 5347 
L 4063 5347 
Q 4059 4728 4081 4122 
L 6231 4122 
L 6231 3653 
L 4103 3653 
Q 4225 503 5156 -172 
Q 5494 -447 5631 -22 
Q 5725 303 5800 941 
Q 6094 834 6306 778 
Q 6188 47 6050 -403 
Q 5900 -834 5475 -834 
Q 5044 -834 4619 -397 
Q 3725 553 3597 3653 
L 94 3653 
L 94 4122 
z
M 119 159 
Q 825 244 1569 344 
L 1569 2097 
L 350 2097 
L 350 2566 
L 3288 2566 
L 3288 2097 
L 2081 2097 
L 2081 416 
Q 2809 519 3575 634 
Q 3563 391 3563 128 
Q 1681 -141 244 -366 
L 119 159 
z
M 4544 4978 
L 4844 5297 
Q 5294 4972 5756 4559 
L 5400 4191 
Q 5000 4597 4544 4978 
z
" transform="scale(0.015625)"/>
     </defs>
     <use xlink:href="#MicrosoftYaHei-91cf"/>
     <use xlink:href="#MicrosoftYaHei-8bcd" transform="translate(100 0)"/>
     <use xlink:href="#MicrosoftYaHei-4e0d" transform="translate(200 0)"/>
     <use xlink:href="#MicrosoftYaHei-540c" transform="translate(300 0)"/>
     <use xlink:href="#MicrosoftYaHei-ff0c" transform="translate(400 0)"/>
     <use xlink:href="#MicrosoftYaHei-5224" transform="translate(500 0)"/>
     <use xlink:href="#MicrosoftYaHei-65ad" transform="translate(600 0)"/>
     <use xlink:href="#MicrosoftYaHei-65b9" transform="translate(700 0)"/>
     <use xlink:href="#MicrosoftYaHei-5f0f" transform="translate(800 0)"/>
     <use xlink:href="#MicrosoftYaHei-4e0d" transform="translate(900 0)"/>
     <use xlink:href="#MicrosoftYaHei-540c" transform="translate(1000 0)"/>
    </g>
   </g>
   <g id="text_2">
    <!-- 同一组数据 [2, 3, −1]：“存在”与“所有”不能混用。 -->
    <g style="fill: #526579" transform="translate(37.404 60.4224) scale(0.105 -0.105)">
     <defs>
      <path id="MicrosoftYaHei-4e00" d="M 100 2703 
L 6313 2703 
L 6313 2153 
L 100 2153 
L 100 2703 
z
" transform="scale(0.015625)"/>
      <path id="MicrosoftYaHei-7ec4" d="M 1994 -516 
L 1994 -66 
L 2738 -66 
L 2738 4941 
L 5763 4941 
L 5763 -66 
L 6313 -66 
L 6313 -516 
L 1994 -516 
z
M 969 1703 
Q 1606 1784 2300 1872 
Q 2275 1603 2256 1447 
Q 1331 1328 400 1191 
L 300 1647 
Q 697 1956 1284 2941 
Q 597 2897 256 2866 
L 131 3278 
Q 619 3866 1200 5291 
L 1706 5116 
Q 1163 4091 681 3316 
Q 1197 3319 1506 3328 
Q 1756 3775 2038 4334 
L 2519 4122 
Q 1806 2859 969 1703 
z
M 5288 4491 
L 3213 4491 
L 3213 3259 
L 5288 3259 
L 5288 4491 
z
M 3213 -66 
L 5288 -66 
L 5288 1166 
L 3213 1166 
L 3213 -66 
z
M 3213 1597 
L 5288 1597 
L 5288 2828 
L 3213 2828 
L 3213 1597 
z
M 181 291 
Q 1088 459 2356 741 
Q 2331 453 2331 266 
Q 1031 -3 319 -184 
L 181 291 
z
" transform="scale(0.015625)"/>
      <path id="MicrosoftYaHei-6570" d="M 4175 5303 
L 4675 5228 
Q 4544 4622 4369 4097 
L 6281 4097 
L 6281 3672 
L 5888 3672 
Q 5731 1834 5088 753 
Q 5594 66 6375 -372 
Q 6175 -647 6038 -866 
Q 5275 -372 4769 309 
Q 4194 -403 3400 -928 
Q 3263 -747 3044 -534 
Q 3919 41 4463 772 
Q 3956 1647 3794 2791 
Q 3663 2559 3519 2359 
Q 3394 2541 3206 2759 
Q 3931 3803 4175 5303 
z
M 150 1697 
L 1100 1697 
Q 1238 1934 1369 2184 
L 1819 2041 
Q 1719 1866 1619 1697 
L 3150 1697 
L 3150 1291 
Q 2913 678 2431 216 
Q 2775 53 3131 -109 
L 2856 -541 
Q 2469 -322 2050 -103 
Q 1344 -609 269 -903 
Q 169 -703 56 -466 
Q 969 -259 1600 128 
Q 1063 403 475 691 
Q 675 978 863 1284 
L 150 1284 
L 150 1697 
z
M 219 3847 
L 1656 3847 
L 1656 5247 
L 2119 5247 
L 2119 3847 
L 3319 3847 
L 3319 3434 
L 2119 3434 
L 2119 3053 
L 2306 3266 
Q 2888 2841 3281 2516 
L 2981 2166 
Q 2638 2491 2119 2897 
L 2119 2184 
L 1656 2184 
L 1656 3059 
Q 1088 2466 331 2016 
Q 213 2197 63 2397 
Q 850 2822 1506 3434 
L 219 3434 
L 219 3847 
z
M 5388 3672 
L 4219 3672 
Q 4188 3591 4150 3516 
Q 4263 2191 4775 1247 
Q 5275 2159 5388 3672 
z
M 1088 834 
Q 1531 634 2000 416 
Q 2431 784 2675 1284 
L 1375 1284 
Q 1231 1053 1088 834 
z
M 3038 5091 
L 3425 4834 
Q 3081 4384 2738 4003 
Q 2594 4128 2400 4266 
Q 2725 4647 3038 5091 
z
M 381 4816 
L 738 5059 
Q 1019 4716 1319 4322 
L 931 4047 
Q 656 4453 381 4816 
z
" transform="scale(0.015625)"/>
      <path id="MicrosoftYaHei-636e" d="M 2900 1334 
L 4188 1334 
L 4188 2128 
L 2731 2128 
Q 2663 206 1844 -841 
Q 1694 -647 1506 -447 
Q 2288 516 2288 2509 
L 2288 4947 
L 5975 4947 
L 5975 3134 
L 5525 3134 
L 5525 3328 
L 2738 3328 
L 2738 2553 
L 4188 2553 
L 4188 3209 
L 4638 3209 
L 4638 2553 
L 6288 2553 
L 6288 2128 
L 4638 2128 
L 4638 1334 
L 5938 1334 
L 5938 -778 
L 5488 -778 
L 5488 -416 
L 3350 -416 
L 3350 -778 
L 2900 -778 
L 2900 1334 
z
M 100 1966 
Q 544 2088 963 2213 
L 963 3641 
L 175 3641 
L 175 4091 
L 963 4091 
L 963 5284 
L 1425 5284 
L 1425 4091 
L 2106 4091 
L 2106 3641 
L 1425 3641 
L 1425 2356 
Q 1722 2450 2006 2547 
Q 2013 2266 2044 2059 
Q 1722 1956 1425 1856 
L 1425 -34 
Q 1425 -741 806 -753 
Q 613 -759 231 -747 
Q 206 -497 156 -228 
Q 500 -266 681 -266 
Q 963 -266 963 53 
L 963 1703 
Q 534 1559 163 1428 
L 100 1966 
z
M 5525 4534 
L 2738 4534 
L 2738 3741 
L 5525 3741 
L 5525 4534 
z
M 5488 922 
L 3350 922 
L 3350 -9 
L 5488 -9 
L 5488 922 
z
" transform="scale(0.015625)"/>
      <path id="MicrosoftYaHei-20" transform="scale(0.015625)"/>
      <path id="MicrosoftYaHei-5b" d="M 1959 -1100 
L 681 -1100 
L 681 4841 
L 1959 4841 
L 1959 4406 
L 1219 4406 
L 1219 -669 
L 1959 -669 
L 1959 -1100 
z
" transform="scale(0.015625)"/>
      <path id="MicrosoftYaHei-32" d="M 2666 3572 
Q 2666 3963 2419 4186 
Q 2172 4409 1747 4409 
Q 1447 4409 1140 4256 
Q 834 4103 569 3819 
L 569 4413 
Q 806 4659 1107 4790 
Q 1409 4922 1816 4922 
Q 2472 4922 2872 4570 
Q 3272 4219 3272 3619 
Q 3272 3084 3026 2693 
Q 2781 2303 2188 1894 
Q 1581 1475 1376 1294 
Q 1172 1113 1090 947 
Q 1009 781 1009 544 
L 3416 544 
L 3416 0 
L 372 0 
L 372 241 
Q 372 659 486 951 
Q 600 1244 862 1520 
Q 1125 1797 1681 2184 
Q 2250 2584 2458 2886 
Q 2666 3188 2666 3572 
z
" transform="scale(0.015625)"/>
      <path id="MicrosoftYaHei-2c" d="M 1109 778 
L 575 -888 
L 131 -888 
L 519 778 
L 1109 778 
z
" transform="scale(0.015625)"/>
      <path id="MicrosoftYaHei-33" d="M 447 809 
Q 944 425 1569 425 
Q 2069 425 2361 670 
Q 2653 916 2653 1328 
Q 2653 2247 1338 2247 
L 934 2247 
L 934 2753 
L 1319 2753 
Q 2484 2753 2484 3616 
Q 2484 4413 1594 4413 
Q 1084 4413 634 4069 
L 634 4647 
Q 1109 4922 1744 4922 
Q 2363 4922 2738 4598 
Q 3113 4275 3113 3759 
Q 3113 2809 2144 2538 
L 2144 2525 
Q 2669 2469 2973 2155 
Q 3278 1841 3278 1372 
Q 3278 719 2808 319 
Q 2338 -81 1556 -81 
Q 869 -81 447 175 
L 447 809 
z
" transform="scale(0.015625)"/>
      <path id="MicrosoftYaHei-2212" d="M 3972 1772 
L 788 1772 
L 788 2250 
L 3972 2250 
L 3972 1772 
z
" transform="scale(0.015625)"/>
      <path id="MicrosoftYaHei-31" d="M 1781 0 
L 1781 4141 
Q 1638 3997 1295 3819 
Q 953 3641 663 3569 
L 663 4169 
Q 1047 4275 1484 4508 
Q 1922 4741 2156 4947 
L 2388 4947 
L 2388 0 
L 1781 0 
z
" transform="scale(0.015625)"/>
      <path id="MicrosoftYaHei-5d" d="M 1466 -1100 
L 184 -1100 
L 184 -669 
L 928 -669 
L 928 4406 
L 184 4406 
L 184 4841 
L 1466 4841 
L 1466 -1100 
z
" transform="scale(0.015625)"/>
      <path id="MicrosoftYaHei-ff1a" d="M 1606 3531 
Q 1772 3531 1890 3415 
Q 2009 3300 2009 3138 
Q 2009 2975 1893 2858 
Q 1778 2741 1606 2741 
Q 1434 2741 1318 2858 
Q 1203 2975 1203 3138 
Q 1203 3300 1322 3415 
Q 1441 3531 1606 3531 
z
M 1606 716 
Q 1772 716 1890 600 
Q 2009 484 2009 319 
Q 2009 150 1890 36 
Q 1772 -78 1606 -78 
Q 1441 -78 1322 36 
Q 1203 150 1203 319 
Q 1203 484 1322 600 
Q 1441 716 1606 716 
z
" transform="scale(0.015625)"/>
      <path id="MicrosoftYaHei-201c" d="M 6028 4925 
L 5663 3419 
L 5109 3419 
L 5603 4925 
L 6028 4925 
z
M 4959 4925 
L 4594 3419 
L 4041 3419 
L 4534 4925 
L 4959 4925 
z
" transform="scale(0.015625)"/>
      <path id="MicrosoftYaHei-5b58" d="M 169 4641 
L 1925 4641 
Q 2053 4991 2163 5359 
L 2675 5228 
Q 2578 4928 2472 4641 
L 6275 4641 
L 6275 4178 
L 2291 4178 
Q 1963 3384 1563 2709 
L 1563 -797 
L 1081 -797 
L 1081 1984 
Q 747 1528 369 1141 
Q 244 1359 69 1591 
Q 1113 2688 1744 4178 
L 169 4178 
L 169 4641 
z
M 1838 1791 
L 3994 1791 
L 3994 2203 
Q 4656 2628 5156 3047 
L 2256 3047 
L 2256 3503 
L 5869 3503 
L 5869 2997 
Q 5231 2491 4475 1978 
L 4475 1791 
L 6319 1791 
L 6319 1334 
L 4475 1334 
L 4475 -72 
Q 4475 -784 3763 -784 
Q 3425 -784 2856 -766 
Q 2825 -528 2775 -259 
Q 3375 -322 3663 -322 
Q 3994 -322 3994 9 
L 3994 1334 
L 1838 1334 
L 1838 1791 
z
" transform="scale(0.015625)"/>
      <path id="MicrosoftYaHei-5728" d="M 250 4553 
L 2088 4553 
Q 2241 4931 2363 5328 
L 2881 5197 
Q 2772 4869 2647 4553 
L 6275 4553 
L 6275 4091 
L 2450 4091 
Q 2078 3256 1581 2519 
L 1581 -791 
L 1094 -791 
L 1094 1853 
Q 756 1431 375 1047 
Q 244 1266 75 1497 
Q 1225 2691 1884 4091 
L 250 4091 
L 250 4553 
z
M 1800 109 
L 3756 109 
L 3756 1978 
L 2131 1978 
L 2131 2428 
L 3756 2428 
L 3756 3684 
L 4269 3684 
L 4269 2428 
L 5919 2428 
L 5919 1978 
L 4269 1978 
L 4269 109 
L 6275 109 
L 6275 -328 
L 1800 -328 
L 1800 109 
z
" transform="scale(0.015625)"/>
      <path id="MicrosoftYaHei-201d" d="M 2366 4925 
L 1872 3419 
L 1447 3419 
L 1813 4925 
L 2366 4925 
z
M 1291 4925 
L 797 3419 
L 372 3419 
L 738 4925 
L 1291 4925 
z
" transform="scale(0.015625)"/>
      <path id="MicrosoftYaHei-4e0e" d="M 1163 2384 
L 1163 2859 
L 1413 5328 
L 1931 5328 
L 1834 4334 
L 6269 4334 
L 6269 3859 
L 1791 3859 
L 1694 2859 
L 5813 2859 
Q 5738 1547 5644 416 
Q 5556 -247 5263 -478 
Q 4981 -703 4322 -703 
Q 3706 -697 2900 -678 
Q 2863 -466 2794 -134 
Q 3744 -203 4213 -209 
Q 5050 -266 5125 447 
Q 5206 1278 5263 2384 
L 1163 2384 
z
M 106 1409 
L 4738 1409 
L 4738 934 
L 106 934 
L 106 1409 
z
" transform="scale(0.015625)"/>
      <path id="MicrosoftYaHei-6240" d="M 638 4853 
Q 1675 4872 2806 5109 
L 2969 4641 
Q 2044 4503 1088 4434 
L 1088 3466 
L 2725 3466 
L 2725 1159 
L 2288 1159 
L 2288 1434 
L 1063 1434 
Q 959 3 406 -834 
Q 238 -628 63 -453 
Q 638 334 638 2134 
L 638 4853 
z
M 3325 4816 
Q 4813 4872 6031 5091 
L 6200 4616 
Q 4638 4441 3788 4391 
L 3788 2997 
L 6319 2997 
L 6319 2566 
L 5350 2566 
L 5350 -809 
L 4881 -809 
L 4881 2566 
L 3788 2566 
L 3788 2216 
Q 3788 247 2694 -878 
Q 2513 -666 2338 -466 
Q 3325 547 3325 2228 
L 3325 4816 
z
M 2288 1847 
L 2288 3053 
L 1088 3053 
Q 1088 2122 1084 1847 
L 2288 1847 
z
" transform="scale(0.015625)"/>
      <path id="MicrosoftYaHei-6709" d="M 1856 -816 
L 1363 -816 
L 1363 2419 
Q 909 1891 363 1403 
Q 231 1622 63 1859 
Q 1269 2869 1947 4097 
L 238 4097 
L 238 4559 
L 2181 4559 
Q 2359 4950 2488 5359 
L 3006 5241 
Q 2881 4894 2731 4559 
L 6263 4559 
L 6263 4097 
L 2506 4097 
Q 2313 3728 2081 3378 
L 5506 3378 
L 5506 41 
Q 5506 -734 4750 -734 
Q 4419 -741 3744 -741 
Q 3713 -528 3650 -228 
Q 4225 -272 4575 -272 
Q 5006 -272 5006 153 
L 5006 597 
L 1856 597 
L 1856 -816 
z
M 1856 1022 
L 5006 1022 
L 5006 1772 
L 1856 1772 
L 1856 1022 
z
M 5006 2941 
L 1856 2941 
L 1856 2197 
L 5006 2197 
L 5006 2941 
z
" transform="scale(0.015625)"/>
      <path id="MicrosoftYaHei-80fd" d="M 950 -759 
L 463 -759 
L 463 2928 
L 3000 2928 
L 3000 -28 
Q 3000 -703 2375 -703 
Q 2100 -709 1669 -709 
Q 1638 -516 1575 -234 
Q 1969 -266 2206 -266 
Q 2513 -266 2513 53 
L 2513 572 
L 950 572 
L 950 -759 
z
M 3606 2253 
L 4094 2253 
L 4094 1222 
Q 4981 1553 5950 2091 
L 6231 1659 
Q 5209 1122 4094 706 
L 4094 166 
Q 4094 -228 4400 -228 
L 5319 -228 
Q 5638 -228 5688 78 
Q 5731 353 5763 897 
Q 6000 803 6250 722 
Q 6200 172 6144 -109 
Q 6063 -659 5363 -659 
L 4319 -659 
Q 3606 -659 3606 72 
L 3606 2253 
z
M 3619 5303 
L 4106 5303 
L 4106 4231 
Q 4966 4572 5813 5053 
L 6094 4622 
Q 5119 4128 4106 3719 
L 4106 3359 
Q 4106 2941 4438 2941 
L 5231 2941 
Q 5625 2941 5675 3266 
Q 5719 3534 5750 4047 
Q 5988 3953 6238 3866 
Q 6188 3366 6131 3053 
Q 6038 2509 5288 2509 
L 4375 2509 
Q 3619 2509 3619 3259 
L 3619 5303 
z
M 2463 4772 
Q 3031 4034 3450 3353 
Q 3213 3191 3019 3066 
Q 2897 3281 2759 3506 
Q 1231 3394 313 3303 
L 113 3828 
Q 388 3978 719 4391 
Q 1063 4841 1394 5397 
L 1888 5216 
Q 1369 4466 794 3797 
Q 1731 3856 2497 3919 
Q 2300 4216 2075 4528 
L 2463 4772 
z
M 950 947 
L 2513 947 
L 2513 1553 
L 950 1553 
L 950 947 
z
M 2513 2528 
L 950 2528 
L 950 1928 
L 2513 1928 
L 2513 2528 
z
" transform="scale(0.015625)"/>
      <path id="MicrosoftYaHei-6df7" d="M 2450 2303 
L 1975 2303 
L 1975 5003 
L 5750 5003 
L 5750 2266 
L 5275 2266 
L 5275 2522 
L 2450 2522 
L 2450 2303 
z
M 3988 2191 
L 4450 2191 
L 4450 1175 
Q 5247 1603 5850 2022 
L 6150 1609 
Q 5516 1222 4450 672 
L 4450 203 
Q 4450 -197 4800 -197 
L 5256 -197 
Q 5563 -197 5625 9 
Q 5719 328 5794 903 
Q 6019 803 6263 728 
Q 6138 59 6069 -178 
Q 5944 -672 5313 -672 
L 4738 -672 
Q 3988 -672 3988 109 
L 3988 2191 
z
M 3738 391 
Q 3731 122 3738 -84 
Q 3050 -359 2600 -553 
Q 2331 -672 2150 -797 
L 1869 -391 
Q 2025 -309 2025 34 
L 2025 2141 
L 2488 2141 
L 2488 1528 
L 3788 1528 
L 3788 1091 
L 2488 1091 
L 2488 -97 
Q 3100 134 3738 391 
z
M 5275 4572 
L 2450 4572 
L 2450 3978 
L 5275 3978 
L 5275 4572 
z
M 2450 2953 
L 5275 2953 
L 5275 3547 
L 2450 3547 
L 2450 2953 
z
M 981 1853 
Q 1244 1734 1494 1634 
Q 1200 616 763 -766 
L 231 -566 
Q 669 603 981 1853 
z
M 406 3647 
Q 1031 3266 1531 2884 
Q 1438 2791 1194 2472 
Q 750 2847 100 3291 
L 406 3647 
z
M 650 5209 
Q 1419 4684 1763 4416 
Q 1569 4191 1425 4022 
Q 881 4484 356 4866 
L 650 5209 
z
" transform="scale(0.015625)"/>
      <path id="MicrosoftYaHei-7528" d="M 3088 -734 
L 3088 1253 
L 1269 1253 
Q 1163 -47 513 -903 
Q 350 -697 144 -472 
Q 550 103 694 803 
Q 831 1478 831 2716 
L 831 4947 
L 5925 4947 
L 5925 -22 
Q 5925 -766 5219 -766 
Q 4788 -766 4250 -747 
Q 4219 -541 4156 -228 
Q 4700 -266 5038 -266 
Q 5425 -266 5425 103 
L 5425 1253 
L 3588 1253 
L 3588 -734 
L 3088 -734 
z
M 3588 1703 
L 5425 1703 
L 5425 2872 
L 3588 2872 
L 3588 1703 
z
M 5425 4484 
L 3588 4484 
L 3588 3322 
L 5425 3322 
L 5425 4484 
z
M 1303 1703 
L 3088 1703 
L 3088 2872 
L 1331 2872 
Q 1350 2266 1303 1703 
z
M 1331 4484 
L 1331 3322 
L 3088 3322 
L 3088 4484 
L 1331 4484 
z
" transform="scale(0.015625)"/>
      <path id="MicrosoftYaHei-3002" d="M 1219 863 
Q 1525 863 1750 625 
Q 1975 388 1975 72 
Q 1975 -284 1747 -507 
Q 1519 -731 1197 -731 
Q 875 -731 642 -503 
Q 409 -275 409 66 
Q 409 413 656 638 
Q 903 863 1219 863 
z
M 1209 -275 
Q 1328 -275 1431 -184 
Q 1534 -94 1534 50 
Q 1534 209 1434 304 
Q 1334 400 1191 400 
Q 1056 400 959 304 
Q 863 209 863 53 
Q 863 -100 977 -187 
Q 1091 -275 1209 -275 
z
" transform="scale(0.015625)"/>
     </defs>
     <use xlink:href="#MicrosoftYaHei-540c"/>
     <use xlink:href="#MicrosoftYaHei-4e00" transform="translate(100 0)"/>
     <use xlink:href="#MicrosoftYaHei-7ec4" transform="translate(200 0)"/>
     <use xlink:href="#MicrosoftYaHei-6570" transform="translate(300 0)"/>
     <use xlink:href="#MicrosoftYaHei-636e" transform="translate(400 0)"/>
     <use xlink:href="#MicrosoftYaHei-20" transform="translate(500 0)"/>
     <use xlink:href="#MicrosoftYaHei-5b" transform="translate(529.589844 0)"/>
     <use xlink:href="#MicrosoftYaHei-32" transform="translate(562.988281 0)"/>
     <use xlink:href="#MicrosoftYaHei-2c" transform="translate(621.630859 0)"/>
     <use xlink:href="#MicrosoftYaHei-20" transform="translate(645.703125 0)"/>
     <use xlink:href="#MicrosoftYaHei-33" transform="translate(675.292969 0)"/>
     <use xlink:href="#MicrosoftYaHei-2c" transform="translate(733.935547 0)"/>
     <use xlink:href="#MicrosoftYaHei-20" transform="translate(758.007812 0)"/>
     <use xlink:href="#MicrosoftYaHei-2212" transform="translate(787.597656 0)"/>
     <use xlink:href="#MicrosoftYaHei-31" transform="translate(861.767578 0)"/>
     <use xlink:href="#MicrosoftYaHei-5d" transform="translate(920.410156 0)"/>
     <use xlink:href="#MicrosoftYaHei-ff1a" transform="translate(953.808594 0)"/>
     <use xlink:href="#MicrosoftYaHei-201c" transform="translate(1053.808594 0)"/>
     <use xlink:href="#MicrosoftYaHei-5b58" transform="translate(1153.808594 0)"/>
     <use xlink:href="#MicrosoftYaHei-5728" transform="translate(1253.808594 0)"/>
     <use xlink:href="#MicrosoftYaHei-201d" transform="translate(1353.808594 0)"/>
     <use xlink:href="#MicrosoftYaHei-4e0e" transform="translate(1453.808594 0)"/>
     <use xlink:href="#MicrosoftYaHei-201c" transform="translate(1553.808594 0)"/>
     <use xlink:href="#MicrosoftYaHei-6240" transform="translate(1653.808594 0)"/>
     <use xlink:href="#MicrosoftYaHei-6709" transform="translate(1753.808594 0)"/>
     <use xlink:href="#MicrosoftYaHei-201d" transform="translate(1853.808594 0)"/>
     <use xlink:href="#MicrosoftYaHei-4e0d" transform="translate(1953.808594 0)"/>
     <use xlink:href="#MicrosoftYaHei-80fd" transform="translate(2053.808594 0)"/>
     <use xlink:href="#MicrosoftYaHei-6df7" transform="translate(2153.808594 0)"/>
     <use xlink:href="#MicrosoftYaHei-7528" transform="translate(2253.808594 0)"/>
     <use xlink:href="#MicrosoftYaHei-3002" transform="translate(2353.808594 0)"/>
    </g>
   </g>
   <g id="text_3">
    <!-- 2 -->
    <g style="fill: #17324d" transform="translate(339.728766 132.226097) scale(0.11 -0.11)">
     <use xlink:href="#MicrosoftYaHei-32"/>
    </g>
   </g>
   <g id="text_4">
    <!-- 3 -->
    <g style="fill: #17324d" transform="translate(420.044766 132.226097) scale(0.11 -0.11)">
     <use xlink:href="#MicrosoftYaHei-33"/>
    </g>
   </g>
   <g id="text_5">
    <!-- -1 -->
    <g style="fill: #17324d" transform="translate(497.981156 132.226097) scale(0.11 -0.11)">
     <defs>
      <path id="MicrosoftYaHei-2d" d="M 2328 1681 
L 488 1681 
L 488 2153 
L 2328 2153 
L 2328 1681 
z
" transform="scale(0.015625)"/>
     </defs>
     <use xlink:href="#MicrosoftYaHei-2d"/>
     <use xlink:href="#MicrosoftYaHei-31" transform="translate(43.261719 0)"/>
    </g>
   </g>
   <g id="text_6">
    <!-- 存在一个 x &gt; 0：true -->
    <g style="fill: #17324d" transform="translate(174.991312 235.09875) scale(0.12 -0.12)">
     <defs>
      <path id="MicrosoftYaHei-4e2a" d="M 2913 3028 
L 3481 3028 
L 3481 -841 
L 2913 -841 
L 2913 3028 
z
M 3600 5178 
L 3506 5034 
Q 4519 3366 6319 2647 
Q 6125 2341 5988 2084 
Q 4150 3047 3206 4566 
Q 2281 3122 400 1997 
Q 263 2222 81 2491 
Q 2031 3572 2981 5178 
L 3600 5178 
z
" transform="scale(0.015625)"/>
      <path id="MicrosoftYaHei-78" d="M 3163 3456 
L 2006 1716 
L 3147 0 
L 2434 0 
L 1775 1100 
Q 1722 1188 1625 1369 
L 1613 1369 
Q 1609 1350 1456 1100 
L 784 0 
L 81 0 
L 1256 1697 
L 134 3456 
L 847 3456 
L 1494 2300 
Q 1553 2194 1638 2025 
L 1650 2025 
L 2491 3456 
L 3163 3456 
z
" transform="scale(0.015625)"/>
      <path id="MicrosoftYaHei-3e" d="M 3844 1866 
L 913 409 
L 913 947 
L 3094 1981 
L 3094 2003 
L 913 3175 
L 913 3716 
L 3844 2103 
L 3844 1866 
z
" transform="scale(0.015625)"/>
      <path id="MicrosoftYaHei-30" d="M 284 2325 
Q 284 3606 709 4264 
Q 1134 4922 1941 4922 
Q 3478 4922 3478 2441 
Q 3478 1216 3045 567 
Q 2613 -81 1831 -81 
Q 1094 -81 689 534 
Q 284 1150 284 2325 
z
M 909 2353 
Q 909 425 1888 425 
Q 2850 425 2850 2384 
Q 2850 4413 1906 4413 
Q 909 4413 909 2353 
z
" transform="scale(0.015625)"/>
      <path id="MicrosoftYaHei-74" d="M 2206 34 
Q 2006 -75 1666 -75 
Q 738 -75 738 953 
L 738 2950 
L 144 2950 
L 144 3456 
L 738 3456 
L 738 4288 
L 1347 4481 
L 1347 3456 
L 2206 3456 
L 2206 2950 
L 1347 2950 
L 1347 1063 
Q 1347 722 1462 575 
Q 1578 428 1847 428 
Q 2053 428 2206 544 
L 2206 34 
z
" transform="scale(0.015625)"/>
      <path id="MicrosoftYaHei-72" d="M 2400 2850 
Q 2247 2959 1978 2959 
Q 1622 2959 1390 2626 
Q 1159 2294 1159 1750 
L 1159 0 
L 547 0 
L 547 3456 
L 1159 3456 
L 1159 2753 
L 1172 2753 
Q 1434 3516 2078 3516 
Q 2288 3516 2400 3469 
L 2400 2850 
z
" transform="scale(0.015625)"/>
      <path id="MicrosoftYaHei-75" d="M 3400 0 
L 2784 0 
L 2784 544 
L 2772 544 
Q 2425 -81 1706 -81 
Q 478 -81 478 1388 
L 478 3456 
L 1084 3456 
L 1084 1478 
Q 1084 425 1891 425 
Q 2291 425 2537 720 
Q 2784 1016 2784 1466 
L 2784 3456 
L 3400 3456 
L 3400 0 
z
" transform="scale(0.015625)"/>
      <path id="MicrosoftYaHei-65" d="M 3363 1572 
L 944 1572 
Q 959 1019 1246 717 
Q 1534 416 2050 416 
Q 2631 416 3116 788 
L 3116 241 
Q 2659 -81 1906 -81 
Q 1156 -81 736 394 
Q 316 869 316 1713 
Q 316 2506 777 3022 
Q 1238 3538 1922 3538 
Q 2600 3538 2981 3102 
Q 3363 2666 3363 1881 
L 3363 1572 
z
M 2750 2063 
Q 2747 2531 2528 2787 
Q 2309 3044 1913 3044 
Q 1547 3044 1280 2772 
Q 1013 2500 944 2063 
L 2750 2063 
z
" transform="scale(0.015625)"/>
     </defs>
     <use xlink:href="#MicrosoftYaHei-5b58"/>
     <use xlink:href="#MicrosoftYaHei-5728" transform="translate(100 0)"/>
     <use xlink:href="#MicrosoftYaHei-4e00" transform="translate(200 0)"/>
     <use xlink:href="#MicrosoftYaHei-4e2a" transform="translate(300 0)"/>
     <use xlink:href="#MicrosoftYaHei-20" transform="translate(400 0)"/>
     <use xlink:href="#MicrosoftYaHei-78" transform="translate(429.589844 0)"/>
     <use xlink:href="#MicrosoftYaHei-20" transform="translate(480.273438 0)"/>
     <use xlink:href="#MicrosoftYaHei-3e" transform="translate(509.863281 0)"/>
     <use xlink:href="#MicrosoftYaHei-20" transform="translate(584.033203 0)"/>
     <use xlink:href="#MicrosoftYaHei-30" transform="translate(613.623047 0)"/>
     <use xlink:href="#MicrosoftYaHei-ff1a" transform="translate(672.265625 0)"/>
     <use xlink:href="#MicrosoftYaHei-74" transform="translate(772.265625 0)"/>
     <use xlink:href="#MicrosoftYaHei-72" transform="translate(809.521484 0)"/>
     <use xlink:href="#MicrosoftYaHei-75" transform="translate(847.705078 0)"/>
     <use xlink:href="#MicrosoftYaHei-65" transform="translate(909.326172 0)"/>
    </g>
    <!-- 找到 2 或 3 就能证明存在。 -->
    <g style="fill: #17324d" transform="translate(158.816625 252.470625) scale(0.12 -0.12)">
     <defs>
      <path id="MicrosoftYaHei-627e" d="M 2094 209 
Q 3075 656 3841 1209 
Q 3653 1884 3575 3022 
L 2375 2884 
L 2300 3347 
L 3547 3488 
Q 3503 4297 3463 5291 
L 3975 5291 
Q 3984 4325 4022 3544 
L 6131 3784 
L 6188 3328 
L 4050 3078 
Q 4109 2125 4250 1522 
Q 5003 2141 5513 2878 
L 5919 2572 
Q 5263 1725 4391 1034 
Q 4647 284 5075 -91 
Q 5313 -291 5456 -291 
Q 5619 -291 5688 16 
Q 5775 466 5831 978 
Q 6119 853 6313 797 
Q 6194 78 6088 -291 
Q 5938 -797 5513 -797 
Q 5113 -797 4806 -528 
Q 4294 -97 3994 734 
Q 3269 216 2406 -203 
Q 2294 -28 2094 209 
z
M 88 1991 
Q 575 2063 1188 2172 
L 1188 3634 
L 181 3634 
L 181 4072 
L 1188 4072 
L 1188 5266 
L 1669 5266 
L 1669 4072 
L 2575 4072 
L 2575 3634 
L 1669 3634 
L 1669 2263 
Q 2100 2344 2588 2441 
Q 2594 2197 2606 1972 
Q 2141 1884 1669 1794 
L 1669 -91 
Q 1669 -741 1081 -753 
Q 756 -759 344 -747 
Q 319 -509 256 -222 
Q 675 -266 919 -266 
Q 1188 -266 1188 3 
L 1188 1694 
Q 691 1594 188 1484 
L 88 1991 
z
M 4369 4822 
L 4644 5134 
Q 5200 4759 5731 4353 
L 5413 3991 
Q 4881 4459 4369 4822 
z
" transform="scale(0.015625)"/>
      <path id="MicrosoftYaHei-5230" d="M 2856 4122 
Q 3356 3384 3794 2584 
Q 3556 2472 3313 2334 
Q 3203 2566 3088 2791 
Q 1741 2659 531 2534 
L 306 3053 
Q 669 3247 931 3672 
Q 1172 4034 1403 4484 
L 238 4484 
L 238 4947 
L 3825 4947 
L 3825 4484 
L 1994 4484 
Q 1528 3694 1050 3047 
Q 1941 3113 2863 3209 
Q 2656 3569 2431 3909 
L 2856 4122 
z
M 281 1734 
L 1750 1734 
L 1750 2509 
L 2250 2509 
L 2250 1734 
L 3681 1734 
L 3681 1272 
L 2250 1272 
L 2250 172 
Q 2988 266 3769 372 
Q 3769 153 3794 -116 
Q 2025 -334 238 -597 
L 94 -72 
Q 891 9 1750 113 
L 1750 1272 
L 281 1272 
L 281 1734 
z
M 5519 5322 
L 6038 5322 
L 6038 34 
Q 6038 -747 5281 -747 
Q 5025 -747 4369 -741 
Q 4331 -484 4275 -178 
Q 4825 -228 5125 -228 
Q 5519 -234 5519 178 
L 5519 5322 
z
M 4163 4647 
L 4669 4647 
L 4669 666 
L 4163 666 
L 4163 4647 
z
" transform="scale(0.015625)"/>
      <path id="MicrosoftYaHei-6216" d="M 2675 -484 
Q 3456 50 4044 741 
Q 3644 1847 3569 3741 
L 200 3741 
L 200 4203 
L 3550 4203 
Q 3525 4725 3506 5291 
L 4019 5291 
Q 4022 4725 4038 4203 
L 6250 4203 
L 6250 3741 
L 4047 3741 
Q 4088 2188 4397 1197 
Q 5000 2044 5350 3097 
L 5844 2891 
Q 5334 1619 4603 659 
Q 4884 59 5275 -191 
Q 5650 -434 5738 16 
Q 5831 484 5881 978 
Q 6138 866 6363 797 
Q 6244 78 6138 -291 
Q 6006 -778 5569 -791 
Q 5206 -791 4863 -528 
Q 4513 -234 4259 244 
Q 3706 -384 3038 -853 
Q 2894 -691 2675 -484 
z
M 644 3134 
L 2894 3134 
L 2894 947 
L 2444 947 
L 2444 1234 
L 1094 1234 
L 1094 797 
L 644 797 
L 644 3134 
z
M 106 91 
Q 1300 247 3219 578 
Q 3225 309 3238 103 
Q 1831 -109 231 -409 
L 106 91 
z
M 2444 2697 
L 1094 2697 
L 1094 1672 
L 2444 1672 
L 2444 2697 
z
M 4494 4991 
L 4756 5316 
Q 5263 5022 5781 4659 
L 5481 4284 
Q 5013 4647 4494 4991 
z
" transform="scale(0.015625)"/>
      <path id="MicrosoftYaHei-5c31" d="M 3194 3534 
L 3847 3534 
Q 3856 4031 3869 5309 
L 4325 5309 
Q 4313 4128 4297 3534 
L 6125 3534 
L 6125 3078 
L 5013 3078 
L 5013 84 
Q 5013 -209 5244 -209 
L 5450 -209 
Q 5719 -209 5769 159 
Q 5831 534 5850 1116 
Q 6294 941 6319 928 
Q 6263 372 6213 9 
Q 6119 -659 5513 -659 
L 5094 -659 
Q 4556 -659 4556 -3 
L 4556 3078 
L 4278 3078 
Q 4238 603 2863 -872 
Q 2700 -697 2506 -509 
Q 3800 866 3828 3078 
L 3194 3078 
L 3194 3534 
z
M 550 3497 
L 3025 3497 
L 3025 1616 
L 2588 1616 
L 2588 1766 
L 2006 1766 
L 2006 -84 
Q 2006 -722 1369 -722 
Q 1088 -722 819 -709 
Q 794 -466 719 -228 
Q 1000 -272 1294 -272 
Q 1569 -272 1569 9 
L 1569 1766 
L 988 1766 
L 988 1616 
L 550 1616 
L 550 3497 
z
M 175 4478 
L 1719 4478 
Q 1556 4809 1325 5166 
L 1744 5366 
Q 1975 5022 2150 4672 
L 1750 4478 
L 3375 4478 
L 3375 4053 
L 175 4053 
L 175 4478 
z
M 2588 3084 
L 988 3084 
L 988 2178 
L 2588 2178 
L 2588 3084 
z
M 813 1397 
L 1219 1234 
Q 913 447 519 -166 
Q 363 -53 119 53 
Q 525 666 813 1397 
z
M 4663 4678 
L 4956 5003 
Q 5450 4653 5913 4272 
L 5588 3909 
Q 5300 4184 4663 4678 
z
M 2206 1259 
L 2563 1484 
Q 2919 1022 3156 634 
L 2769 372 
Q 2538 797 2206 1259 
z
" transform="scale(0.015625)"/>
      <path id="MicrosoftYaHei-8bc1" d="M 1681 -34 
L 2550 -34 
L 2550 3422 
L 3031 3422 
L 3031 -34 
L 4025 -34 
L 4025 4534 
L 2025 4534 
L 2025 4997 
L 6200 4997 
L 6200 4534 
L 4525 4534 
L 4525 2653 
L 5975 2653 
L 5975 2191 
L 4525 2191 
L 4525 -34 
L 6300 -34 
L 6300 -497 
L 1681 -497 
L 1681 -34 
z
M 2050 1534 
Q 2075 1316 2169 991 
Q 1413 241 1025 -203 
L 669 203 
Q 856 466 856 828 
L 856 2784 
L 100 2784 
L 100 3234 
L 1338 3234 
L 1338 797 
Q 1625 1072 2050 1534 
z
M 706 5222 
Q 1438 4478 1731 4147 
L 1294 3778 
Q 900 4291 325 4891 
L 706 5222 
z
" transform="scale(0.015625)"/>
      <path id="MicrosoftYaHei-660e" d="M 2350 -872 
Q 2188 -691 1944 -491 
Q 2706 197 2950 853 
Q 3188 1472 3188 2816 
L 3188 5016 
L 5931 5016 
L 5931 -47 
Q 5931 -791 5213 -791 
Q 4769 -791 4150 -772 
Q 4113 -522 4056 -259 
Q 4675 -297 5056 -297 
Q 5438 -297 5438 72 
L 5438 1284 
L 3575 1284 
Q 3400 116 2350 -872 
z
M 475 4816 
L 2431 4816 
L 2431 566 
L 944 566 
L 944 109 
L 475 109 
L 475 4816 
z
M 3634 1734 
L 5438 1734 
L 5438 2922 
L 3681 2922 
Q 3688 2278 3634 1734 
z
M 5438 4547 
L 3681 4547 
L 3681 3372 
L 5438 3372 
L 5438 4547 
z
M 1963 1022 
L 1963 2491 
L 944 2491 
L 944 1022 
L 1963 1022 
z
M 1963 4359 
L 944 4359 
L 944 2934 
L 1963 2934 
L 1963 4359 
z
" transform="scale(0.015625)"/>
     </defs>
     <use xlink:href="#MicrosoftYaHei-627e"/>
     <use xlink:href="#MicrosoftYaHei-5230" transform="translate(100 0)"/>
     <use xlink:href="#MicrosoftYaHei-20" transform="translate(200 0)"/>
     <use xlink:href="#MicrosoftYaHei-32" transform="translate(229.589844 0)"/>
     <use xlink:href="#MicrosoftYaHei-20" transform="translate(288.232422 0)"/>
     <use xlink:href="#MicrosoftYaHei-6216" transform="translate(317.822266 0)"/>
     <use xlink:href="#MicrosoftYaHei-20" transform="translate(417.822266 0)"/>
     <use xlink:href="#MicrosoftYaHei-33" transform="translate(447.412109 0)"/>
     <use xlink:href="#MicrosoftYaHei-20" transform="translate(506.054688 0)"/>
     <use xlink:href="#MicrosoftYaHei-5c31" transform="translate(535.644531 0)"/>
     <use xlink:href="#MicrosoftYaHei-80fd" transform="translate(635.644531 0)"/>
     <use xlink:href="#MicrosoftYaHei-8bc1" transform="translate(735.644531 0)"/>
     <use xlink:href="#MicrosoftYaHei-660e" transform="translate(835.644531 0)"/>
     <use xlink:href="#MicrosoftYaHei-5b58" transform="translate(935.644531 0)"/>
     <use xlink:href="#MicrosoftYaHei-5728" transform="translate(1035.644531 0)"/>
     <use xlink:href="#MicrosoftYaHei-3002" transform="translate(1135.644531 0)"/>
    </g>
   </g>
   <g id="text_7">
    <!-- 所有元素 x &gt; 0：false -->
    <g style="fill: #17324d" transform="translate(564.5475 235.09875) scale(0.12 -0.12)">
     <defs>
      <path id="MicrosoftYaHei-5143" d="M 188 3084 
L 6225 3084 
L 6225 2609 
L 4250 2609 
L 4250 172 
Q 4250 -197 4625 -197 
L 5163 -197 
Q 5613 -197 5675 216 
Q 5731 566 5769 1103 
Q 6019 1016 6313 947 
Q 6250 409 6181 47 
Q 6056 -641 5275 -641 
L 4513 -641 
Q 3725 -641 3725 128 
L 3725 2609 
L 2450 2609 
L 2450 2409 
Q 2450 1084 2050 447 
Q 1650 -247 469 -847 
Q 244 -572 100 -428 
Q 1181 103 1556 691 
Q 1925 1253 1925 2384 
L 1925 2609 
L 188 2609 
L 188 3084 
z
M 788 4903 
L 5638 4903 
L 5638 4428 
L 788 4428 
L 788 4903 
z
" transform="scale(0.015625)"/>
      <path id="MicrosoftYaHei-7d20" d="M 4669 2009 
Q 5413 1391 5988 816 
Q 5863 716 5619 466 
Q 5431 666 5238 863 
Q 4294 819 3538 781 
L 3538 -3 
Q 3538 -747 2756 -747 
Q 2456 -747 2013 -734 
Q 1988 -522 1938 -228 
Q 2406 -278 2656 -278 
Q 3050 -278 3050 47 
L 3050 756 
Q 2219 716 1625 684 
Q 1206 659 900 603 
L 644 1097 
Q 1125 1191 1475 1322 
Q 2172 1591 2831 1881 
Q 2069 1825 1456 1772 
Q 1219 1747 981 1709 
L 763 2172 
Q 1088 2241 1338 2359 
Q 1738 2566 2103 2778 
L 188 2778 
L 188 3172 
L 2950 3172 
L 2950 3603 
L 775 3603 
L 775 3997 
L 2950 3997 
L 2950 4416 
L 425 4416 
L 425 4809 
L 2950 4809 
L 2950 5347 
L 3450 5347 
L 3450 4809 
L 6000 4809 
L 6000 4416 
L 3450 4416 
L 3450 3997 
L 5563 3997 
L 5563 3603 
L 3450 3603 
L 3450 3172 
L 6238 3172 
L 6238 2778 
L 2859 2778 
Q 2231 2434 1569 2122 
Q 2522 2175 3634 2247 
Q 4131 2484 4606 2734 
L 4956 2447 
Q 3356 1666 1775 1053 
Q 3347 1119 4888 1206 
Q 4625 1463 4344 1716 
L 4669 2009 
z
M 1819 559 
L 2131 209 
Q 1181 -372 475 -716 
Q 381 -553 219 -316 
Q 906 -16 1819 559 
z
M 4113 253 
L 4388 591 
Q 5056 253 6019 -291 
L 5706 -691 
Q 4813 -116 4113 253 
z
" transform="scale(0.015625)"/>
      <path id="MicrosoftYaHei-66" d="M 2319 4594 
Q 2147 4684 1947 4684 
Q 1372 4684 1372 3972 
L 1372 3456 
L 2181 3456 
L 2181 2950 
L 1372 2950 
L 1372 0 
L 766 0 
L 766 2950 
L 175 2950 
L 175 3456 
L 766 3456 
L 766 4000 
Q 766 4556 1086 4873 
Q 1406 5191 1900 5191 
Q 2163 5191 2319 5131 
L 2319 4594 
z
" transform="scale(0.015625)"/>
      <path id="MicrosoftYaHei-61" d="M 628 3216 
Q 1144 3538 1819 3538 
Q 3069 3538 3069 2225 
L 3069 0 
L 2463 0 
L 2463 534 
L 2447 534 
Q 2088 -81 1388 -81 
Q 884 -81 587 191 
Q 291 463 291 925 
Q 291 1894 1438 2053 
L 2463 2197 
Q 2463 3044 1763 3044 
Q 1141 3044 628 2625 
L 628 3216 
z
M 1653 1625 
Q 1228 1569 1067 1412 
Q 906 1256 906 975 
Q 906 728 1081 572 
Q 1256 416 1544 416 
Q 1944 416 2203 697 
Q 2463 978 2463 1403 
L 2463 1734 
L 1653 1625 
z
" transform="scale(0.015625)"/>
      <path id="MicrosoftYaHei-6c" d="M 544 0 
L 544 5116 
L 1156 5116 
L 1156 0 
L 544 0 
z
" transform="scale(0.015625)"/>
      <path id="MicrosoftYaHei-73" d="M 353 747 
Q 816 413 1350 413 
Q 2066 413 2066 881 
Q 2066 1081 1909 1211 
Q 1753 1341 1275 1519 
Q 700 1750 528 1976 
Q 356 2203 356 2525 
Q 356 2984 745 3261 
Q 1134 3538 1703 3538 
Q 2144 3538 2522 3384 
L 2522 2794 
Q 2134 3044 1644 3044 
Q 1350 3044 1165 2916 
Q 981 2788 981 2578 
Q 981 2372 1114 2256 
Q 1247 2141 1703 1959 
Q 2281 1744 2484 1512 
Q 2688 1281 2688 941 
Q 2688 466 2298 192 
Q 1909 -81 1291 -81 
Q 753 -81 353 122 
L 353 747 
z
" transform="scale(0.015625)"/>
     </defs>
     <use xlink:href="#MicrosoftYaHei-6240"/>
     <use xlink:href="#MicrosoftYaHei-6709" transform="translate(100 0)"/>
     <use xlink:href="#MicrosoftYaHei-5143" transform="translate(200 0)"/>
     <use xlink:href="#MicrosoftYaHei-7d20" transform="translate(300 0)"/>
     <use xlink:href="#MicrosoftYaHei-20" transform="translate(400 0)"/>
     <use xlink:href="#MicrosoftYaHei-78" transform="translate(429.589844 0)"/>
     <use xlink:href="#MicrosoftYaHei-20" transform="translate(480.273438 0)"/>
     <use xlink:href="#MicrosoftYaHei-3e" transform="translate(509.863281 0)"/>
     <use xlink:href="#MicrosoftYaHei-20" transform="translate(584.033203 0)"/>
     <use xlink:href="#MicrosoftYaHei-30" transform="translate(613.623047 0)"/>
     <use xlink:href="#MicrosoftYaHei-ff1a" transform="translate(672.265625 0)"/>
     <use xlink:href="#MicrosoftYaHei-66" transform="translate(772.265625 0)"/>
     <use xlink:href="#MicrosoftYaHei-61" transform="translate(806.933594 0)"/>
     <use xlink:href="#MicrosoftYaHei-6c" transform="translate(862.207031 0)"/>
     <use xlink:href="#MicrosoftYaHei-73" transform="translate(888.818359 0)"/>
     <use xlink:href="#MicrosoftYaHei-65" transform="translate(935.107422 0)"/>
    </g>
    <!-- −1 是一个足以推翻结论的反例。 -->
    <g style="fill: #17324d" transform="translate(536.315625 252.470625) scale(0.12 -0.12)">
     <defs>
      <path id="MicrosoftYaHei-662f" d="M 1088 5078 
L 5338 5078 
L 5338 2472 
L 4863 2472 
L 4863 2722 
L 1563 2722 
L 1563 2472 
L 1088 2472 
L 1088 5078 
z
M 1400 1553 
L 1875 1409 
Q 1775 1081 1647 788 
Q 2122 19 3063 -134 
L 3063 1747 
L 213 1747 
L 213 2184 
L 6225 2184 
L 6225 1747 
L 3563 1747 
L 3563 1122 
L 5788 1122 
L 5788 697 
L 3563 697 
L 3563 -172 
Q 4763 -197 6344 -147 
Q 6244 -416 6169 -641 
Q 4331 -647 3344 -622 
Q 2022 -606 1434 359 
Q 1006 -413 350 -891 
Q 225 -703 44 -484 
Q 1050 191 1400 1553 
z
M 1563 3147 
L 4863 3147 
L 4863 3697 
L 1563 3697 
L 1563 3147 
z
M 4863 4653 
L 1563 4653 
L 1563 4109 
L 4863 4109 
L 4863 4653 
z
" transform="scale(0.015625)"/>
      <path id="MicrosoftYaHei-8db3" d="M 31 -384 
Q 1081 503 1238 2241 
L 1769 2159 
Q 1694 1559 1531 1041 
Q 2041 63 3050 -100 
L 3050 2822 
L 1400 2822 
L 1400 2553 
L 894 2553 
L 894 5059 
L 5538 5059 
L 5538 2553 
L 5031 2553 
L 5031 2822 
L 3569 2822 
L 3569 1641 
L 5913 1641 
L 5913 1184 
L 3569 1184 
L 3569 -138 
Q 4763 -169 6325 -109 
Q 6225 -359 6144 -628 
Q 4538 -641 3438 -616 
Q 1984 -597 1331 503 
Q 975 -306 363 -872 
Q 219 -628 31 -384 
z
M 5031 4603 
L 1400 4603 
L 1400 3278 
L 5031 3278 
L 5031 4603 
z
" transform="scale(0.015625)"/>
      <path id="MicrosoftYaHei-4ee5" d="M 4819 5172 
L 5331 5172 
L 5331 4047 
Q 5331 2319 4888 1303 
Q 5663 503 6350 -272 
L 5919 -666 
Q 5278 128 4641 844 
Q 3919 -253 2469 -872 
Q 2325 -678 2131 -441 
Q 3706 284 4250 1241 
Q 4831 2178 4819 4059 
L 4819 5172 
z
M 2881 1709 
Q 2900 1303 2931 1116 
Q 1431 172 1063 -72 
Q 856 -216 669 -384 
L 313 109 
Q 606 372 600 741 
L 600 5084 
L 1113 5084 
L 1113 616 
Q 1800 1028 2881 1709 
z
M 2625 5316 
Q 3044 4653 3556 3728 
L 3069 3453 
Q 2581 4416 2181 5078 
L 2625 5316 
z
" transform="scale(0.015625)"/>
      <path id="MicrosoftYaHei-63a8" d="M 1694 3016 
Q 2488 3978 3106 5334 
L 3575 5178 
Q 3338 4681 3075 4222 
L 6200 4222 
L 6200 3797 
L 4650 3797 
L 4650 2828 
L 6113 2828 
L 6113 2403 
L 4650 2403 
L 4650 1434 
L 6113 1434 
L 6113 1009 
L 4650 1009 
L 4650 22 
L 6300 22 
L 6300 -391 
L 2875 -391 
L 2875 -859 
L 2400 -859 
L 2400 3150 
Q 2225 2903 2044 2666 
Q 1931 2803 1694 3016 
z
M 88 1978 
Q 506 2075 894 2175 
L 894 3691 
L 131 3691 
L 131 4128 
L 894 4128 
L 894 5316 
L 1363 5316 
L 1363 4128 
L 2088 4128 
L 2088 3691 
L 1363 3691 
L 1363 2297 
Q 1744 2400 2088 2503 
Q 2100 2216 2131 2016 
Q 1728 1903 1363 1797 
L 1363 -97 
Q 1363 -734 869 -766 
Q 556 -784 231 -778 
Q 206 -528 156 -259 
Q 469 -284 656 -284 
Q 894 -284 894 -41 
L 894 1663 
Q 500 1547 150 1441 
L 88 1978 
z
M 2875 22 
L 4175 22 
L 4175 1009 
L 2875 1009 
L 2875 22 
z
M 2875 1434 
L 4175 1434 
L 4175 2403 
L 2875 2403 
L 2875 1434 
z
M 2875 2828 
L 4175 2828 
L 4175 3797 
L 2875 3797 
L 2875 2828 
z
M 4019 5072 
L 4413 5316 
Q 4719 4922 4975 4541 
L 4544 4272 
Q 4313 4659 4019 5072 
z
" transform="scale(0.015625)"/>
      <path id="MicrosoftYaHei-7ffb" d="M 456 1916 
L 2956 1916 
L 2956 -784 
L 2569 -784 
L 2569 -503 
L 844 -503 
L 844 -784 
L 456 -784 
L 456 1916 
z
M 5544 4428 
L 4625 4428 
L 4625 4853 
L 5956 4853 
L 5956 -84 
Q 5956 -747 5269 -747 
Q 5000 -747 4700 -734 
Q 4675 -534 4631 -284 
Q 4963 -334 5219 -334 
Q 5544 -334 5544 22 
L 5544 1678 
Q 5275 1384 4856 941 
Q 4688 1109 4556 1234 
Q 5088 1741 5544 2209 
L 5544 4428 
z
M 213 3509 
L 1513 3509 
L 1513 4616 
Q 963 4591 419 4572 
Q 369 4759 319 4953 
Q 1544 4953 2888 5066 
L 2988 4697 
Q 2444 4659 1900 4634 
L 1900 3509 
L 3125 3509 
L 3125 3147 
L 1900 3147 
L 1900 2841 
L 2050 3009 
Q 2838 2603 3269 2347 
L 3044 2028 
Q 2556 2341 1900 2703 
L 1900 2016 
L 1513 2016 
L 1513 2928 
Q 1075 2422 300 1972 
Q 194 2134 31 2322 
Q 800 2641 1325 3147 
L 213 3147 
L 213 3509 
z
M 4056 4428 
L 3213 4428 
L 3213 4853 
L 4456 4853 
L 4456 -59 
Q 4456 -747 3800 -747 
Q 3538 -747 3244 -734 
Q 3219 -534 3175 -278 
Q 3444 -334 3750 -328 
Q 4056 -328 4056 9 
L 4056 1516 
Q 3700 1166 3338 828 
Q 3181 997 3050 1141 
Q 3500 1522 4056 2047 
L 4056 4428 
z
M 3188 3716 
L 3519 3797 
Q 3713 3109 3875 2459 
L 3525 2359 
Q 3356 3134 3188 3716 
z
M 4694 3772 
L 5025 3859 
Q 5206 3222 5350 2572 
L 4981 2466 
Q 4869 3128 4694 3772 
z
M 1881 -128 
L 2569 -128 
L 2569 534 
L 1881 534 
L 1881 -128 
z
M 844 -128 
L 1525 -128 
L 1525 534 
L 844 534 
L 844 -128 
z
M 2569 1541 
L 1881 1541 
L 1881 884 
L 2569 884 
L 2569 1541 
z
M 844 884 
L 1525 884 
L 1525 1541 
L 844 1541 
L 844 884 
z
M 2175 3853 
Q 2481 4159 2750 4509 
L 3056 4266 
Q 2819 3966 2469 3609 
Q 2344 3728 2175 3853 
z
M 406 4266 
L 706 4472 
Q 1019 4122 1219 3834 
L 888 3597 
Q 644 3978 406 4266 
z
" transform="scale(0.015625)"/>
      <path id="MicrosoftYaHei-7ed3" d="M 2625 1709 
L 5925 1709 
L 5925 -828 
L 5438 -828 
L 5438 -441 
L 3113 -441 
L 3113 -828 
L 2625 -828 
L 2625 1709 
z
M 2500 2897 
L 4025 2897 
L 4025 3872 
L 2294 3872 
L 2294 4322 
L 4025 4322 
L 4025 5322 
L 4525 5322 
L 4525 4322 
L 6275 4322 
L 6275 3872 
L 4525 3872 
L 4525 2897 
L 6056 2897 
L 6056 2447 
L 2500 2447 
L 2500 2897 
z
M 894 1566 
Q 1725 1684 2269 1778 
Q 2231 1534 2213 1303 
Q 1519 1203 319 1009 
L 219 1472 
Q 619 1888 1172 2791 
Q 647 2756 219 2722 
L 100 3147 
Q 675 3916 1294 5366 
L 1769 5178 
Q 1094 3853 663 3184 
Q 1025 3194 1419 3206 
Q 1631 3569 1863 3997 
L 2325 3766 
Q 1613 2578 894 1566 
z
M 5438 1272 
L 3113 1272 
L 3113 -3 
L 5438 -3 
L 5438 1272 
z
M 75 91 
Q 1231 316 2331 584 
Q 2313 334 2313 109 
Q 1300 -103 213 -391 
L 75 91 
z
" transform="scale(0.015625)"/>
      <path id="MicrosoftYaHei-8bba" d="M 2725 2866 
L 3225 2866 
L 3225 1553 
Q 4425 2072 5188 2753 
L 5538 2341 
Q 4569 1578 3225 1034 
L 3225 216 
Q 3225 -197 3600 -197 
L 4844 -197 
Q 5294 -197 5363 203 
Q 5444 659 5475 1191 
Q 5675 1103 5981 1009 
Q 5925 497 5844 53 
Q 5719 -672 4869 -672 
L 3450 -672 
Q 2725 -672 2725 122 
L 2725 2866 
z
M 4413 5253 
L 4331 5109 
Q 5075 3791 6344 3166 
Q 6163 2947 5981 2697 
Q 4744 3516 4056 4666 
Q 3388 3559 2106 2678 
Q 1925 2941 1763 3109 
Q 3181 3947 3831 5253 
L 4413 5253 
z
M 2206 691 
Q 2225 366 2250 153 
Q 1550 -316 994 -747 
L 700 -328 
Q 913 -153 913 209 
L 913 2678 
L 100 2678 
L 100 3141 
L 1400 3141 
L 1400 122 
Q 1769 372 2206 691 
z
M 856 5197 
Q 1538 4497 1844 4159 
L 1406 3791 
Q 1013 4309 475 4866 
L 856 5197 
z
" transform="scale(0.015625)"/>
      <path id="MicrosoftYaHei-7684" d="M 356 4284 
L 988 4284 
Q 1219 4853 1369 5322 
L 1894 5172 
Q 1697 4694 1513 4284 
L 2763 4284 
L 2763 -691 
L 2263 -691 
L 2263 -203 
L 856 -203 
L 856 -734 
L 356 -734 
L 356 4284 
z
M 2856 3003 
Q 3444 3934 3850 5322 
L 4375 5191 
Q 4216 4719 4050 4303 
L 6063 4303 
Q 5988 1091 5938 259 
Q 5894 -722 4906 -722 
Q 4338 -722 3750 -684 
Q 3713 -372 3650 -128 
L 3669 -128 
Q 4294 -216 4813 -216 
Q 5381 -216 5425 384 
Q 5494 1316 5525 3834 
L 3850 3834 
Q 3578 3231 3288 2772 
Q 3119 2891 2856 3003 
z
M 856 266 
L 2263 266 
L 2263 1847 
L 856 1847 
L 856 266 
z
M 2263 3816 
L 856 3816 
L 856 2297 
L 2263 2297 
L 2263 3816 
z
M 3406 2578 
L 3788 2859 
Q 4481 2041 4894 1441 
L 4431 1116 
Q 3988 1841 3406 2578 
z
" transform="scale(0.015625)"/>
      <path id="MicrosoftYaHei-53cd" d="M 881 4884 
Q 3369 4903 5738 5191 
L 5919 4691 
Q 3750 4503 1369 4434 
L 1369 3372 
L 5638 3372 
L 5638 2909 
Q 5125 1525 4100 591 
Q 5019 -25 6331 -247 
Q 6106 -534 5938 -803 
Q 4616 -422 3697 253 
Q 2738 -475 1406 -878 
Q 1263 -659 1063 -397 
Q 2366 -44 3278 597 
Q 2256 1525 1859 2909 
L 1369 2909 
L 1369 2553 
Q 1369 334 413 -853 
Q 250 -653 63 -453 
Q 881 559 881 2553 
L 881 4884 
z
M 5050 2909 
L 2366 2909 
Q 2794 1678 3681 909 
Q 4622 1722 5050 2909 
z
" transform="scale(0.015625)"/>
      <path id="MicrosoftYaHei-4f8b" d="M 2381 1841 
L 2631 2191 
Q 2916 1997 3247 1738 
Q 3488 2378 3581 3128 
L 2703 3128 
Q 2350 1984 1831 1291 
Q 1700 1491 1531 1678 
Q 2238 2694 2578 4522 
L 1900 4522 
L 1900 4959 
L 4319 4959 
L 4319 4522 
L 3044 4522 
Q 2947 4009 2828 3559 
L 4044 3559 
L 4044 3128 
Q 3788 666 2038 -822 
Q 1900 -634 1694 -416 
Q 2578 297 3063 1303 
Q 2753 1556 2381 1841 
z
M 88 2291 
Q 894 3659 1281 5322 
L 1744 5234 
Q 1578 4534 1325 3853 
L 1325 -809 
L 900 -809 
L 900 2847 
Q 625 2275 288 1716 
Q 213 1966 88 2291 
z
M 5575 5303 
L 6031 5303 
L 6031 84 
Q 6031 -391 5881 -566 
Q 5750 -728 5356 -734 
Q 5088 -741 4488 -722 
Q 4463 -466 4400 -203 
Q 4881 -253 5188 -253 
Q 5431 -259 5500 -166 
Q 5575 -84 5575 234 
L 5575 5303 
z
M 4913 653 
L 4469 653 
L 4469 4322 
L 4913 4322 
L 4913 653 
z
" transform="scale(0.015625)"/>
     </defs>
     <use xlink:href="#MicrosoftYaHei-2212"/>
     <use xlink:href="#MicrosoftYaHei-31" transform="translate(74.169922 0)"/>
     <use xlink:href="#MicrosoftYaHei-20" transform="translate(132.8125 0)"/>
     <use xlink:href="#MicrosoftYaHei-662f" transform="translate(162.402344 0)"/>
     <use xlink:href="#MicrosoftYaHei-4e00" transform="translate(262.402344 0)"/>
     <use xlink:href="#MicrosoftYaHei-4e2a" transform="translate(362.402344 0)"/>
     <use xlink:href="#MicrosoftYaHei-8db3" transform="translate(462.402344 0)"/>
     <use xlink:href="#MicrosoftYaHei-4ee5" transform="translate(562.402344 0)"/>
     <use xlink:href="#MicrosoftYaHei-63a8" transform="translate(662.402344 0)"/>
     <use xlink:href="#MicrosoftYaHei-7ffb" transform="translate(762.402344 0)"/>
     <use xlink:href="#MicrosoftYaHei-7ed3" transform="translate(862.402344 0)"/>
     <use xlink:href="#MicrosoftYaHei-8bba" transform="translate(962.402344 0)"/>
     <use xlink:href="#MicrosoftYaHei-7684" transform="translate(1062.402344 0)"/>
     <use xlink:href="#MicrosoftYaHei-53cd" transform="translate(1162.402344 0)"/>
     <use xlink:href="#MicrosoftYaHei-4f8b" transform="translate(1262.402344 0)"/>
     <use xlink:href="#MicrosoftYaHei-3002" transform="translate(1362.402344 0)"/>
    </g>
   </g>
   <g id="text_8">
    <!-- 存在：找到一个见证；全称：检查全部，发现一个反例即可失败。 -->
    <g style="fill: #17324d" transform="translate(272.5 335.093297) scale(0.11 -0.11)">
     <defs>
      <path id="MicrosoftYaHei-89c1" d="M 2919 4128 
L 3438 4128 
L 3438 3491 
Q 3438 2644 3313 2009 
L 3781 2009 
L 3781 178 
Q 3781 -216 4213 -216 
L 5206 -216 
Q 5625 -216 5688 191 
Q 5750 584 5788 1159 
Q 6038 1059 6300 978 
Q 6244 403 6163 -16 
Q 6050 -672 5275 -672 
L 4088 -672 
Q 3269 -672 3269 91 
L 3269 1797 
Q 3122 1181 2844 784 
Q 2250 -128 494 -866 
Q 356 -678 131 -416 
Q 1781 234 2363 1066 
Q 2919 1797 2919 3497 
L 2919 4128 
z
M 913 5072 
L 5513 5072 
L 5513 1178 
L 5000 1178 
L 5000 4609 
L 1425 4609 
L 1425 1141 
L 913 1141 
L 913 5072 
z
" transform="scale(0.015625)"/>
      <path id="MicrosoftYaHei-ff1b" d="M 1606 3531 
Q 1772 3531 1890 3415 
Q 2009 3300 2009 3138 
Q 2009 2975 1893 2858 
Q 1778 2741 1606 2741 
Q 1434 2741 1318 2858 
Q 1203 2975 1203 3138 
Q 1203 3300 1322 3415 
Q 1441 3531 1606 3531 
z
M 1931 775 
L 1403 -891 
L 966 -891 
L 1350 775 
L 1931 775 
z
" transform="scale(0.015625)"/>
      <path id="MicrosoftYaHei-5168" d="M 369 -103 
L 2950 -103 
L 2950 984 
L 925 984 
L 925 1441 
L 2950 1441 
L 2950 2403 
L 1156 2403 
L 1156 2859 
L 5269 2859 
L 5269 2403 
L 3469 2403 
L 3469 1441 
L 5500 1441 
L 5500 984 
L 3469 984 
L 3469 -103 
L 6044 -103 
L 6044 -566 
L 369 -566 
L 369 -103 
z
M 3656 5234 
L 3531 5078 
Q 4581 3703 6319 3009 
Q 6125 2734 5988 2509 
Q 4338 3322 3219 4691 
Q 2263 3453 394 2428 
Q 269 2641 81 2897 
Q 2013 3866 3000 5234 
L 3656 5234 
z
" transform="scale(0.015625)"/>
      <path id="MicrosoftYaHei-79f0" d="M 81 847 
Q 769 1847 1138 3003 
L 113 3003 
L 113 3428 
L 1150 3428 
L 1150 4372 
Q 725 4322 263 4278 
Q 219 4491 150 4728 
Q 1644 4872 2525 5028 
L 2644 4572 
Q 2156 4497 1594 4428 
L 1594 3428 
L 2406 3428 
L 2406 3278 
Q 2975 4122 3456 5341 
L 3931 5184 
Q 3744 4753 3563 4378 
L 6131 4378 
L 6131 3934 
Q 6000 3603 5644 2884 
Q 5456 2984 5181 3072 
Q 5444 3622 5569 3934 
L 3338 3934 
Q 3006 3291 2694 2841 
Q 2531 3016 2406 3134 
L 2406 3003 
L 1594 3003 
L 1594 2341 
L 1813 2541 
Q 2294 2091 2569 1766 
L 2244 1453 
Q 1906 1859 1594 2178 
L 1594 -853 
L 1150 -853 
L 1150 1897 
Q 794 1003 325 341 
Q 219 603 81 847 
z
M 4006 3628 
L 4481 3628 
L 4481 -34 
Q 4481 -753 3769 -753 
Q 3481 -753 3069 -734 
Q 3038 -503 2994 -228 
Q 3331 -278 3719 -278 
Q 4006 -278 4006 41 
L 4006 3628 
z
M 4806 2434 
L 5238 2628 
Q 5744 1753 6325 416 
L 5838 178 
Q 5325 1416 4806 2434 
z
M 3100 2616 
L 3569 2447 
Q 3150 1172 2656 147 
Q 2456 247 2188 347 
Q 2669 1334 3100 2616 
z
" transform="scale(0.015625)"/>
      <path id="MicrosoftYaHei-68c0" d="M 81 1378 
Q 675 2328 988 3597 
L 144 3597 
L 144 4009 
L 1044 4009 
L 1044 5266 
L 1481 5266 
L 1481 4009 
L 2319 4009 
L 2319 3597 
L 1481 3597 
L 1481 2672 
L 1756 2872 
Q 2094 2459 2350 2097 
L 2006 1828 
Q 1788 2197 1481 2597 
L 1481 -841 
L 1044 -841 
L 1044 2647 
Q 725 1534 281 828 
Q 206 1103 81 1378 
z
M 2163 -122 
L 4544 -122 
Q 4881 791 5244 2203 
L 5750 2059 
Q 5331 741 5013 -122 
L 6188 -122 
L 6188 -566 
L 2163 -566 
L 2163 -122 
z
M 4538 5216 
L 4456 5091 
Q 5119 3891 6344 3166 
Q 6175 2978 6000 2741 
Q 4781 3603 4181 4672 
Q 3438 3466 2475 2666 
Q 2325 2866 2119 3059 
Q 3281 3941 3944 5216 
L 4538 5216 
z
M 2900 2972 
L 5463 2972 
L 5463 2534 
L 2900 2534 
L 2900 2972 
z
M 3656 2197 
L 4094 2303 
Q 4338 1441 4500 578 
L 4031 459 
Q 3875 1441 3656 2197 
z
M 2469 1947 
L 2900 2072 
Q 3138 1378 3388 378 
L 2925 241 
Q 2719 1172 2469 1947 
z
" transform="scale(0.015625)"/>
      <path id="MicrosoftYaHei-67e5" d="M 306 4659 
L 2975 4659 
L 2975 5328 
L 3419 5328 
L 3419 4659 
L 6125 4659 
L 6125 4241 
L 3809 4241 
Q 4797 3488 6306 3103 
Q 6144 2859 6019 2659 
Q 5681 2775 5369 2909 
L 5369 197 
L 4894 197 
L 4894 478 
L 1525 478 
L 1525 191 
L 1050 191 
L 1050 2878 
Q 731 2731 381 2597 
Q 250 2791 88 2997 
Q 1700 3506 2559 4241 
L 306 4241 
L 306 4659 
z
M 156 -141 
L 6244 -141 
L 6244 -591 
L 156 -591 
L 156 -141 
z
M 2975 3066 
L 2975 4138 
Q 2256 3444 1119 2909 
L 5366 2909 
Q 4213 3400 3419 4125 
L 3419 3066 
L 2975 3066 
z
M 1525 909 
L 4894 909 
L 4894 1484 
L 1525 1484 
L 1525 909 
z
M 4894 2478 
L 1525 2478 
L 1525 1909 
L 4894 1909 
L 4894 2478 
z
" transform="scale(0.015625)"/>
      <path id="MicrosoftYaHei-90e8" d="M 6288 1247 
Q 6288 172 5444 84 
Q 5125 47 4594 109 
Q 4563 334 4513 659 
Q 4969 584 5294 584 
Q 5844 584 5794 1341 
Q 5769 2009 4838 2709 
Q 5244 3516 5663 4503 
L 4388 4503 
L 4388 -828 
L 3913 -828 
L 3913 4966 
L 6163 4966 
L 6163 4453 
Q 5919 3822 5406 2816 
Q 6288 2128 6288 1247 
z
M 575 1753 
L 3275 1753 
L 3275 -791 
L 2813 -791 
L 2813 -328 
L 1038 -328 
L 1038 -797 
L 575 -797 
L 575 1753 
z
M 2813 1334 
L 1038 1334 
L 1038 103 
L 2813 103 
L 2813 1334 
z
M 125 2822 
L 2125 2822 
Q 2497 3466 2731 3997 
L 3194 3759 
Q 2922 3284 2616 2822 
L 3706 2822 
L 3706 2403 
L 125 2403 
L 125 2822 
z
M 263 4472 
L 1825 4472 
Q 1703 4753 1456 5159 
L 1888 5359 
Q 2169 4891 2288 4616 
L 1981 4472 
L 3594 4472 
L 3594 4053 
L 263 4053 
L 263 4472 
z
M 681 3728 
L 1063 3959 
Q 1375 3516 1631 3072 
L 1206 2828 
Q 1013 3222 681 3728 
z
" transform="scale(0.015625)"/>
      <path id="MicrosoftYaHei-53d1" d="M 944 3909 
L 2266 3909 
Q 2419 4563 2525 5334 
L 3056 5266 
Q 2950 4556 2797 3909 
L 6250 3909 
L 6250 3447 
L 2678 3447 
Q 2566 3034 2431 2653 
L 5531 2653 
L 5531 2222 
Q 5119 1200 4247 456 
Q 5125 -75 6294 -291 
Q 6013 -603 5856 -816 
Q 4856 -484 3844 153 
Q 3031 -381 1519 -859 
Q 1344 -609 1144 -397 
Q 2681 3 3441 450 
Q 2619 1153 2269 2222 
Q 1584 509 406 -591 
Q 238 -353 75 -166 
Q 1484 1106 2147 3447 
L 413 3447 
L 413 3916 
Q 669 4509 881 5109 
L 1388 4972 
Q 1169 4422 944 3909 
z
M 4981 2222 
L 2722 2222 
Q 3003 1356 3838 731 
Q 4647 1400 4981 2222 
z
M 4019 4903 
L 4294 5253 
Q 4906 4866 5469 4447 
L 5131 4041 
Q 4588 4503 4019 4903 
z
" transform="scale(0.015625)"/>
      <path id="MicrosoftYaHei-73b0" d="M 3900 4141 
L 4388 4141 
L 4388 3091 
Q 4388 2288 4250 1678 
L 4663 1678 
L 4663 103 
Q 4663 -228 5025 -228 
L 5325 -228 
Q 5700 -228 5738 109 
Q 5775 397 5800 928 
Q 6013 841 6313 734 
Q 6263 184 6213 -91 
Q 6119 -666 5394 -666 
L 4931 -666 
Q 4188 -666 4188 41 
L 4188 1425 
Q 4059 981 3850 653 
Q 3319 -203 2094 -834 
Q 1931 -603 1756 -422 
Q 2975 166 3450 941 
Q 3900 1641 3900 3053 
L 3900 4141 
z
M 2588 5034 
L 5781 5034 
L 5781 1284 
L 5294 1284 
L 5294 4572 
L 3075 4572 
L 3075 1197 
L 2588 1197 
L 2588 5034 
z
M 81 384 
Q 531 506 1025 647 
L 1025 2466 
L 200 2466 
L 200 2916 
L 1025 2916 
L 1025 4366 
L 150 4366 
L 150 4816 
L 2400 4816 
L 2400 4366 
L 1513 4366 
L 1513 2916 
L 2313 2916 
L 2313 2466 
L 1513 2466 
L 1513 791 
Q 1956 925 2431 1072 
Q 2444 834 2475 603 
Q 1400 272 256 -97 
L 81 384 
z
" transform="scale(0.015625)"/>
      <path id="MicrosoftYaHei-5373" d="M 2200 1659 
Q 2969 753 3481 53 
L 3081 -241 
Q 2844 84 2600 416 
Q 1669 -16 1044 -328 
Q 838 -447 663 -597 
L 319 -184 
Q 513 9 513 284 
L 513 4903 
L 3031 4903 
L 3031 1678 
L 2556 1678 
L 2556 1834 
L 988 1834 
L 988 184 
Q 1600 441 2325 772 
Q 2088 1091 1838 1403 
L 2200 1659 
z
M 3725 4834 
L 5925 4834 
L 5925 1053 
Q 5925 253 5156 253 
Q 4875 253 4425 259 
Q 4394 528 4338 803 
Q 4806 753 5038 753 
Q 5450 753 5450 1191 
L 5450 4366 
L 4200 4366 
L 4200 -859 
L 3725 -859 
L 3725 4834 
z
M 2556 2272 
L 2556 3153 
L 988 3153 
L 988 2272 
L 2556 2272 
z
M 2556 4466 
L 988 4466 
L 988 3591 
L 2556 3591 
L 2556 4466 
z
" transform="scale(0.015625)"/>
      <path id="MicrosoftYaHei-53ef" d="M 813 3409 
L 3569 3409 
L 3569 941 
L 1306 941 
L 1306 497 
L 813 497 
L 813 3409 
z
M 119 4809 
L 6294 4809 
L 6294 4334 
L 5256 4334 
L 5256 103 
Q 5256 -741 4438 -747 
Q 3850 -747 3294 -741 
Q 3263 -453 3194 -172 
Q 3900 -222 4269 -222 
Q 4731 -222 4731 278 
L 4731 4334 
L 119 4334 
L 119 4809 
z
M 3075 2966 
L 1306 2966 
L 1306 1384 
L 3075 1384 
L 3075 2966 
z
" transform="scale(0.015625)"/>
      <path id="MicrosoftYaHei-5931" d="M 100 -391 
Q 2419 394 2872 1872 
L 188 1872 
L 188 2347 
L 2966 2347 
Q 3003 2778 3022 3609 
L 1375 3609 
Q 1094 3094 738 2634 
Q 594 2766 344 2934 
Q 1088 3853 1444 5059 
L 1931 4909 
Q 1791 4481 1613 4084 
L 3034 4084 
Q 3041 4628 3044 5309 
L 3575 5309 
Q 3563 4638 3550 4084 
L 5888 4084 
L 5888 3609 
L 3538 3609 
Q 3519 2850 3497 2347 
L 6231 2347 
L 6231 1872 
L 3544 1872 
Q 4138 300 6319 -272 
Q 6119 -534 5944 -778 
Q 3844 -28 3250 1503 
Q 2756 72 488 -866 
Q 356 -697 100 -391 
z
" transform="scale(0.015625)"/>
      <path id="MicrosoftYaHei-8d25" d="M 2831 2909 
Q 3456 4091 3769 5322 
L 4238 5178 
Q 4075 4672 3900 4209 
L 6213 4209 
L 6213 3759 
L 5606 3759 
Q 5506 1659 4769 666 
Q 5288 28 6338 -309 
Q 6188 -497 5981 -816 
Q 5000 -366 4463 278 
Q 3913 -303 2856 -878 
Q 2719 -659 2531 -459 
Q 3594 66 4169 691 
Q 3619 1591 3481 3184 
Q 3306 2803 3125 2459 
Q 2963 2741 2831 2909 
z
M 400 4997 
L 2800 4997 
L 2800 1078 
L 2350 1078 
L 2350 4547 
L 850 4547 
L 850 1041 
L 400 1041 
L 400 4997 
z
M 1375 4022 
L 1825 4022 
L 1825 2691 
Q 1825 1666 1700 1028 
L 1900 1191 
Q 2500 578 2906 84 
L 2506 -216 
Q 2069 359 1650 809 
Q 1419 -91 444 -809 
Q 294 -609 94 -397 
Q 863 97 1119 697 
Q 1375 1266 1375 2509 
L 1375 4022 
z
M 4475 1091 
Q 5044 1991 5119 3759 
L 3838 3759 
Q 3963 1984 4475 1091 
z
" transform="scale(0.015625)"/>
     </defs>
     <use xlink:href="#MicrosoftYaHei-5b58"/>
     <use xlink:href="#MicrosoftYaHei-5728" transform="translate(100 0)"/>
     <use xlink:href="#MicrosoftYaHei-ff1a" transform="translate(200 0)"/>
     <use xlink:href="#MicrosoftYaHei-627e" transform="translate(300 0)"/>
     <use xlink:href="#MicrosoftYaHei-5230" transform="translate(400 0)"/>
     <use xlink:href="#MicrosoftYaHei-4e00" transform="translate(500 0)"/>
     <use xlink:href="#MicrosoftYaHei-4e2a" transform="translate(600 0)"/>
     <use xlink:href="#MicrosoftYaHei-89c1" transform="translate(700 0)"/>
     <use xlink:href="#MicrosoftYaHei-8bc1" transform="translate(800 0)"/>
     <use xlink:href="#MicrosoftYaHei-ff1b" transform="translate(900 0)"/>
     <use xlink:href="#MicrosoftYaHei-5168" transform="translate(1000 0)"/>
     <use xlink:href="#MicrosoftYaHei-79f0" transform="translate(1100 0)"/>
     <use xlink:href="#MicrosoftYaHei-ff1a" transform="translate(1200 0)"/>
     <use xlink:href="#MicrosoftYaHei-68c0" transform="translate(1300 0)"/>
     <use xlink:href="#MicrosoftYaHei-67e5" transform="translate(1400 0)"/>
     <use xlink:href="#MicrosoftYaHei-5168" transform="translate(1500 0)"/>
     <use xlink:href="#MicrosoftYaHei-90e8" transform="translate(1600 0)"/>
     <use xlink:href="#MicrosoftYaHei-ff0c" transform="translate(1700 0)"/>
     <use xlink:href="#MicrosoftYaHei-53d1" transform="translate(1800 0)"/>
     <use xlink:href="#MicrosoftYaHei-73b0" transform="translate(1900 0)"/>
     <use xlink:href="#MicrosoftYaHei-4e00" transform="translate(2000 0)"/>
     <use xlink:href="#MicrosoftYaHei-4e2a" transform="translate(2100 0)"/>
     <use xlink:href="#MicrosoftYaHei-53cd" transform="translate(2200 0)"/>
     <use xlink:href="#MicrosoftYaHei-4f8b" transform="translate(2300 0)"/>
     <use xlink:href="#MicrosoftYaHei-5373" transform="translate(2400 0)"/>
     <use xlink:href="#MicrosoftYaHei-53ef" transform="translate(2500 0)"/>
     <use xlink:href="#MicrosoftYaHei-5931" transform="translate(2600 0)"/>
     <use xlink:href="#MicrosoftYaHei-8d25" transform="translate(2700 0)"/>
     <use xlink:href="#MicrosoftYaHei-3002" transform="translate(2800 0)"/>
    </g>
   </g>
  </g>
 </g>
 <defs>
  <clipPath id="pddda2ebb66">
   <rect x="12.96" y="3.744" width="838.08" height="359.424"/>
  </clipPath>
 </defs>
</svg>
