<?xml version="1.0" encoding="utf-8" standalone="no"?>
<!DOCTYPE svg PUBLIC "-//W3C//DTD SVG 1.1//EN"
  "http://www.w3.org/Graphics/SVG/1.1/DTD/svg11.dtd">
<svg xmlns:xlink="http://www.w3.org/1999/xlink" width="864pt" height="396pt" viewBox="0 0 864 396" xmlns="http://www.w3.org/2000/svg" version="1.1">
 <metadata>
  <rdf:RDF xmlns:dc="http://purl.org/dc/elements/1.1/" xmlns:cc="http://creativecommons.org/ns#" xmlns:rdf="http://www.w3.org/1999/02/22-rdf-syntax-ns#">
   <cc:Work>
    <dc:type rdf:resource="http://purl.org/dc/dcmitype/StillImage"/>
    <dc:date>2026-10-07T16:55:53.668426</dc:date>
    <dc:format>image/svg+xml</dc:format>
    <dc:creator>
     <cc:Agent>
      <dc:title>Matplotlib v3.10.9, https://matplotlib.org/</dc:title>
     </cc:Agent>
    </dc:creator>
   </cc:Work>
  </rdf:RDF>
 </metadata>
 <defs>
  <style type="text/css">*{stroke-linejoin: round; stroke-linecap: butt}</style>
 </defs>
 <g id="figure_1">
  <g id="patch_1">
   <path d="M 0 396 
L 864 396 
L 864 0 
L 0 0 
z
" style="fill: #f8fafc"/>
  </g>
  <g id="axes_1">
   <g id="patch_2">
    <path d="M 103.752 157.4064 
C 108.752882 157.4064 113.549614 155.440012 117.085771 151.94031 
C 120.621929 148.440607 122.6088 143.693326 122.6088 138.744 
C 122.6088 133.794674 120.621929 129.047393 117.085771 125.54769 
C 113.549614 122.047988 108.752882 120.0816 103.752 120.0816 
C 98.751118 120.0816 93.954386 122.047988 90.418229 125.54769 
C 86.882071 129.047393 84.8952 133.794674 84.8952 138.744 
C 84.8952 143.693326 86.882071 148.440607 90.418229 151.94031 
C 93.954386 155.440012 98.751118 157.4064 103.752 157.4064 
z
" clip-path="url(#p7aa7ee9e8e)" style="fill: #ffffff; stroke: #059669; stroke-width: 1.5; stroke-linejoin: miter"/>
   </g>
   <g id="patch_3">
    <path d="M 103.752 267.9984 
C 108.752882 267.9984 113.549614 266.032012 117.085771 262.53231 
C 120.621929 259.032607 122.6088 254.285326 122.6088 249.336 
C 122.6088 244.386674 120.621929 239.639393 117.085771 236.13969 
C 113.549614 232.639988 108.752882 230.6736 103.752 230.6736 
C 98.751118 230.6736 93.954386 232.639988 90.418229 236.13969 
C 86.882071 239.639393 84.8952 244.386674 84.8952 249.336 
C 84.8952 254.285326 86.882071 259.032607 90.418229 262.53231 
C 93.954386 266.032012 98.751118 267.9984 103.752 267.9984 
z
" clip-path="url(#p7aa7ee9e8e)" style="fill: #ffffff; stroke: #059669; stroke-width: 1.5; stroke-linejoin: miter"/>
   </g>
   <g id="patch_4">
    <path d="M 334.224 212.7024 
C 339.224882 212.7024 344.021614 210.736012 347.557771 207.23631 
C 351.093929 203.736607 353.0808 198.989326 353.0808 194.04 
C 353.0808 189.090674 351.093929 184.343393 347.557771 180.84369 
C 344.021614 177.343988 339.224882 175.3776 334.224 175.3776 
C 329.223118 175.3776 324.426386 177.343988 320.890229 180.84369 
C 317.354071 184.343393 315.3672 189.090674 315.3672 194.04 
C 315.3672 198.989326 317.354071 203.736607 320.890229 207.23631 
C 324.426386 210.736012 329.223118 212.7024 334.224 212.7024 
z
" clip-path="url(#p7aa7ee9e8e)" style="fill: #ffffff; stroke: #2563eb; stroke-width: 1.5; stroke-linejoin: miter"/>
   </g>
   <g id="patch_5">
    <path d="M 526.284 212.7024 
C 531.284882 212.7024 536.081614 210.736012 539.617771 207.23631 
C 543.153929 203.736607 545.1408 198.989326 545.1408 194.04 
C 545.1408 189.090674 543.153929 184.343393 539.617771 180.84369 
C 536.081614 177.343988 531.284882 175.3776 526.284 175.3776 
C 521.283118 175.3776 516.486386 177.343988 512.950229 180.84369 
C 509.414071 184.343393 507.4272 189.090674 507.4272 194.04 
C 507.4272 198.989326 509.414071 203.736607 512.950229 207.23631 
C 516.486386 210.736012 521.283118 212.7024 526.284 212.7024 
z
" clip-path="url(#p7aa7ee9e8e)" style="fill: #ffffff; stroke: #2563eb; stroke-width: 1.5; stroke-linejoin: miter"/>
   </g>
   <g id="text_1">
    <!-- 拓扑排序：删除依赖，让入度变成 0 -->
    <g style="fill: #17324d" transform="translate(37.404 31.608) scale(0.18 -0.18)">
     <defs>
      <path id="MicrosoftYaHei-62d3" d="M 1644 1147 
Q 3041 2334 3728 4378 
L 2400 4378 
L 2400 4866 
L 6144 4866 
L 6144 4378 
L 4259 4378 
Q 3947 3375 3438 2528 
L 5950 2528 
L 5950 -778 
L 5475 -778 
L 5475 -272 
L 3375 -272 
L 3375 -778 
L 2900 -778 
L 2900 1738 
Q 2522 1253 2069 828 
Q 1913 978 1644 1147 
z
M 106 1884 
Q 553 2022 1038 2178 
L 1038 3597 
L 181 3597 
L 181 4028 
L 1038 4028 
L 1038 5266 
L 1538 5266 
L 1538 4028 
L 2363 4028 
L 2363 3597 
L 1538 3597 
L 1538 2341 
Q 1928 2472 2344 2616 
Q 2369 2303 2381 2122 
Q 1959 1978 1538 1831 
L 1538 -28 
Q 1538 -734 931 -753 
Q 663 -766 225 -753 
Q 188 -491 131 -234 
Q 563 -272 763 -266 
Q 1038 -259 1038 53 
L 1038 1656 
Q 619 1509 200 1359 
L 106 1884 
z
M 5475 2109 
L 3375 2109 
L 3375 134 
L 5475 134 
L 5475 2109 
z
" transform="scale(0.015625)"/>
      <path id="MicrosoftYaHei-6251" d="M 94 1578 
Q 781 1778 1413 1972 
L 1413 3397 
L 275 3397 
L 275 3866 
L 1413 3866 
L 1413 5259 
L 1913 5259 
L 1913 3866 
L 2925 3866 
L 2925 3397 
L 1913 3397 
L 1913 2128 
Q 2488 2316 3006 2497 
Q 3025 2203 3056 2003 
Q 2450 1803 1913 1622 
L 1913 47 
Q 1913 -797 1156 -797 
Q 888 -797 400 -784 
Q 375 -528 325 -266 
Q 756 -316 1056 -316 
Q 1413 -316 1413 103 
L 1413 1459 
Q 775 1241 244 1059 
L 94 1578 
z
M 3719 -809 
L 3719 5241 
L 4231 5241 
L 4231 3434 
L 4469 3641 
Q 5506 2703 6256 1853 
L 5856 1478 
Q 5081 2416 4231 3216 
L 4231 -809 
L 3719 -809 
z
" transform="scale(0.015625)"/>
      <path id="MicrosoftYaHei-6392" d="M 4375 5309 
L 4863 5309 
L 4863 4159 
L 6188 4159 
L 6188 3684 
L 4863 3684 
L 4863 2609 
L 6038 2609 
L 6038 2134 
L 4863 2134 
L 4863 1047 
L 6294 1047 
L 6294 572 
L 4863 572 
L 4863 -841 
L 4375 -841 
L 4375 5309 
z
M 1844 1047 
L 3138 1047 
L 3138 2134 
L 2150 2134 
L 2150 2609 
L 3138 2609 
L 3138 3684 
L 2163 3684 
L 2163 4159 
L 3138 4159 
L 3138 5309 
L 3625 5309 
L 3625 -841 
L 3138 -841 
L 3138 572 
L 1844 572 
L 1844 1047 
z
M 131 4166 
L 875 4166 
L 875 5316 
L 1350 5316 
L 1350 4166 
L 1969 4166 
L 1969 3728 
L 1350 3728 
L 1350 2563 
Q 1650 2716 1938 2872 
Q 1956 2603 1988 2372 
Q 1681 2216 1350 2044 
L 1350 -134 
Q 1350 -772 669 -778 
Q 481 -784 156 -778 
Q 131 -528 75 -259 
Q 419 -284 613 -284 
Q 875 -284 875 3 
L 875 1797 
Q 525 1616 150 1416 
L 88 1966 
Q 491 2144 875 2328 
L 875 3728 
L 131 3728 
L 131 4166 
z
" transform="scale(0.015625)"/>
      <path id="MicrosoftYaHei-5e8f" d="M 1438 1966 
L 3634 1966 
Q 3053 2394 2525 2722 
L 2825 3041 
Q 3294 2756 3719 2478 
L 4850 3147 
L 1806 3147 
L 1806 3597 
L 5756 3597 
L 5756 3141 
L 4141 2191 
Q 4219 2138 4294 2084 
L 4128 1966 
L 6181 1966 
L 6181 1503 
L 5638 384 
Q 5450 484 5175 609 
L 5619 1509 
L 4119 1509 
L 4119 22 
Q 4119 -734 3400 -734 
Q 3019 -734 2463 -722 
Q 2438 -509 2388 -184 
Q 2881 -253 3250 -253 
Q 3606 -253 3606 103 
L 3606 1509 
L 1438 1509 
L 1438 1966 
z
M 2981 5147 
L 3431 5391 
Q 3675 5078 3881 4747 
L 3584 4572 
L 6244 4572 
L 6244 4116 
L 1263 4116 
L 1263 2416 
Q 1263 191 406 -872 
Q 256 -666 50 -447 
Q 738 353 738 2291 
L 738 4572 
L 3369 4572 
Q 3178 4884 2981 5147 
z
" transform="scale(0.015625)"/>
      <path id="MicrosoftYaHei-ff1a" d="M 1606 3531 
Q 1772 3531 1890 3415 
Q 2009 3300 2009 3138 
Q 2009 2975 1893 2858 
Q 1778 2741 1606 2741 
Q 1434 2741 1318 2858 
Q 1203 2975 1203 3138 
Q 1203 3300 1322 3415 
Q 1441 3531 1606 3531 
z
M 1606 716 
Q 1772 716 1890 600 
Q 2009 484 2009 319 
Q 2009 150 1890 36 
Q 1772 -78 1606 -78 
Q 1441 -78 1322 36 
Q 1203 150 1203 319 
Q 1203 484 1322 600 
Q 1441 716 1606 716 
z
" transform="scale(0.015625)"/>
      <path id="MicrosoftYaHei-5220" d="M 2531 5047 
L 3969 5047 
L 3969 2647 
L 4431 2647 
L 4431 2247 
L 3969 2247 
L 3969 -141 
Q 3969 -728 3456 -728 
Q 3231 -728 2925 -709 
Q 2906 -491 2850 -278 
Q 3106 -322 3331 -328 
Q 3563 -334 3563 -41 
L 3563 2247 
L 2938 2247 
L 2938 1603 
Q 2938 47 2363 -841 
Q 2188 -616 2050 -491 
Q 2531 241 2531 1603 
L 2531 2247 
L 2013 2247 
L 2013 34 
Q 2013 -578 1494 -578 
Q 1288 -578 1031 -559 
Q 1006 -341 956 -128 
Q 1238 -172 1388 -172 
Q 1606 -172 1606 97 
L 1606 2247 
L 988 2247 
L 988 1528 
Q 988 84 394 -828 
Q 219 -603 81 -478 
Q 581 303 581 1634 
L 581 2247 
L 81 2247 
L 81 2647 
L 581 2647 
L 581 5034 
L 2013 5034 
L 2013 2647 
L 2531 2647 
L 2531 5047 
z
M 5525 5303 
L 5981 5303 
L 5981 -59 
Q 5981 -734 5388 -734 
Q 5031 -734 4556 -722 
Q 4531 -466 4469 -203 
Q 4919 -247 5188 -253 
Q 5525 -259 5525 84 
L 5525 5303 
z
M 5000 653 
L 4563 653 
L 4563 4834 
L 5000 4834 
L 5000 653 
z
M 3563 4659 
L 2938 4659 
L 2938 2647 
L 3563 2647 
L 3563 4659 
z
M 1606 4647 
L 988 4647 
L 988 2647 
L 1606 2647 
L 1606 4647 
z
" transform="scale(0.015625)"/>
      <path id="MicrosoftYaHei-9664" d="M 2331 1941 
L 3906 1941 
L 3906 2728 
L 2738 2728 
L 2738 3028 
Q 2513 2841 2275 2666 
Q 2150 2872 1969 3091 
Q 3288 3984 3956 5191 
L 4469 5191 
L 4388 5016 
Q 5050 3891 6375 3266 
Q 6213 2972 6100 2753 
Q 4838 3497 4138 4584 
Q 3594 3772 2888 3166 
L 5450 3166 
L 5450 2728 
L 4381 2728 
L 4381 1941 
L 6063 1941 
L 6063 1503 
L 4381 1503 
L 4381 -47 
Q 4381 -766 3706 -766 
Q 3444 -766 3006 -759 
Q 2975 -541 2919 -241 
Q 3256 -291 3563 -291 
Q 3906 -291 3906 59 
L 3906 1503 
L 2331 1503 
L 2331 1941 
z
M 2181 1791 
Q 2356 609 1613 459 
Q 1381 409 1000 453 
Q 950 709 869 978 
Q 1163 903 1425 928 
Q 1850 972 1700 1778 
Q 1625 2216 1156 2828 
Q 1388 3628 1656 4553 
L 863 4553 
L 863 -853 
L 400 -853 
L 400 4991 
L 2163 4991 
L 2163 4553 
Q 1863 3616 1631 2909 
Q 2113 2259 2181 1791 
z
M 4763 853 
L 5113 1159 
Q 5669 609 6269 -47 
L 5881 -397 
Q 5238 347 4763 853 
z
M 2856 1209 
L 3269 984 
Q 2825 166 2319 -509 
Q 2156 -384 1925 -222 
Q 2438 378 2856 1209 
z
" transform="scale(0.015625)"/>
      <path id="MicrosoftYaHei-4f9d" d="M 5681 3141 
L 6038 2753 
Q 5388 2222 4644 1688 
Q 5250 531 6331 -3 
Q 6106 -253 5938 -478 
Q 4159 622 3675 3138 
Q 3413 2719 3100 2322 
L 3100 22 
Q 3631 322 4194 666 
Q 4238 366 4294 159 
Q 3650 -197 3094 -559 
Q 2906 -691 2731 -853 
L 2394 -422 
Q 2613 -216 2613 141 
L 2613 1759 
Q 2153 1266 1600 816 
Q 1494 1034 1344 1297 
Q 2784 2416 3497 3847 
L 1738 3847 
L 1738 4272 
L 6263 4272 
L 6263 3847 
L 4066 3847 
Q 4038 3791 4009 3731 
Q 4153 2831 4441 2125 
Q 5100 2613 5681 3141 
z
M 69 2272 
Q 906 3522 1369 5303 
L 1831 5166 
Q 1578 4341 1275 3625 
L 1275 -841 
L 825 -841 
L 825 2681 
Q 559 2188 263 1759 
Q 175 2022 69 2272 
z
M 3338 5116 
L 3750 5372 
Q 4075 4966 4338 4591 
L 3900 4303 
Q 3638 4741 3338 5116 
z
" transform="scale(0.015625)"/>
      <path id="MicrosoftYaHei-8d56" d="M 1413 -859 
L 1413 1022 
Q 900 97 219 -541 
Q 175 -266 81 -9 
Q 831 678 1331 1641 
L 850 1641 
L 850 1503 
L 425 1503 
L 425 3547 
L 1413 3547 
L 1413 4178 
L 213 4178 
L 213 4591 
L 1413 4591 
L 1413 5316 
L 1850 5316 
L 1850 4591 
L 3063 4591 
L 3063 4178 
L 1850 4178 
L 1850 3547 
L 2838 3547 
L 2838 1503 
L 2413 1503 
L 2413 1641 
L 1850 1641 
L 1850 1047 
L 2044 1297 
Q 2650 847 3031 503 
L 2725 128 
Q 2344 522 1850 928 
L 1850 -859 
L 1413 -859 
z
M 3313 3447 
L 4581 3447 
L 5106 4328 
L 3969 4328 
Q 3625 3778 3225 3366 
Q 3050 3534 2869 3659 
Q 3563 4384 4000 5334 
L 4463 5241 
Q 4344 4991 4219 4759 
L 5656 4759 
L 5656 4353 
L 5088 3447 
L 6013 3447 
L 6013 678 
L 5569 678 
L 5569 3016 
L 3756 3016 
L 3756 678 
L 3313 678 
L 3313 3447 
z
M 4438 2778 
L 4881 2778 
Q 4888 1728 4850 1384 
Q 4825 1028 4719 728 
Q 5531 153 6288 -466 
L 5963 -841 
Q 5238 -184 4531 322 
Q 4088 -441 3031 -859 
Q 2900 -647 2738 -434 
Q 4350 78 4419 1459 
Q 4444 1809 4438 2778 
z
M 850 2041 
L 1413 2041 
L 1413 3147 
L 850 3147 
L 850 2041 
z
M 2413 3147 
L 1850 3147 
L 1850 2041 
L 2413 2041 
L 2413 3147 
z
" transform="scale(0.015625)"/>
      <path id="MicrosoftYaHei-ff0c" d="M 1931 775 
L 1403 -891 
L 966 -891 
L 1350 775 
L 1931 775 
z
" transform="scale(0.015625)"/>
      <path id="MicrosoftYaHei-8ba9" d="M 2138 28 
L 3706 28 
L 3706 5241 
L 4250 5241 
L 4250 3416 
L 5988 3416 
L 5988 2947 
L 4250 2947 
L 4250 28 
L 6306 28 
L 6306 -447 
L 2138 -447 
L 2138 28 
z
M 2513 1234 
Q 2575 916 2638 684 
Q 2038 272 1488 -166 
Q 1313 -316 1150 -528 
L 738 -116 
Q 981 109 981 534 
L 981 2697 
L 81 2697 
L 81 3172 
L 1488 3172 
L 1488 453 
Q 1938 778 2513 1234 
z
M 1069 5153 
Q 1419 4841 2131 4128 
L 1719 3741 
Q 1131 4409 713 4809 
L 1069 5153 
z
" transform="scale(0.015625)"/>
      <path id="MicrosoftYaHei-5165" d="M 1831 4947 
L 2244 5241 
Q 2944 4809 3781 3028 
Q 4950 472 6319 -91 
L 5881 -641 
Q 4513 172 3350 2784 
Q 3256 2994 3166 3184 
Q 2441 700 469 -678 
Q 300 -428 88 -209 
Q 2116 1069 2819 3834 
Q 2328 4653 1831 4947 
z
" transform="scale(0.015625)"/>
      <path id="MicrosoftYaHei-5ea6" d="M 1550 1216 
L 1550 1628 
L 5469 1628 
L 5469 1222 
Q 4903 613 4147 163 
Q 5050 -200 6263 -309 
L 6019 -797 
Q 4625 -603 3644 -109 
Q 2600 -619 1250 -866 
Q 1150 -666 994 -416 
Q 2231 -222 3166 166 
Q 2497 600 2066 1216 
L 1550 1216 
z
M 1363 3541 
L 2294 3541 
L 2294 4066 
L 2769 4066 
L 2769 3541 
L 4538 3541 
L 4538 4072 
L 5013 4072 
L 5013 3541 
L 6150 3541 
L 6150 3128 
L 5013 3128 
L 5013 1928 
L 4538 1928 
L 4538 2147 
L 2769 2147 
L 2769 1922 
L 2294 1922 
L 2294 3128 
L 1363 3128 
L 1363 3541 
z
M 3025 5172 
L 3481 5391 
Q 3694 5056 3909 4634 
L 6213 4634 
L 6213 4197 
L 1225 4197 
L 1225 2316 
Q 1225 178 394 -872 
Q 238 -666 38 -447 
Q 725 397 738 2347 
L 738 4634 
L 3331 4634 
Q 3188 4909 3025 5172 
z
M 2769 2547 
L 4538 2547 
L 4538 3128 
L 2769 3128 
L 2769 2547 
z
M 4819 1216 
L 2588 1216 
Q 3031 728 3656 391 
Q 4334 741 4819 1216 
z
" transform="scale(0.015625)"/>
      <path id="MicrosoftYaHei-53d8" d="M 838 1634 
L 838 2066 
L 5088 2066 
L 5088 1634 
Q 4494 853 3659 309 
Q 4675 -178 6313 -297 
Q 6088 -609 5950 -822 
Q 4275 -594 3178 34 
Q 2122 -509 425 -866 
Q 269 -622 106 -403 
Q 1741 -122 2728 328 
Q 2047 838 1553 1634 
L 838 1634 
z
M 231 4534 
L 3081 4534 
Q 2888 4884 2725 5141 
L 3175 5359 
Q 3481 4884 3600 4659 
L 3359 4534 
L 6200 4534 
L 6200 4091 
L 4181 4091 
L 4181 2353 
L 3700 2353 
L 3700 4091 
L 2694 4091 
L 2694 2341 
L 2213 2341 
L 2213 4091 
L 231 4091 
L 231 4534 
z
M 4475 1634 
L 2116 1634 
Q 2575 953 3197 572 
Q 3947 1016 4475 1634 
z
M 4556 3434 
L 4900 3728 
Q 5700 3009 6213 2459 
L 5825 2116 
Q 5219 2797 4556 3434 
z
M 1381 3741 
L 1756 3422 
Q 1119 2691 500 2097 
Q 344 2272 138 2447 
Q 794 3009 1381 3741 
z
" transform="scale(0.015625)"/>
      <path id="MicrosoftYaHei-6210" d="M 2750 -347 
Q 3472 138 4038 781 
Q 3675 1703 3609 3759 
L 1250 3759 
L 1250 2809 
L 3050 2809 
Q 3013 1616 2950 803 
Q 2875 -59 2113 -59 
Q 1856 -59 1431 -34 
Q 1394 197 1331 484 
Q 1769 422 2063 422 
Q 2425 422 2469 922 
Q 2519 1497 2544 2347 
L 1247 2347 
Q 1197 175 369 -866 
Q 213 -653 44 -434 
Q 750 503 750 2528 
L 750 4222 
L 3591 4222 
Q 3569 4716 3550 5291 
L 4069 5291 
Q 4066 4850 4084 4222 
L 6238 4222 
L 6238 3759 
L 4100 3759 
Q 4163 2078 4409 1247 
Q 5016 2069 5406 3109 
L 5900 2903 
Q 5363 1631 4609 691 
Q 5069 -244 5506 -244 
Q 5666 -244 5750 47 
Q 5838 503 5888 984 
Q 6156 878 6363 809 
Q 6269 141 6156 -284 
Q 6038 -741 5631 -778 
Q 5250 -803 4900 -522 
Q 4522 -231 4256 278 
Q 3728 -291 3106 -722 
Q 2944 -534 2750 -347 
z
M 4544 4984 
L 4806 5309 
Q 5331 5009 5788 4684 
L 5488 4309 
Q 5038 4666 4544 4984 
z
" transform="scale(0.015625)"/>
      <path id="MicrosoftYaHei-20" transform="scale(0.015625)"/>
      <path id="MicrosoftYaHei-30" d="M 284 2325 
Q 284 3606 709 4264 
Q 1134 4922 1941 4922 
Q 3478 4922 3478 2441 
Q 3478 1216 3045 567 
Q 2613 -81 1831 -81 
Q 1094 -81 689 534 
Q 284 1150 284 2325 
z
M 909 2353 
Q 909 425 1888 425 
Q 2850 425 2850 2384 
Q 2850 4413 1906 4413 
Q 909 4413 909 2353 
z
" transform="scale(0.015625)"/>
     </defs>
     <use xlink:href="#MicrosoftYaHei-62d3"/>
     <use xlink:href="#MicrosoftYaHei-6251" transform="translate(100 0)"/>
     <use xlink:href="#MicrosoftYaHei-6392" transform="translate(200 0)"/>
     <use xlink:href="#MicrosoftYaHei-5e8f" transform="translate(300 0)"/>
     <use xlink:href="#MicrosoftYaHei-ff1a" transform="translate(400 0)"/>
     <use xlink:href="#MicrosoftYaHei-5220" transform="translate(500 0)"/>
     <use xlink:href="#MicrosoftYaHei-9664" transform="translate(600 0)"/>
     <use xlink:href="#MicrosoftYaHei-4f9d" transform="translate(700 0)"/>
     <use xlink:href="#MicrosoftYaHei-8d56" transform="translate(800 0)"/>
     <use xlink:href="#MicrosoftYaHei-ff0c" transform="translate(900 0)"/>
     <use xlink:href="#MicrosoftYaHei-8ba9" transform="translate(1000 0)"/>
     <use xlink:href="#MicrosoftYaHei-5165" transform="translate(1100 0)"/>
     <use xlink:href="#MicrosoftYaHei-5ea6" transform="translate(1200 0)"/>
     <use xlink:href="#MicrosoftYaHei-53d8" transform="translate(1300 0)"/>
     <use xlink:href="#MicrosoftYaHei-6210" transform="translate(1400 0)"/>
     <use xlink:href="#MicrosoftYaHei-20" transform="translate(1500 0)"/>
     <use xlink:href="#MicrosoftYaHei-30" transform="translate(1529.589844 0)"/>
    </g>
   </g>
   <g id="text_2">
    <!-- 沿用本节样例：0→2、1→2、2→3；一种合法顺序为 0、1、2、3。 -->
    <g style="fill: #526579" transform="translate(37.404 60.6384) scale(0.105 -0.105)">
     <defs>
      <path id="MicrosoftYaHei-6cbf" d="M 2306 2134 
L 5644 2134 
L 5644 -822 
L 5169 -822 
L 5169 -403 
L 2781 -403 
L 2781 -828 
L 2306 -828 
L 2306 2134 
z
M 5169 1703 
L 2781 1703 
L 2781 28 
L 5169 28 
L 5169 1703 
z
M 5625 3128 
Q 5913 3128 6319 3134 
L 6231 2666 
L 5544 2666 
Q 4813 2666 4813 3409 
L 4813 4559 
L 3119 4559 
L 3119 4153 
Q 3119 3441 2900 3072 
Q 2681 2666 2125 2328 
Q 1956 2522 1781 2722 
Q 2294 3009 2481 3328 
Q 2638 3609 2638 4184 
L 2638 5022 
L 5294 5022 
L 5294 3453 
Q 5294 3128 5625 3128 
z
M 1075 1797 
Q 1375 1666 1581 1603 
Q 1338 672 900 -803 
L 356 -609 
Q 769 484 1075 1797 
z
M 694 5159 
Q 1263 4772 1894 4259 
Q 1694 4034 1538 3866 
Q 956 4372 394 4803 
L 694 5159 
z
M 400 3516 
Q 975 3097 1488 2666 
Q 1294 2459 1138 2272 
Q 463 2878 88 3159 
L 400 3516 
z
" transform="scale(0.015625)"/>
      <path id="MicrosoftYaHei-7528" d="M 3088 -734 
L 3088 1253 
L 1269 1253 
Q 1163 -47 513 -903 
Q 350 -697 144 -472 
Q 550 103 694 803 
Q 831 1478 831 2716 
L 831 4947 
L 5925 4947 
L 5925 -22 
Q 5925 -766 5219 -766 
Q 4788 -766 4250 -747 
Q 4219 -541 4156 -228 
Q 4700 -266 5038 -266 
Q 5425 -266 5425 103 
L 5425 1253 
L 3588 1253 
L 3588 -734 
L 3088 -734 
z
M 3588 1703 
L 5425 1703 
L 5425 2872 
L 3588 2872 
L 3588 1703 
z
M 5425 4484 
L 3588 4484 
L 3588 3322 
L 5425 3322 
L 5425 4484 
z
M 1303 1703 
L 3088 1703 
L 3088 2872 
L 1331 2872 
Q 1350 2266 1303 1703 
z
M 1331 4484 
L 1331 3322 
L 3088 3322 
L 3088 4484 
L 1331 4484 
z
" transform="scale(0.015625)"/>
      <path id="MicrosoftYaHei-672c" d="M 6281 803 
Q 6119 641 5856 366 
Q 4344 1531 3444 3353 
L 3444 878 
L 4875 878 
L 4875 441 
L 3444 441 
L 3444 -841 
L 2956 -841 
L 2956 441 
L 1475 441 
L 1475 878 
L 2956 878 
L 2956 3353 
Q 2159 1766 513 291 
Q 269 522 100 666 
Q 1878 2125 2759 3753 
L 238 3753 
L 238 4216 
L 2956 4216 
L 2956 5341 
L 3444 5341 
L 3444 4216 
L 6163 4216 
L 6163 3753 
L 3622 3753 
Q 4616 1884 6281 803 
z
" transform="scale(0.015625)"/>
      <path id="MicrosoftYaHei-8282" d="M 438 2928 
L 5600 2928 
Q 5538 1622 5475 922 
Q 5406 3 4400 3 
Q 3806 3 3425 41 
Q 3388 341 3325 584 
Q 3869 497 4338 497 
Q 4944 497 4981 1084 
Q 5038 1553 5075 2472 
L 2569 2472 
L 2569 -834 
L 2050 -834 
L 2050 2472 
L 438 2472 
L 438 2928 
z
M 125 4478 
L 1856 4478 
L 1856 5303 
L 2356 5303 
L 2356 4478 
L 4031 4478 
L 4031 5303 
L 4531 5303 
L 4531 4478 
L 6263 4478 
L 6263 4022 
L 4531 4022 
L 4531 3322 
L 4031 3322 
L 4031 4022 
L 2356 4022 
L 2356 3328 
L 1856 3328 
L 1856 4022 
L 125 4022 
L 125 4478 
z
" transform="scale(0.015625)"/>
      <path id="MicrosoftYaHei-6837" d="M 2150 1197 
L 3981 1197 
L 3981 2222 
L 2619 2222 
L 2619 2659 
L 3981 2659 
L 3981 3641 
L 2475 3641 
L 2475 4078 
L 4406 4078 
Q 4925 4828 5188 5316 
L 5650 5022 
Q 5325 4578 4931 4078 
L 6075 4078 
L 6075 3641 
L 4469 3641 
L 4469 2659 
L 5900 2659 
L 5900 2222 
L 4469 2222 
L 4469 1197 
L 6275 1197 
L 6275 759 
L 4469 759 
L 4469 -872 
L 3981 -872 
L 3981 759 
L 2150 759 
L 2150 1197 
z
M 94 1384 
Q 700 2316 1038 3603 
L 163 3603 
L 163 4022 
L 1088 4022 
L 1088 5259 
L 1544 5259 
L 1544 4022 
L 2275 4022 
L 2275 3603 
L 1544 3603 
L 1544 2622 
L 1794 2847 
Q 2200 2447 2594 2022 
L 2238 1697 
Q 1756 2247 1544 2472 
L 1544 -872 
L 1088 -872 
L 1088 2559 
Q 750 1547 319 841 
Q 225 1109 94 1384 
z
M 2831 5047 
L 3200 5322 
Q 3694 4766 3906 4466 
L 3481 4172 
Q 3113 4703 2831 5047 
z
" transform="scale(0.015625)"/>
      <path id="MicrosoftYaHei-4f8b" d="M 2381 1841 
L 2631 2191 
Q 2916 1997 3247 1738 
Q 3488 2378 3581 3128 
L 2703 3128 
Q 2350 1984 1831 1291 
Q 1700 1491 1531 1678 
Q 2238 2694 2578 4522 
L 1900 4522 
L 1900 4959 
L 4319 4959 
L 4319 4522 
L 3044 4522 
Q 2947 4009 2828 3559 
L 4044 3559 
L 4044 3128 
Q 3788 666 2038 -822 
Q 1900 -634 1694 -416 
Q 2578 297 3063 1303 
Q 2753 1556 2381 1841 
z
M 88 2291 
Q 894 3659 1281 5322 
L 1744 5234 
Q 1578 4534 1325 3853 
L 1325 -809 
L 900 -809 
L 900 2847 
Q 625 2275 288 1716 
Q 213 1966 88 2291 
z
M 5575 5303 
L 6031 5303 
L 6031 84 
Q 6031 -391 5881 -566 
Q 5750 -728 5356 -734 
Q 5088 -741 4488 -722 
Q 4463 -466 4400 -203 
Q 4881 -253 5188 -253 
Q 5431 -259 5500 -166 
Q 5575 -84 5575 234 
L 5575 5303 
z
M 4913 653 
L 4469 653 
L 4469 4322 
L 4913 4322 
L 4913 653 
z
" transform="scale(0.015625)"/>
      <path id="MicrosoftYaHei-2192" d="M 4859 3766 
Q 5241 3344 5514 3125 
Q 5788 2906 6150 2713 
L 6150 2572 
Q 5788 2381 5517 2164 
Q 5247 1947 4859 1519 
L 4622 1519 
Q 4766 1822 4866 1983 
Q 4966 2144 5141 2369 
L 247 2369 
L 247 2916 
L 5141 2916 
Q 4972 3131 4869 3298 
Q 4766 3466 4622 3766 
L 4859 3766 
z
" transform="scale(0.015625)"/>
      <path id="MicrosoftYaHei-32" d="M 2666 3572 
Q 2666 3963 2419 4186 
Q 2172 4409 1747 4409 
Q 1447 4409 1140 4256 
Q 834 4103 569 3819 
L 569 4413 
Q 806 4659 1107 4790 
Q 1409 4922 1816 4922 
Q 2472 4922 2872 4570 
Q 3272 4219 3272 3619 
Q 3272 3084 3026 2693 
Q 2781 2303 2188 1894 
Q 1581 1475 1376 1294 
Q 1172 1113 1090 947 
Q 1009 781 1009 544 
L 3416 544 
L 3416 0 
L 372 0 
L 372 241 
Q 372 659 486 951 
Q 600 1244 862 1520 
Q 1125 1797 1681 2184 
Q 2250 2584 2458 2886 
Q 2666 3188 2666 3572 
z
" transform="scale(0.015625)"/>
      <path id="MicrosoftYaHei-3001" d="M 1931 -413 
L 1556 -791 
Q 1028 -216 397 306 
L 728 650 
Q 1506 22 1931 -413 
z
" transform="scale(0.015625)"/>
      <path id="MicrosoftYaHei-31" d="M 1781 0 
L 1781 4141 
Q 1638 3997 1295 3819 
Q 953 3641 663 3569 
L 663 4169 
Q 1047 4275 1484 4508 
Q 1922 4741 2156 4947 
L 2388 4947 
L 2388 0 
L 1781 0 
z
" transform="scale(0.015625)"/>
      <path id="MicrosoftYaHei-33" d="M 447 809 
Q 944 425 1569 425 
Q 2069 425 2361 670 
Q 2653 916 2653 1328 
Q 2653 2247 1338 2247 
L 934 2247 
L 934 2753 
L 1319 2753 
Q 2484 2753 2484 3616 
Q 2484 4413 1594 4413 
Q 1084 4413 634 4069 
L 634 4647 
Q 1109 4922 1744 4922 
Q 2363 4922 2738 4598 
Q 3113 4275 3113 3759 
Q 3113 2809 2144 2538 
L 2144 2525 
Q 2669 2469 2973 2155 
Q 3278 1841 3278 1372 
Q 3278 719 2808 319 
Q 2338 -81 1556 -81 
Q 869 -81 447 175 
L 447 809 
z
" transform="scale(0.015625)"/>
      <path id="MicrosoftYaHei-ff1b" d="M 1606 3531 
Q 1772 3531 1890 3415 
Q 2009 3300 2009 3138 
Q 2009 2975 1893 2858 
Q 1778 2741 1606 2741 
Q 1434 2741 1318 2858 
Q 1203 2975 1203 3138 
Q 1203 3300 1322 3415 
Q 1441 3531 1606 3531 
z
M 1931 775 
L 1403 -891 
L 966 -891 
L 1350 775 
L 1931 775 
z
" transform="scale(0.015625)"/>
      <path id="MicrosoftYaHei-4e00" d="M 100 2703 
L 6313 2703 
L 6313 2153 
L 100 2153 
L 100 2703 
z
" transform="scale(0.015625)"/>
      <path id="MicrosoftYaHei-79cd" d="M 2700 4066 
L 4113 4066 
L 4113 5316 
L 4588 5316 
L 4588 4066 
L 6006 4066 
L 6006 1053 
L 5556 1053 
L 5556 1353 
L 4588 1353 
L 4588 -841 
L 4113 -841 
L 4113 1353 
L 3150 1353 
L 3150 1053 
L 2700 1053 
L 2700 4066 
z
M 88 878 
Q 669 1691 1063 2972 
L 119 2972 
L 119 3416 
L 1119 3416 
L 1119 4434 
Q 738 4403 294 4372 
Q 263 4584 200 4828 
Q 1475 4897 2425 5034 
L 2538 4559 
Q 2141 4519 1581 4472 
L 1581 3416 
L 2475 3416 
L 2475 2972 
L 1581 2972 
L 1581 2159 
L 1850 2378 
Q 2188 2028 2606 1516 
L 2225 1203 
Q 1888 1669 1581 2025 
L 1581 -828 
L 1119 -828 
L 1119 1894 
Q 791 972 306 341 
Q 206 603 88 878 
z
M 5556 3634 
L 4588 3634 
L 4588 1784 
L 5556 1784 
L 5556 3634 
z
M 3150 1784 
L 4113 1784 
L 4113 3634 
L 3150 3634 
L 3150 1784 
z
" transform="scale(0.015625)"/>
      <path id="MicrosoftYaHei-5408" d="M 1025 1909 
L 5381 1909 
L 5381 -866 
L 4881 -866 
L 4881 -447 
L 1525 -447 
L 1525 -878 
L 1025 -878 
L 1025 1909 
z
M 3700 5234 
L 3550 5053 
Q 4594 3697 6319 3009 
Q 6125 2734 5988 2509 
Q 5481 2753 5025 3059 
L 5025 2703 
L 1369 2703 
L 1369 3016 
Q 913 2716 394 2428 
Q 269 2641 81 2897 
Q 2013 3866 3000 5234 
L 3700 5234 
z
M 4881 1453 
L 1525 1453 
L 1525 -3 
L 4881 -3 
L 4881 1453 
z
M 3219 4691 
Q 2581 3872 1550 3147 
L 4894 3147 
Q 3944 3797 3219 4691 
z
" transform="scale(0.015625)"/>
      <path id="MicrosoftYaHei-6cd5" d="M 4888 1328 
Q 5488 509 6181 -553 
Q 5931 -697 5694 -841 
Q 5519 -550 5350 -278 
Q 3300 -447 2138 -559 
L 1906 -16 
Q 2300 159 2675 716 
Q 3088 1303 3441 1953 
L 1800 1953 
L 1800 2403 
L 3763 2403 
L 3763 3728 
L 2106 3728 
L 2106 4178 
L 3763 4178 
L 3763 5322 
L 4263 5322 
L 4263 4178 
L 5994 4178 
L 5994 3728 
L 4263 3728 
L 4263 2403 
L 6288 2403 
L 6288 1953 
L 4069 1953 
Q 3372 806 2706 -28 
Q 3897 28 5088 141 
Q 4766 644 4475 1066 
L 4888 1328 
z
M 1013 1828 
Q 1244 1728 1506 1622 
Q 1063 291 731 -784 
L 194 -603 
Q 606 497 1013 1828 
z
M 400 3622 
Q 869 3291 1500 2772 
Q 1269 2509 1138 2366 
Q 431 2997 88 3259 
L 400 3622 
z
M 644 5241 
Q 1144 4841 1719 4328 
Q 1506 4109 1350 3941 
Q 775 4509 325 4897 
L 644 5241 
z
" transform="scale(0.015625)"/>
      <path id="MicrosoftYaHei-987a" d="M 3175 3728 
L 4131 3728 
L 4288 4516 
L 2963 4516 
L 2963 4941 
L 6281 4941 
L 6281 4516 
L 4788 4516 
L 4606 3728 
L 6006 3728 
L 6006 572 
L 5556 572 
L 5556 3303 
L 3625 3303 
L 3625 572 
L 3175 572 
L 3175 3728 
z
M 4388 2916 
L 4838 2916 
Q 4838 1434 4750 1066 
Q 4719 878 4663 709 
Q 5588 122 6344 -447 
L 6019 -853 
Q 5313 -272 4481 303 
Q 4056 -466 3038 -916 
Q 2913 -734 2731 -516 
Q 4119 72 4300 1153 
Q 4388 1497 4388 2916 
z
M 513 5116 
L 950 5116 
L 950 2728 
Q 950 191 406 -841 
Q 225 -659 44 -497 
Q 513 403 513 2441 
L 513 5116 
z
M 2225 5141 
L 2663 5141 
L 2663 -591 
L 2225 -591 
L 2225 5141 
z
M 1363 4928 
L 1800 4928 
L 1800 -303 
L 1363 -303 
L 1363 4928 
z
" transform="scale(0.015625)"/>
      <path id="MicrosoftYaHei-4e3a" d="M 356 3684 
L 2703 3684 
Q 2794 4450 2794 5341 
L 3331 5341 
Q 3331 4413 3244 3684 
L 5900 3684 
Q 5863 1753 5788 497 
Q 5725 -672 4550 -672 
Q 4063 -672 3394 -641 
Q 3369 -397 3300 -59 
Q 3888 -141 4456 -141 
Q 5206 -141 5244 597 
Q 5331 1822 5356 3197 
L 3175 3197 
Q 2716 441 606 -903 
Q 431 -684 225 -441 
Q 2169 706 2628 3197 
L 356 3197 
L 356 3684 
z
M 3325 2072 
L 3669 2378 
Q 4269 1822 4756 1284 
L 4369 934 
Q 3888 1503 3325 2072 
z
M 800 4922 
L 1138 5234 
Q 1656 4784 2138 4309 
L 1756 3953 
Q 1294 4459 800 4922 
z
" transform="scale(0.015625)"/>
      <path id="MicrosoftYaHei-3002" d="M 1219 863 
Q 1525 863 1750 625 
Q 1975 388 1975 72 
Q 1975 -284 1747 -507 
Q 1519 -731 1197 -731 
Q 875 -731 642 -503 
Q 409 -275 409 66 
Q 409 413 656 638 
Q 903 863 1219 863 
z
M 1209 -275 
Q 1328 -275 1431 -184 
Q 1534 -94 1534 50 
Q 1534 209 1434 304 
Q 1334 400 1191 400 
Q 1056 400 959 304 
Q 863 209 863 53 
Q 863 -100 977 -187 
Q 1091 -275 1209 -275 
z
" transform="scale(0.015625)"/>
     </defs>
     <use xlink:href="#MicrosoftYaHei-6cbf"/>
     <use xlink:href="#MicrosoftYaHei-7528" transform="translate(100 0)"/>
     <use xlink:href="#MicrosoftYaHei-672c" transform="translate(200 0)"/>
     <use xlink:href="#MicrosoftYaHei-8282" transform="translate(300 0)"/>
     <use xlink:href="#MicrosoftYaHei-6837" transform="translate(400 0)"/>
     <use xlink:href="#MicrosoftYaHei-4f8b" transform="translate(500 0)"/>
     <use xlink:href="#MicrosoftYaHei-ff1a" transform="translate(600 0)"/>
     <use xlink:href="#MicrosoftYaHei-30" transform="translate(700 0)"/>
     <use xlink:href="#MicrosoftYaHei-2192" transform="translate(758.642578 0)"/>
     <use xlink:href="#MicrosoftYaHei-32" transform="translate(858.642578 0)"/>
     <use xlink:href="#MicrosoftYaHei-3001" transform="translate(917.285156 0)"/>
     <use xlink:href="#MicrosoftYaHei-31" transform="translate(1017.285156 0)"/>
     <use xlink:href="#MicrosoftYaHei-2192" transform="translate(1075.927734 0)"/>
     <use xlink:href="#MicrosoftYaHei-32" transform="translate(1175.927734 0)"/>
     <use xlink:href="#MicrosoftYaHei-3001" transform="translate(1234.570312 0)"/>
     <use xlink:href="#MicrosoftYaHei-32" transform="translate(1334.570312 0)"/>
     <use xlink:href="#MicrosoftYaHei-2192" transform="translate(1393.212891 0)"/>
     <use xlink:href="#MicrosoftYaHei-33" transform="translate(1493.212891 0)"/>
     <use xlink:href="#MicrosoftYaHei-ff1b" transform="translate(1551.855469 0)"/>
     <use xlink:href="#MicrosoftYaHei-4e00" transform="translate(1651.855469 0)"/>
     <use xlink:href="#MicrosoftYaHei-79cd" transform="translate(1751.855469 0)"/>
     <use xlink:href="#MicrosoftYaHei-5408" transform="translate(1851.855469 0)"/>
     <use xlink:href="#MicrosoftYaHei-6cd5" transform="translate(1951.855469 0)"/>
     <use xlink:href="#MicrosoftYaHei-987a" transform="translate(2051.855469 0)"/>
     <use xlink:href="#MicrosoftYaHei-5e8f" transform="translate(2151.855469 0)"/>
     <use xlink:href="#MicrosoftYaHei-4e3a" transform="translate(2251.855469 0)"/>
     <use xlink:href="#MicrosoftYaHei-20" transform="translate(2351.855469 0)"/>
     <use xlink:href="#MicrosoftYaHei-30" transform="translate(2381.445312 0)"/>
     <use xlink:href="#MicrosoftYaHei-3001" transform="translate(2440.087891 0)"/>
     <use xlink:href="#MicrosoftYaHei-31" transform="translate(2540.087891 0)"/>
     <use xlink:href="#MicrosoftYaHei-3001" transform="translate(2598.730469 0)"/>
     <use xlink:href="#MicrosoftYaHei-32" transform="translate(2698.730469 0)"/>
     <use xlink:href="#MicrosoftYaHei-3001" transform="translate(2757.373047 0)"/>
     <use xlink:href="#MicrosoftYaHei-33" transform="translate(2857.373047 0)"/>
     <use xlink:href="#MicrosoftYaHei-3002" transform="translate(2916.015625 0)"/>
    </g>
   </g>
   <g id="patch_6">
    <path d="M 124.021034 143.607048 
Q 218.986028 166.391527 312.320252 188.784743 
" style="fill: none; stroke: #94a3b8; stroke-width: 1.5; stroke-linecap: round"/>
    <path d="M 307.870343 185.043312 
L 312.320252 188.784743 
L 306.657162 190.099812 
" style="fill: none; stroke: #94a3b8; stroke-width: 1.5; stroke-linecap: round"/>
   </g>
   <g id="patch_7">
    <path d="M 124.021034 244.472952 
Q 218.986028 221.688473 312.320252 199.295257 
" style="fill: none; stroke: #94a3b8; stroke-width: 1.5; stroke-linecap: round"/>
    <path d="M 306.657162 197.980188 
L 312.320252 199.295257 
L 307.870343 203.036688 
" style="fill: none; stroke: #94a3b8; stroke-width: 1.5; stroke-linecap: round"/>
   </g>
   <g id="patch_8">
    <path d="M 355.082668 194.04 
Q 430.253035 194.04 503.74635 194.04 
" style="fill: none; stroke: #94a3b8; stroke-width: 1.5; stroke-linecap: round"/>
    <path d="M 498.54635 191.44 
L 503.74635 194.04 
L 498.54635 196.64 
" style="fill: none; stroke: #94a3b8; stroke-width: 1.5; stroke-linecap: round"/>
   </g>
   <g id="text_3">
    <!-- 0 -->
    <g style="fill: #17324d" transform="translate(100.526766 141.773297) scale(0.11 -0.11)">
     <use xlink:href="#MicrosoftYaHei-30"/>
    </g>
   </g>
   <g id="text_4">
    <!-- 1 -->
    <g style="fill: #17324d" transform="translate(100.526766 252.365297) scale(0.11 -0.11)">
     <use xlink:href="#MicrosoftYaHei-31"/>
    </g>
   </g>
   <g id="text_5">
    <!-- 2 -->
    <g style="fill: #17324d" transform="translate(330.998766 197.069297) scale(0.11 -0.11)">
     <use xlink:href="#MicrosoftYaHei-32"/>
    </g>
   </g>
   <g id="text_6">
    <!-- 3 -->
    <g style="fill: #17324d" transform="translate(523.058766 197.069297) scale(0.11 -0.11)">
     <use xlink:href="#MicrosoftYaHei-33"/>
    </g>
   </g>
   <g id="text_7">
    <!-- 初始入度：[0, 0, 2, 1] -->
    <g style="fill: #17324d" transform="translate(653.850492 134.723602) scale(0.105 -0.105)">
     <defs>
      <path id="MicrosoftYaHei-521d" d="M 2513 4778 
L 5988 4778 
Q 5894 1509 5844 509 
Q 5819 -659 4844 -647 
Q 4525 -647 3925 -628 
Q 3881 -334 3825 -66 
Q 4425 -122 4788 -122 
Q 5300 -141 5325 541 
Q 5388 1522 5456 4297 
L 4038 4297 
Q 4000 3084 3944 2334 
Q 3806 403 2250 -828 
Q 2088 -634 1850 -428 
Q 3300 691 3419 2372 
Q 3491 3200 3509 4297 
L 2513 4297 
L 2513 4778 
z
M 150 3691 
L 150 4141 
L 2219 4141 
L 2219 3678 
Q 1872 3081 1481 2569 
L 1481 2375 
Q 1631 2269 1784 2163 
Q 2094 2575 2363 3022 
L 2775 2759 
Q 2506 2372 2141 1906 
Q 2453 1678 2769 1441 
L 2450 1059 
Q 1972 1453 1481 1838 
L 1481 -797 
L 1006 -797 
L 1006 1997 
Q 638 1591 231 1247 
Q 163 1491 63 1784 
Q 963 2491 1663 3691 
L 150 3691 
z
M 744 5134 
L 1181 5353 
Q 1413 4984 1669 4497 
L 1206 4259 
Q 975 4759 744 5134 
z
" transform="scale(0.015625)"/>
      <path id="MicrosoftYaHei-59cb" d="M 2838 1984 
L 5850 1984 
L 5850 -828 
L 5375 -828 
L 5375 -391 
L 3313 -391 
L 3313 -834 
L 2838 -834 
L 2838 1984 
z
M 2638 222 
L 2269 -191 
Q 1928 156 1588 484 
Q 1125 -184 381 -778 
Q 250 -584 94 -372 
Q 809 156 1244 809 
Q 797 1228 350 1616 
Q 572 2456 753 3497 
L 113 3497 
L 113 3966 
L 834 3966 
Q 934 4597 1025 5297 
L 1531 5222 
Q 1428 4544 1325 3966 
L 2488 3966 
L 2488 3503 
Q 2341 1828 1863 931 
Q 2288 559 2638 222 
z
M 5225 4484 
Q 5863 3478 6325 2522 
L 5831 2291 
Q 5700 2591 5559 2884 
Q 4572 2825 3200 2697 
Q 3025 2678 2756 2591 
L 2525 3041 
Q 2744 3172 2900 3391 
Q 3406 4147 3925 5334 
L 4450 5166 
Q 3881 4078 3319 3191 
Q 4569 3269 5350 3306 
Q 5097 3803 4819 4284 
L 5225 4484 
z
M 5375 1547 
L 3313 1547 
L 3313 34 
L 5375 34 
L 5375 1547 
z
M 2006 3497 
L 1241 3497 
Q 1044 2463 850 1778 
Q 1191 1503 1497 1247 
Q 1922 2119 2006 3497 
z
" transform="scale(0.015625)"/>
      <path id="MicrosoftYaHei-5b" d="M 1959 -1100 
L 681 -1100 
L 681 4841 
L 1959 4841 
L 1959 4406 
L 1219 4406 
L 1219 -669 
L 1959 -669 
L 1959 -1100 
z
" transform="scale(0.015625)"/>
      <path id="MicrosoftYaHei-2c" d="M 1109 778 
L 575 -888 
L 131 -888 
L 519 778 
L 1109 778 
z
" transform="scale(0.015625)"/>
      <path id="MicrosoftYaHei-5d" d="M 1466 -1100 
L 184 -1100 
L 184 -669 
L 928 -669 
L 928 4406 
L 184 4406 
L 184 4841 
L 1466 4841 
L 1466 -1100 
z
" transform="scale(0.015625)"/>
     </defs>
     <use xlink:href="#MicrosoftYaHei-521d"/>
     <use xlink:href="#MicrosoftYaHei-59cb" transform="translate(100 0)"/>
     <use xlink:href="#MicrosoftYaHei-5165" transform="translate(200 0)"/>
     <use xlink:href="#MicrosoftYaHei-5ea6" transform="translate(300 0)"/>
     <use xlink:href="#MicrosoftYaHei-ff1a" transform="translate(400 0)"/>
     <use xlink:href="#MicrosoftYaHei-5b" transform="translate(500 0)"/>
     <use xlink:href="#MicrosoftYaHei-30" transform="translate(533.398438 0)"/>
     <use xlink:href="#MicrosoftYaHei-2c" transform="translate(592.041016 0)"/>
     <use xlink:href="#MicrosoftYaHei-20" transform="translate(616.113281 0)"/>
     <use xlink:href="#MicrosoftYaHei-30" transform="translate(645.703125 0)"/>
     <use xlink:href="#MicrosoftYaHei-2c" transform="translate(704.345703 0)"/>
     <use xlink:href="#MicrosoftYaHei-20" transform="translate(728.417969 0)"/>
     <use xlink:href="#MicrosoftYaHei-32" transform="translate(758.007812 0)"/>
     <use xlink:href="#MicrosoftYaHei-2c" transform="translate(816.650391 0)"/>
     <use xlink:href="#MicrosoftYaHei-20" transform="translate(840.722656 0)"/>
     <use xlink:href="#MicrosoftYaHei-31" transform="translate(870.3125 0)"/>
     <use xlink:href="#MicrosoftYaHei-5d" transform="translate(928.955078 0)"/>
    </g>
   </g>
   <g id="text_8">
    <!-- 处理 0：顶点 2 入度 2→1 -->
    <g style="fill: #17324d" transform="translate(643.846781 190.019602) scale(0.105 -0.105)">
     <defs>
      <path id="MicrosoftYaHei-5904" d="M 1706 5197 
Q 1575 4591 1413 4034 
L 3081 4034 
L 3081 3578 
Q 2906 1966 2150 772 
Q 2719 128 3531 -16 
Q 4488 -184 6319 -103 
Q 6213 -347 6138 -622 
Q 4425 -684 3475 -497 
Q 2519 -334 1869 359 
Q 1325 -353 550 -903 
Q 344 -709 138 -534 
Q 981 34 1538 766 
Q 1088 1434 825 2434 
Q 631 2003 413 1609 
Q 281 1784 50 2041 
Q 819 3409 1188 5278 
L 1706 5197 
z
M 3850 5253 
L 4369 5253 
L 4369 3159 
L 4644 3478 
Q 5531 2878 6244 2297 
L 5906 1866 
Q 5244 2447 4369 3078 
L 4369 147 
L 3850 147 
L 3850 5253 
z
M 2575 3559 
L 1263 3559 
Q 1188 3334 1113 3122 
Q 1369 1941 1831 1197 
Q 2463 2234 2575 3559 
z
" transform="scale(0.015625)"/>
      <path id="MicrosoftYaHei-7406" d="M 2031 -166 
L 3988 -166 
L 3988 734 
L 2394 734 
L 2394 1172 
L 3988 1172 
L 3988 1997 
L 2988 1997 
L 2988 1766 
L 2525 1766 
L 2525 4991 
L 5913 4991 
L 5913 1766 
L 5450 1766 
L 5450 1997 
L 4450 1997 
L 4450 1172 
L 6044 1172 
L 6044 734 
L 4450 734 
L 4450 -166 
L 6319 -166 
L 6319 -603 
L 2031 -603 
L 2031 -166 
z
M 44 203 
Q 525 319 975 434 
L 975 2328 
L 194 2328 
L 194 2766 
L 975 2766 
L 975 4328 
L 131 4328 
L 131 4766 
L 2281 4766 
L 2281 4328 
L 1438 4328 
L 1438 2766 
L 2231 2766 
L 2231 2328 
L 1438 2328 
L 1438 559 
Q 1850 675 2238 791 
Q 2269 509 2306 303 
Q 1238 16 213 -303 
L 44 203 
z
M 4450 2422 
L 5450 2422 
L 5450 3291 
L 4450 3291 
L 4450 2422 
z
M 2988 2422 
L 3988 2422 
L 3988 3291 
L 2988 3291 
L 2988 2422 
z
M 5450 4566 
L 4450 4566 
L 4450 3703 
L 5450 3703 
L 5450 4566 
z
M 2988 3703 
L 3988 3703 
L 3988 4566 
L 2988 4566 
L 2988 3703 
z
" transform="scale(0.015625)"/>
      <path id="MicrosoftYaHei-9876" d="M 2606 3647 
L 3775 3647 
L 3950 4491 
L 2538 4491 
L 2538 4941 
L 6263 4941 
L 6263 4491 
L 4456 4491 
L 4256 3647 
L 5981 3647 
L 5981 653 
L 5500 653 
L 5500 3197 
L 3088 3197 
L 3088 628 
L 2606 628 
L 2606 3647 
z
M 94 4791 
L 2419 4791 
L 2419 4334 
L 1588 4334 
L 1588 141 
Q 1588 -603 819 -603 
Q 500 -603 306 -591 
Q 275 -303 206 -34 
Q 494 -103 800 -103 
Q 1100 -103 1100 184 
L 1100 4334 
L 94 4334 
L 94 4791 
z
M 4044 2891 
L 4525 2891 
L 4525 2203 
Q 4525 1422 4356 872 
Q 5413 197 6281 -453 
L 5931 -872 
Q 5094 -178 4175 441 
Q 4113 316 4038 216 
Q 3519 -497 2244 -897 
Q 2125 -691 1944 -447 
Q 3125 -109 3613 491 
Q 4044 1053 4044 2191 
L 4044 2891 
z
" transform="scale(0.015625)"/>
      <path id="MicrosoftYaHei-70b9" d="M 900 3378 
L 2863 3378 
L 2863 5341 
L 3388 5341 
L 3388 4591 
L 6181 4591 
L 6181 4141 
L 3388 4141 
L 3388 3378 
L 5600 3378 
L 5600 991 
L 5088 991 
L 5088 1253 
L 1413 1253 
L 1413 991 
L 900 991 
L 900 3378 
z
M 5088 2928 
L 1413 2928 
L 1413 1703 
L 5088 1703 
L 5088 2928 
z
M 5425 847 
Q 5925 91 6225 -516 
L 5750 -772 
Q 5438 -134 4994 622 
L 5425 847 
z
M 1369 553 
Q 894 -303 531 -791 
L 100 -484 
Q 506 53 931 803 
L 1369 553 
z
M 2413 828 
Q 2700 197 2913 -503 
L 2406 -678 
Q 2213 3 1963 666 
L 2413 828 
z
M 3906 872 
Q 4206 253 4450 -422 
L 3956 -616 
Q 3781 -53 3450 697 
L 3906 872 
z
" transform="scale(0.015625)"/>
     </defs>
     <use xlink:href="#MicrosoftYaHei-5904"/>
     <use xlink:href="#MicrosoftYaHei-7406" transform="translate(100 0)"/>
     <use xlink:href="#MicrosoftYaHei-20" transform="translate(200 0)"/>
     <use xlink:href="#MicrosoftYaHei-30" transform="translate(229.589844 0)"/>
     <use xlink:href="#MicrosoftYaHei-ff1a" transform="translate(288.232422 0)"/>
     <use xlink:href="#MicrosoftYaHei-9876" transform="translate(388.232422 0)"/>
     <use xlink:href="#MicrosoftYaHei-70b9" transform="translate(488.232422 0)"/>
     <use xlink:href="#MicrosoftYaHei-20" transform="translate(588.232422 0)"/>
     <use xlink:href="#MicrosoftYaHei-32" transform="translate(617.822266 0)"/>
     <use xlink:href="#MicrosoftYaHei-20" transform="translate(676.464844 0)"/>
     <use xlink:href="#MicrosoftYaHei-5165" transform="translate(706.054688 0)"/>
     <use xlink:href="#MicrosoftYaHei-5ea6" transform="translate(806.054688 0)"/>
     <use xlink:href="#MicrosoftYaHei-20" transform="translate(906.054688 0)"/>
     <use xlink:href="#MicrosoftYaHei-32" transform="translate(935.644531 0)"/>
     <use xlink:href="#MicrosoftYaHei-2192" transform="translate(994.287109 0)"/>
     <use xlink:href="#MicrosoftYaHei-31" transform="translate(1094.287109 0)"/>
    </g>
   </g>
   <g id="text_9">
    <!-- 处理 1：顶点 2 入度 1→0 -->
    <g style="fill: #17324d" transform="translate(643.846781 245.315602) scale(0.105 -0.105)">
     <use xlink:href="#MicrosoftYaHei-5904"/>
     <use xlink:href="#MicrosoftYaHei-7406" transform="translate(100 0)"/>
     <use xlink:href="#MicrosoftYaHei-20" transform="translate(200 0)"/>
     <use xlink:href="#MicrosoftYaHei-31" transform="translate(229.589844 0)"/>
     <use xlink:href="#MicrosoftYaHei-ff1a" transform="translate(288.232422 0)"/>
     <use xlink:href="#MicrosoftYaHei-9876" transform="translate(388.232422 0)"/>
     <use xlink:href="#MicrosoftYaHei-70b9" transform="translate(488.232422 0)"/>
     <use xlink:href="#MicrosoftYaHei-20" transform="translate(588.232422 0)"/>
     <use xlink:href="#MicrosoftYaHei-32" transform="translate(617.822266 0)"/>
     <use xlink:href="#MicrosoftYaHei-20" transform="translate(676.464844 0)"/>
     <use xlink:href="#MicrosoftYaHei-5165" transform="translate(706.054688 0)"/>
     <use xlink:href="#MicrosoftYaHei-5ea6" transform="translate(806.054688 0)"/>
     <use xlink:href="#MicrosoftYaHei-20" transform="translate(906.054688 0)"/>
     <use xlink:href="#MicrosoftYaHei-31" transform="translate(935.644531 0)"/>
     <use xlink:href="#MicrosoftYaHei-2192" transform="translate(994.287109 0)"/>
     <use xlink:href="#MicrosoftYaHei-30" transform="translate(1094.287109 0)"/>
    </g>
   </g>
   <g id="text_10">
    <!-- 2 入队，再解锁 3 -->
    <g style="fill: #059669" transform="translate(663.611391 300.611602) scale(0.105 -0.105)">
     <defs>
      <path id="MicrosoftYaHei-961f" d="M 2456 1728 
Q 2663 603 1831 466 
Q 1575 422 1163 459 
Q 1113 716 1019 997 
Q 1369 916 1625 947 
Q 2125 997 1931 1747 
Q 1819 2266 1338 2866 
Q 1688 3772 1931 4566 
L 913 4566 
L 913 -841 
L 419 -841 
L 419 5003 
L 2469 5003 
L 2469 4566 
Q 2144 3609 1869 2947 
Q 2381 2272 2456 1728 
z
M 3738 5253 
L 4250 5253 
Q 4244 4366 4228 3656 
Q 4584 794 6325 -228 
Q 6094 -478 5913 -709 
Q 4522 291 4056 2316 
Q 3703 409 2094 -822 
Q 1950 -647 1725 -422 
Q 3688 972 3725 3697 
Q 3738 4216 3738 5253 
z
" transform="scale(0.015625)"/>
      <path id="MicrosoftYaHei-518d" d="M 1425 -803 
L 931 -803 
L 931 947 
L 138 947 
L 138 1378 
L 931 1378 
L 931 3822 
L 2956 3822 
L 2956 4522 
L 338 4522 
L 338 4953 
L 6069 4953 
L 6069 4522 
L 3444 4522 
L 3444 3822 
L 5481 3822 
L 5481 1378 
L 6300 1378 
L 6300 947 
L 5481 947 
L 5481 -41 
Q 5481 -728 4831 -734 
Q 4431 -741 3806 -734 
Q 3769 -522 3713 -259 
Q 4225 -297 4600 -297 
Q 4981 -309 4981 28 
L 4981 947 
L 1425 947 
L 1425 -803 
z
M 3444 1378 
L 4981 1378 
L 4981 2197 
L 3444 2197 
L 3444 1378 
z
M 1425 1378 
L 2956 1378 
L 2956 2197 
L 1425 2197 
L 1425 1378 
z
M 4981 3416 
L 3444 3416 
L 3444 2603 
L 4981 2603 
L 4981 3416 
z
M 1425 2603 
L 2956 2603 
L 2956 3416 
L 1425 3416 
L 1425 2603 
z
" transform="scale(0.015625)"/>
      <path id="MicrosoftYaHei-89e3" d="M 75 3559 
Q 756 4316 1188 5322 
L 1625 5203 
Q 1497 4941 1366 4697 
L 2544 4697 
L 2544 4309 
L 2084 3641 
L 2881 3641 
L 2881 -128 
Q 2881 -753 2263 -759 
Q 1994 -766 1706 -747 
Q 1688 -591 1638 -328 
Q 1938 -359 2175 -359 
Q 2475 -359 2475 -66 
L 2475 953 
L 1913 953 
L 1913 -203 
L 1506 -203 
L 1506 953 
L 950 953 
Q 897 -225 438 -847 
Q 294 -684 88 -528 
Q 550 153 550 1303 
L 550 3428 
Q 463 3319 375 3216 
Q 269 3359 75 3559 
z
M 3075 897 
L 4550 897 
L 4550 1797 
L 3794 1797 
Q 3659 1438 3513 1122 
Q 3331 1228 3106 1309 
Q 3456 2059 3663 2828 
L 4094 2709 
Q 4019 2456 3941 2222 
L 4550 2222 
L 4550 2897 
L 5013 2897 
L 5013 2222 
L 6131 2222 
L 6131 1797 
L 5013 1797 
L 5013 897 
L 6281 897 
L 6281 472 
L 5013 472 
L 5013 -841 
L 4550 -841 
L 4550 472 
L 3075 472 
L 3075 897 
z
M 3138 4997 
L 5950 4997 
Q 5931 4384 5888 3847 
Q 5844 3084 5081 3084 
Q 4819 3084 4438 3103 
Q 4400 3366 4350 3603 
Q 4800 3547 5056 3547 
Q 5394 3547 5425 3909 
Q 5456 4191 5469 4572 
L 4284 4572 
Q 4263 3950 4063 3584 
Q 3844 3159 3219 2759 
Q 3119 2916 2919 3159 
Q 3438 3441 3638 3778 
Q 3806 4050 3828 4572 
L 3138 4572 
L 3138 4997 
z
M 709 3641 
L 1581 3641 
L 2038 4316 
L 1150 4316 
Q 934 3950 709 3641 
z
M 1913 1322 
L 2475 1322 
L 2475 2116 
L 1913 2116 
L 1913 1322 
z
M 2475 3272 
L 1913 3272 
L 1913 2484 
L 2475 2484 
L 2475 3272 
z
M 956 1322 
L 1506 1322 
L 1506 2116 
L 956 2116 
L 956 1322 
z
M 956 2484 
L 1506 2484 
L 1506 3272 
L 956 3272 
L 956 2484 
z
" transform="scale(0.015625)"/>
      <path id="MicrosoftYaHei-9501" d="M 2513 3491 
L 4013 3491 
L 4013 5266 
L 4488 5266 
L 4488 3491 
L 6000 3491 
L 6000 553 
L 5525 553 
L 5525 3053 
L 2988 3053 
L 2988 553 
L 2513 553 
L 2513 3491 
z
M 2263 541 
Q 2269 241 2294 22 
Q 1863 -191 1375 -484 
Q 1263 -547 1113 -697 
L 781 -266 
Q 981 -78 981 203 
L 981 1559 
L 144 1559 
L 144 1991 
L 981 1991 
L 981 2834 
L 563 2834 
L 563 3266 
L 2169 3266 
L 2169 2834 
L 1438 2834 
L 1438 1991 
L 2263 1991 
L 2263 1559 
L 1438 1559 
L 1438 78 
Q 1831 291 2263 541 
z
M 4019 2716 
L 4500 2716 
Q 4506 1191 4369 816 
Q 5381 197 6288 -441 
L 5950 -859 
Q 5081 -178 4188 391 
Q 3638 -516 2238 -928 
Q 2094 -716 1919 -484 
Q 3931 3 3994 1522 
Q 4019 1928 4019 2716 
z
M 69 3384 
Q 663 4228 1038 5316 
L 1506 5159 
Q 1338 4741 1144 4353 
L 2275 4353 
L 2275 3922 
L 919 3922 
Q 644 3416 331 2959 
Q 213 3184 69 3384 
z
M 5000 3884 
Q 5444 4441 5775 4978 
L 6219 4722 
Q 5850 4184 5388 3609 
L 5000 3884 
z
M 2294 4722 
L 2675 4959 
Q 3063 4478 3463 3903 
L 3031 3628 
Q 2675 4222 2294 4722 
z
" transform="scale(0.015625)"/>
     </defs>
     <use xlink:href="#MicrosoftYaHei-32"/>
     <use xlink:href="#MicrosoftYaHei-20" transform="translate(58.642578 0)"/>
     <use xlink:href="#MicrosoftYaHei-5165" transform="translate(88.232422 0)"/>
     <use xlink:href="#MicrosoftYaHei-961f" transform="translate(188.232422 0)"/>
     <use xlink:href="#MicrosoftYaHei-ff0c" transform="translate(288.232422 0)"/>
     <use xlink:href="#MicrosoftYaHei-518d" transform="translate(388.232422 0)"/>
     <use xlink:href="#MicrosoftYaHei-89e3" transform="translate(488.232422 0)"/>
     <use xlink:href="#MicrosoftYaHei-9501" transform="translate(588.232422 0)"/>
     <use xlink:href="#MicrosoftYaHei-20" transform="translate(688.232422 0)"/>
     <use xlink:href="#MicrosoftYaHei-33" transform="translate(717.822266 0)"/>
    </g>
   </g>
   <g id="text_11">
    <!-- 只有入度为 0 的顶点才入队；存在环时可能没有可处理的顶点。 -->
    <g style="fill: #17324d" transform="translate(277.019453 356.045297) scale(0.11 -0.11)">
     <defs>
      <path id="MicrosoftYaHei-53ea" d="M 925 4909 
L 5525 4909 
L 5525 1516 
L 5013 1516 
L 5013 1809 
L 1438 1809 
L 1438 1516 
L 925 1516 
L 925 4909 
z
M 2194 1503 
L 2675 1184 
Q 1631 -28 550 -841 
Q 350 -666 81 -447 
Q 1288 378 2194 1503 
z
M 4081 1522 
Q 5256 547 6288 -391 
Q 6238 -434 5806 -828 
Q 4875 166 3700 1147 
L 4081 1522 
z
M 5013 2272 
L 5013 4447 
L 1438 4447 
L 1438 2272 
L 5013 2272 
z
" transform="scale(0.015625)"/>
      <path id="MicrosoftYaHei-6709" d="M 1856 -816 
L 1363 -816 
L 1363 2419 
Q 909 1891 363 1403 
Q 231 1622 63 1859 
Q 1269 2869 1947 4097 
L 238 4097 
L 238 4559 
L 2181 4559 
Q 2359 4950 2488 5359 
L 3006 5241 
Q 2881 4894 2731 4559 
L 6263 4559 
L 6263 4097 
L 2506 4097 
Q 2313 3728 2081 3378 
L 5506 3378 
L 5506 41 
Q 5506 -734 4750 -734 
Q 4419 -741 3744 -741 
Q 3713 -528 3650 -228 
Q 4225 -272 4575 -272 
Q 5006 -272 5006 153 
L 5006 597 
L 1856 597 
L 1856 -816 
z
M 1856 1022 
L 5006 1022 
L 5006 1772 
L 1856 1772 
L 1856 1022 
z
M 5006 2941 
L 1856 2941 
L 1856 2197 
L 5006 2197 
L 5006 2941 
z
" transform="scale(0.015625)"/>
      <path id="MicrosoftYaHei-7684" d="M 356 4284 
L 988 4284 
Q 1219 4853 1369 5322 
L 1894 5172 
Q 1697 4694 1513 4284 
L 2763 4284 
L 2763 -691 
L 2263 -691 
L 2263 -203 
L 856 -203 
L 856 -734 
L 356 -734 
L 356 4284 
z
M 2856 3003 
Q 3444 3934 3850 5322 
L 4375 5191 
Q 4216 4719 4050 4303 
L 6063 4303 
Q 5988 1091 5938 259 
Q 5894 -722 4906 -722 
Q 4338 -722 3750 -684 
Q 3713 -372 3650 -128 
L 3669 -128 
Q 4294 -216 4813 -216 
Q 5381 -216 5425 384 
Q 5494 1316 5525 3834 
L 3850 3834 
Q 3578 3231 3288 2772 
Q 3119 2891 2856 3003 
z
M 856 266 
L 2263 266 
L 2263 1847 
L 856 1847 
L 856 266 
z
M 2263 3816 
L 856 3816 
L 856 2297 
L 2263 2297 
L 2263 3816 
z
M 3406 2578 
L 3788 2859 
Q 4481 2041 4894 1441 
L 4431 1116 
Q 3988 1841 3406 2578 
z
" transform="scale(0.015625)"/>
      <path id="MicrosoftYaHei-624d" d="M 113 284 
Q 2638 1597 3722 3547 
L 294 3547 
L 294 4034 
L 4088 4034 
L 4088 5297 
L 4613 5297 
L 4613 4034 
L 6231 4034 
L 6231 3547 
L 4613 3547 
L 4613 209 
Q 4613 -678 3775 -678 
Q 3306 -678 2619 -666 
Q 2581 -391 2519 -72 
Q 3125 -134 3650 -134 
Q 4088 -134 4088 347 
L 4088 3253 
Q 2941 1172 481 -172 
Q 344 3 113 284 
z
" transform="scale(0.015625)"/>
      <path id="MicrosoftYaHei-5b58" d="M 169 4641 
L 1925 4641 
Q 2053 4991 2163 5359 
L 2675 5228 
Q 2578 4928 2472 4641 
L 6275 4641 
L 6275 4178 
L 2291 4178 
Q 1963 3384 1563 2709 
L 1563 -797 
L 1081 -797 
L 1081 1984 
Q 747 1528 369 1141 
Q 244 1359 69 1591 
Q 1113 2688 1744 4178 
L 169 4178 
L 169 4641 
z
M 1838 1791 
L 3994 1791 
L 3994 2203 
Q 4656 2628 5156 3047 
L 2256 3047 
L 2256 3503 
L 5869 3503 
L 5869 2997 
Q 5231 2491 4475 1978 
L 4475 1791 
L 6319 1791 
L 6319 1334 
L 4475 1334 
L 4475 -72 
Q 4475 -784 3763 -784 
Q 3425 -784 2856 -766 
Q 2825 -528 2775 -259 
Q 3375 -322 3663 -322 
Q 3994 -322 3994 9 
L 3994 1334 
L 1838 1334 
L 1838 1791 
z
" transform="scale(0.015625)"/>
      <path id="MicrosoftYaHei-5728" d="M 250 4553 
L 2088 4553 
Q 2241 4931 2363 5328 
L 2881 5197 
Q 2772 4869 2647 4553 
L 6275 4553 
L 6275 4091 
L 2450 4091 
Q 2078 3256 1581 2519 
L 1581 -791 
L 1094 -791 
L 1094 1853 
Q 756 1431 375 1047 
Q 244 1266 75 1497 
Q 1225 2691 1884 4091 
L 250 4091 
L 250 4553 
z
M 1800 109 
L 3756 109 
L 3756 1978 
L 2131 1978 
L 2131 2428 
L 3756 2428 
L 3756 3684 
L 4269 3684 
L 4269 2428 
L 5919 2428 
L 5919 1978 
L 4269 1978 
L 4269 109 
L 6275 109 
L 6275 -328 
L 1800 -328 
L 1800 109 
z
" transform="scale(0.015625)"/>
      <path id="MicrosoftYaHei-73af" d="M 2606 4447 
L 2606 4916 
L 6050 4916 
L 6050 4447 
L 4441 4447 
Q 4228 3716 3959 3053 
L 4369 3053 
L 4369 -816 
L 3875 -816 
L 3875 2850 
Q 3247 1381 2338 259 
Q 2175 422 1944 566 
Q 3284 2200 3925 4447 
L 2606 4447 
z
M 94 922 
Q 544 1031 1050 1166 
L 1050 2641 
L 213 2641 
L 213 3091 
L 1050 3091 
L 1050 4241 
L 169 4241 
L 169 4691 
L 2375 4691 
L 2375 4241 
L 1544 4241 
L 1544 3091 
L 2369 3091 
L 2369 2641 
L 1544 2641 
L 1544 1297 
Q 1922 1400 2331 1516 
Q 2313 1284 2325 1084 
Q 1081 691 175 391 
L 94 922 
z
M 4856 2909 
Q 5813 1628 6313 834 
L 5888 509 
Q 5225 1622 4469 2653 
L 4856 2909 
z
" transform="scale(0.015625)"/>
      <path id="MicrosoftYaHei-65f6" d="M 344 4728 
L 2500 4728 
L 2500 -366 
L 2006 -366 
L 2006 153 
L 838 153 
L 838 -441 
L 344 -441 
L 344 4728 
z
M 2706 3941 
L 4925 3941 
L 4925 5322 
L 5425 5322 
L 5425 3941 
L 6313 3941 
L 6313 3478 
L 5425 3478 
L 5425 116 
Q 5425 -722 4625 -722 
Q 4263 -722 3563 -703 
Q 3531 -478 3463 -178 
Q 4119 -228 4488 -228 
Q 4925 -228 4925 216 
L 4925 3478 
L 2706 3478 
L 2706 3941 
z
M 838 616 
L 2006 616 
L 2006 2234 
L 838 2234 
L 838 616 
z
M 2006 4266 
L 838 4266 
L 838 2684 
L 2006 2684 
L 2006 4266 
z
M 3406 2878 
Q 3906 1966 4163 1422 
Q 4000 1347 3663 1172 
Q 3419 1766 2963 2653 
L 3406 2878 
z
" transform="scale(0.015625)"/>
      <path id="MicrosoftYaHei-53ef" d="M 813 3409 
L 3569 3409 
L 3569 941 
L 1306 941 
L 1306 497 
L 813 497 
L 813 3409 
z
M 119 4809 
L 6294 4809 
L 6294 4334 
L 5256 4334 
L 5256 103 
Q 5256 -741 4438 -747 
Q 3850 -747 3294 -741 
Q 3263 -453 3194 -172 
Q 3900 -222 4269 -222 
Q 4731 -222 4731 278 
L 4731 4334 
L 119 4334 
L 119 4809 
z
M 3075 2966 
L 1306 2966 
L 1306 1384 
L 3075 1384 
L 3075 2966 
z
" transform="scale(0.015625)"/>
      <path id="MicrosoftYaHei-80fd" d="M 950 -759 
L 463 -759 
L 463 2928 
L 3000 2928 
L 3000 -28 
Q 3000 -703 2375 -703 
Q 2100 -709 1669 -709 
Q 1638 -516 1575 -234 
Q 1969 -266 2206 -266 
Q 2513 -266 2513 53 
L 2513 572 
L 950 572 
L 950 -759 
z
M 3606 2253 
L 4094 2253 
L 4094 1222 
Q 4981 1553 5950 2091 
L 6231 1659 
Q 5209 1122 4094 706 
L 4094 166 
Q 4094 -228 4400 -228 
L 5319 -228 
Q 5638 -228 5688 78 
Q 5731 353 5763 897 
Q 6000 803 6250 722 
Q 6200 172 6144 -109 
Q 6063 -659 5363 -659 
L 4319 -659 
Q 3606 -659 3606 72 
L 3606 2253 
z
M 3619 5303 
L 4106 5303 
L 4106 4231 
Q 4966 4572 5813 5053 
L 6094 4622 
Q 5119 4128 4106 3719 
L 4106 3359 
Q 4106 2941 4438 2941 
L 5231 2941 
Q 5625 2941 5675 3266 
Q 5719 3534 5750 4047 
Q 5988 3953 6238 3866 
Q 6188 3366 6131 3053 
Q 6038 2509 5288 2509 
L 4375 2509 
Q 3619 2509 3619 3259 
L 3619 5303 
z
M 2463 4772 
Q 3031 4034 3450 3353 
Q 3213 3191 3019 3066 
Q 2897 3281 2759 3506 
Q 1231 3394 313 3303 
L 113 3828 
Q 388 3978 719 4391 
Q 1063 4841 1394 5397 
L 1888 5216 
Q 1369 4466 794 3797 
Q 1731 3856 2497 3919 
Q 2300 4216 2075 4528 
L 2463 4772 
z
M 950 947 
L 2513 947 
L 2513 1553 
L 950 1553 
L 950 947 
z
M 2513 2528 
L 950 2528 
L 950 1928 
L 2513 1928 
L 2513 2528 
z
" transform="scale(0.015625)"/>
      <path id="MicrosoftYaHei-6ca1" d="M 2156 2116 
L 2156 2547 
L 5638 2547 
L 5638 2134 
Q 5253 1128 4391 406 
Q 5178 -94 6319 -316 
Q 6100 -591 5938 -816 
Q 4775 -491 3975 91 
Q 3100 -503 1838 -872 
Q 1675 -641 1513 -422 
Q 2744 -100 3575 419 
Q 2819 1119 2481 2116 
L 2156 2116 
z
M 4850 4553 
L 3213 4553 
L 3213 4291 
Q 3213 3253 2156 2666 
Q 1981 2872 1788 3053 
Q 2725 3516 2725 4328 
L 2725 5016 
L 5338 5016 
L 5338 3753 
Q 5338 3472 5613 3472 
L 6319 3472 
Q 6288 3216 6269 3009 
L 5469 3009 
Q 4850 3009 4850 3659 
L 4850 4553 
z
M 5075 2116 
L 2959 2116 
Q 3303 1272 3984 703 
Q 4747 1300 5075 2116 
z
M 1000 1853 
Q 1263 1734 1500 1641 
Q 1025 228 725 -791 
L 181 -603 
Q 575 441 1000 1853 
z
M 400 3622 
Q 850 3309 1513 2766 
Q 1306 2534 1156 2353 
Q 438 2991 88 3259 
L 400 3622 
z
M 650 5222 
Q 1238 4759 1738 4328 
Q 1525 4109 1369 3941 
Q 838 4441 331 4878 
L 650 5222 
z
" transform="scale(0.015625)"/>
     </defs>
     <use xlink:href="#MicrosoftYaHei-53ea"/>
     <use xlink:href="#MicrosoftYaHei-6709" transform="translate(100 0)"/>
     <use xlink:href="#MicrosoftYaHei-5165" transform="translate(200 0)"/>
     <use xlink:href="#MicrosoftYaHei-5ea6" transform="translate(300 0)"/>
     <use xlink:href="#MicrosoftYaHei-4e3a" transform="translate(400 0)"/>
     <use xlink:href="#MicrosoftYaHei-20" transform="translate(500 0)"/>
     <use xlink:href="#MicrosoftYaHei-30" transform="translate(529.589844 0)"/>
     <use xlink:href="#MicrosoftYaHei-20" transform="translate(588.232422 0)"/>
     <use xlink:href="#MicrosoftYaHei-7684" transform="translate(617.822266 0)"/>
     <use xlink:href="#MicrosoftYaHei-9876" transform="translate(717.822266 0)"/>
     <use xlink:href="#MicrosoftYaHei-70b9" transform="translate(817.822266 0)"/>
     <use xlink:href="#MicrosoftYaHei-624d" transform="translate(917.822266 0)"/>
     <use xlink:href="#MicrosoftYaHei-5165" transform="translate(1017.822266 0)"/>
     <use xlink:href="#MicrosoftYaHei-961f" transform="translate(1117.822266 0)"/>
     <use xlink:href="#MicrosoftYaHei-ff1b" transform="translate(1217.822266 0)"/>
     <use xlink:href="#MicrosoftYaHei-5b58" transform="translate(1317.822266 0)"/>
     <use xlink:href="#MicrosoftYaHei-5728" transform="translate(1417.822266 0)"/>
     <use xlink:href="#MicrosoftYaHei-73af" transform="translate(1517.822266 0)"/>
     <use xlink:href="#MicrosoftYaHei-65f6" transform="translate(1617.822266 0)"/>
     <use xlink:href="#MicrosoftYaHei-53ef" transform="translate(1717.822266 0)"/>
     <use xlink:href="#MicrosoftYaHei-80fd" transform="translate(1817.822266 0)"/>
     <use xlink:href="#MicrosoftYaHei-6ca1" transform="translate(1917.822266 0)"/>
     <use xlink:href="#MicrosoftYaHei-6709" transform="translate(2017.822266 0)"/>
     <use xlink:href="#MicrosoftYaHei-53ef" transform="translate(2117.822266 0)"/>
     <use xlink:href="#MicrosoftYaHei-5904" transform="translate(2217.822266 0)"/>
     <use xlink:href="#MicrosoftYaHei-7406" transform="translate(2317.822266 0)"/>
     <use xlink:href="#MicrosoftYaHei-7684" transform="translate(2417.822266 0)"/>
     <use xlink:href="#MicrosoftYaHei-9876" transform="translate(2517.822266 0)"/>
     <use xlink:href="#MicrosoftYaHei-70b9" transform="translate(2617.822266 0)"/>
     <use xlink:href="#MicrosoftYaHei-3002" transform="translate(2717.822266 0)"/>
    </g>
   </g>
  </g>
 </g>
 <defs>
  <clipPath id="p7aa7ee9e8e">
   <rect x="12.96" y="3.96" width="838.08" height="380.16"/>
  </clipPath>
 </defs>
</svg>
